<svg width="64" height="50" viewBox="0 0 64 50" fill="none" xmlns="http://www.w3.org/2000/svg">
<path d="M63.4308 45.1445C63.4308 47.6127 61.5171 49.6129 59.1558 49.6129H4.63792C2.27701 49.6129 0.362671 47.6127 0.362671 45.1445V4.85619C0.362671 2.38798 2.27701 0.387745 4.63792 0.387745H59.1558C61.5171 0.387745 63.4308 2.38798 63.4308 4.85619V45.1445V45.1445Z" fill="white"/>
<path d="M0.724686 4.85619V45.1445C0.729031 47.3914 2.46988 49.2242 4.63792 49.2245H59.1552C61.3226 49.2242 63.0644 47.3914 63.0684 45.1445V4.85619C63.0644 2.60893 61.3226 0.775497 59.1552 0.775497H4.63792C2.46988 0.775497 0.729031 2.60927 0.724686 4.85619ZM4.63792 50C2.08247 49.9953 0.00133706 47.8333 0 45.1445V4.85619C0.00133706 2.16703 2.08247 0.00434544 4.63792 0H59.1552C61.7106 0.00434544 63.7918 2.1667 63.7931 4.85619V45.1445C63.7918 47.8333 61.7106 49.9957 59.1552 50H4.63792V50Z" fill="#0069AA"/>
<path d="M34.3915 27.8964C40.3581 27.9275 45.8053 22.6939 45.8053 16.3265C45.8053 9.36476 40.3578 4.55235 34.3915 4.55402H29.2565C23.2183 4.55235 18.2475 9.36543 18.2475 16.3265C18.2475 22.6959 23.218 27.9275 29.2565 27.8964H34.3915Z" fill="#0069AA"/>
<path d="M31.5469 22.5261V9.8842C33.9235 10.8586 35.6106 13.3184 35.6156 16.2045C35.6106 19.0912 33.9235 21.5497 31.5469 22.5261ZM22.9483 16.2045C22.954 13.3211 24.6387 10.8619 27.0136 9.8842V22.5244C24.6383 21.547 22.9536 19.0898 22.9483 16.2045ZM29.2806 5.51903C23.7632 5.5217 19.2918 10.303 19.2908 16.2045C19.2918 22.1056 23.7632 26.8869 29.2806 26.8882C34.7997 26.8869 39.2718 22.1056 39.2731 16.2045C39.2718 10.303 34.7997 5.52204 29.2806 5.51903Z" fill="white"/>
<path d="M7.28259 35.9318C7.28259 36.8778 7.91468 36.9874 8.47658 36.9874C10.9575 36.9874 11.7711 34.9872 11.7711 33.1584C11.7711 30.8627 10.3936 29.2054 8.17808 29.2054C7.70643 29.2054 7.48916 29.2411 7.28225 29.2545V35.9318H7.28259ZM6.15745 30.1744C6.15745 29.0703 5.61828 29.1432 5.10217 29.1315V28.8126C5.55009 28.8357 6.00837 28.8357 6.45695 28.8357C6.93896 28.8357 7.59312 28.8126 8.44348 28.8126C11.4161 28.8126 13.0349 30.9349 13.0349 33.1089C13.0349 34.3256 12.3691 37.3812 8.3051 37.3812C7.72014 37.3812 7.17997 37.3571 6.6408 37.3571C6.12436 37.3571 5.61828 37.3688 5.10217 37.3812V37.0619C5.79042 36.9874 6.12436 36.9633 6.15745 36.129V30.1744V30.1744Z" fill="black"/>
<path d="M14.6652 29.8803C14.366 29.8803 14.103 29.5858 14.103 29.2666C14.103 28.959 14.3784 28.6763 14.6652 28.6763C14.9637 28.6763 15.2281 28.9346 15.2281 29.2666C15.2281 29.5985 14.9751 29.8803 14.6652 29.8803ZM13.4371 37.0616H13.6544C13.9756 37.0616 14.2059 37.0616 14.2059 36.6555V33.3292C14.2059 32.7901 14.0334 32.7155 13.6082 32.4705V32.2743C14.1477 32.1011 14.7915 31.8695 14.8367 31.8324C14.9172 31.7836 14.9854 31.7702 15.0442 31.7702C15.1004 31.7702 15.1238 31.8441 15.1238 31.9434V36.6558C15.1238 37.062 15.3768 37.062 15.6987 37.062H15.8929V37.3812C15.5025 37.3812 15.1004 37.3571 14.6883 37.3571C14.2751 37.3571 13.8609 37.3688 13.4368 37.3812V37.0616H13.4371Z" fill="black"/>
<path d="M16.9846 33.4031C16.9846 32.9495 16.8576 32.8268 16.3191 32.5935V32.3605C16.8122 32.1887 17.2821 32.0283 17.8337 31.7702C17.8684 31.7702 17.9019 31.795 17.9019 31.8926V32.6914C18.557 32.1887 19.1199 31.7702 19.8901 31.7702C20.8648 31.7702 21.2088 32.5313 21.2088 33.4893V36.6558C21.2088 37.062 21.4621 37.062 21.783 37.062H21.9903V37.3812C21.5868 37.3812 21.186 37.3571 20.7729 37.3571C20.3594 37.3571 19.9456 37.3688 19.5321 37.3812V37.062H19.7397C20.0609 37.062 20.2899 37.062 20.2899 36.6558V33.4776C20.2899 32.777 19.8901 32.4337 19.2349 32.4337C18.8672 32.4337 18.2816 32.7523 17.9019 33.0237V36.6558C17.9019 37.062 18.1556 37.062 18.4771 37.062H18.683V37.3812C18.2819 37.3812 17.8798 37.3571 17.4657 37.3571C17.0535 37.3571 16.6394 37.3688 16.2269 37.3812V37.062H16.4338C16.755 37.062 16.9843 37.062 16.9843 36.6558V33.4031H16.9846Z" fill="black"/>
<path d="M24.8957 33.6003C25.1818 33.6003 25.2156 33.4402 25.2156 33.2921C25.2156 32.6673 24.8603 32.1639 24.2168 32.1639C23.5172 32.1639 23.0349 32.7155 22.8975 33.6003H24.8957ZM22.8634 33.9934C22.84 34.1037 22.84 34.2879 22.8634 34.7054C22.9306 35.8709 23.6325 36.8286 24.5498 36.8286C25.1822 36.8286 25.6762 36.4599 26.1004 36.007L26.2605 36.1788C25.7324 36.9272 25.0782 37.5663 24.1373 37.5663C22.3118 37.5663 21.9442 35.6744 21.9442 34.8899C21.9442 32.4828 23.4594 31.7705 24.262 31.7705C25.1929 31.7705 26.1927 32.3966 26.203 33.6979C26.203 33.7731 26.203 33.8453 26.193 33.9198L26.0887 33.9937H22.8634V33.9934Z" fill="black"/>
<path d="M26.4678 37.0616H26.778C27.0979 37.0616 27.3282 37.0616 27.3282 36.6555V33.2069C27.3282 32.8268 26.9033 32.7523 26.7312 32.654V32.4705C27.5695 32.0898 28.0291 31.7702 28.1334 31.7702C28.2006 31.7702 28.2354 31.8066 28.2354 31.9307V33.0354H28.2594C28.5456 32.5564 29.0286 31.7702 29.7285 31.7702C30.015 31.7702 30.3827 31.9785 30.3827 32.4207C30.3827 32.752 30.1654 33.0481 29.8442 33.0481C29.4872 33.0481 29.4872 32.752 29.0851 32.752C28.8899 32.752 28.2474 33.0354 28.2474 33.7725V36.6555C28.2474 37.0616 28.4767 37.0616 28.7979 37.0616H29.4404V37.3808C28.8093 37.3685 28.3283 37.3568 27.8346 37.3568C27.3633 37.3568 26.8806 37.3685 26.4681 37.3808V37.0616H26.4678Z" fill="black"/>
<path d="M30.8871 35.6741C31.0365 36.4843 31.4955 37.1726 32.3348 37.1726C33.011 37.1726 33.263 36.7303 33.263 36.3011C33.263 34.8518 30.7614 35.3187 30.7614 33.3426C30.7614 32.6536 31.2782 31.7705 32.5417 31.7705C32.9081 31.7705 33.4014 31.8815 33.8493 32.1272L33.9289 33.3783H33.6652C33.5508 32.6055 33.1494 32.1636 32.4137 32.1636C31.9547 32.1636 31.5192 32.4457 31.5192 32.9732C31.5192 34.4109 34.1823 33.9683 34.1823 35.8953C34.1823 36.7049 33.5739 37.5657 32.2074 37.5657C31.7482 37.5657 31.208 37.3932 30.8072 37.1475L30.6802 35.7359L30.8871 35.6741Z" fill="black"/>
<path d="M44.5482 31.0335H44.2617C44.0438 29.5985 43.0905 29.0209 41.8055 29.0209C40.4842 29.0209 38.5672 29.9652 38.5672 32.9114C38.5672 35.3923 40.2208 37.1726 41.9881 37.1726C43.1232 37.1726 44.0675 36.3376 44.2965 35.048L44.5602 35.1215L44.2965 36.9142C43.8141 37.2338 42.5169 37.566 41.7574 37.566C39.0723 37.566 37.3735 35.7115 37.3735 32.9491C37.3735 30.4325 39.475 28.6268 41.725 28.6268C42.6546 28.6268 43.5497 28.947 44.4339 29.2786L44.5482 31.0335Z" fill="black"/>
<path d="M44.9626 37.0616H45.1792C45.5018 37.0616 45.7314 37.0616 45.7314 36.6555V29.8194C45.7314 29.0209 45.5589 28.9965 45.1224 28.8611V28.6645C45.582 28.5051 46.0644 28.2848 46.306 28.1364C46.43 28.0639 46.5226 28.001 46.5567 28.001C46.6266 28.001 46.6493 28.0759 46.6493 28.1745V36.6558C46.6493 37.0619 46.9027 37.0619 47.2239 37.0619H47.4178V37.3812C47.0294 37.3812 46.6266 37.3571 46.2131 37.3571C45.8006 37.3571 45.3871 37.3688 44.9623 37.3812V37.0616H44.9626Z" fill="black"/>
<path d="M52.3342 36.7053C52.3342 36.9269 52.4589 36.9383 52.6534 36.9383C52.7918 36.9383 52.9643 36.9269 53.1137 36.9269V37.1856C52.62 37.2341 51.678 37.4918 51.4601 37.566L51.4033 37.5286V36.5338C50.7143 37.1352 50.1855 37.566 49.3696 37.566C48.7499 37.566 48.1077 37.1352 48.1077 36.1053V32.9619C48.1077 32.6423 48.062 32.3351 47.4195 32.2743V32.0406C47.8333 32.0286 48.7499 31.9554 48.8996 31.9554C49.0276 31.9554 49.0276 32.0406 49.0276 32.3114V35.4779C49.0276 35.8469 49.0276 36.9018 50.0258 36.9018C50.4155 36.9018 50.932 36.5833 51.4136 36.1544V32.8509C51.4136 32.6059 50.8628 32.4705 50.4506 32.3482V32.1275C51.4821 32.053 52.1259 31.9554 52.2406 31.9554C52.3339 31.9554 52.3339 32.0406 52.3339 32.1763V36.7053H52.3342Z" fill="black"/>
<path d="M54.6172 35.9936C54.6172 36.4599 55.0303 37.2461 55.8002 37.2461C57.0282 37.2461 57.5447 35.9572 57.5447 34.8642C57.5447 33.5381 56.6047 32.4337 55.7096 32.4337C55.2827 32.4337 54.9274 32.7289 54.6172 33.0117V35.9936ZM54.6172 32.654C55.0761 32.2378 55.6965 31.7702 56.3276 31.7702C57.66 31.7702 58.4639 33.0113 58.4639 34.3491C58.4639 35.9572 57.3612 37.566 55.7186 37.566C54.8699 37.566 54.422 37.2702 54.1238 37.1352L53.7799 37.4176L53.5395 37.2832C53.6421 36.5592 53.7 35.8469 53.7 35.0975V29.8198C53.7 29.0212 53.5268 28.9968 53.0909 28.8614V28.6649C53.5499 28.5054 54.0316 28.2852 54.2726 28.1367C54.3993 28.0642 54.4905 28.0014 54.5259 28.0014C54.5945 28.0014 54.6172 28.0762 54.6172 28.1749V32.654V32.654Z" fill="black"/>
<path d="M5.08984 44.5194H5.17742C5.40204 44.5194 5.63971 44.4866 5.63971 44.1386V40.6392C5.63971 40.2909 5.40204 40.2575 5.17742 40.2575H5.08984V40.0573C5.33352 40.0573 5.70823 40.0837 6.01475 40.0837C6.32729 40.0837 6.70133 40.0573 6.99515 40.0573V40.2575H6.9069C6.68295 40.2575 6.44529 40.2909 6.44529 40.6392V44.139C6.44529 44.4869 6.68295 44.5197 6.9069 44.5197H6.99515V44.7206C6.69565 44.7206 6.31994 44.6948 6.00874 44.6948C5.70188 44.6948 5.33352 44.7206 5.09018 44.7206V44.5194H5.08984Z" fill="black"/>
<path d="M6.96808 44.6915V44.5495H6.90791C6.68429 44.5495 6.41889 44.5077 6.41755 44.1387V40.6393C6.41889 40.2702 6.68429 40.2284 6.90791 40.2284H6.96808V40.0861C6.67961 40.0861 6.31793 40.1131 6.01442 40.1131C5.7176 40.1131 5.35859 40.0884 5.11659 40.0861V40.2284H5.17642C5.39937 40.2284 5.66545 40.2699 5.66545 40.6393V44.139C5.66545 44.508 5.39937 44.5498 5.17642 44.5498H5.11659V44.6919C5.35859 44.6895 5.71091 44.6651 6.0074 44.6651C6.31225 44.6648 6.67326 44.6899 6.96808 44.6915ZM6.99482 44.7487C6.69265 44.7487 6.3186 44.722 6.00774 44.722C5.70222 44.722 5.33453 44.7487 5.08985 44.7487H5.06244V44.7203V44.5197V44.4907H5.08985H5.17676C5.40339 44.4843 5.60996 44.4653 5.61163 44.1387V40.6393C5.60996 40.3123 5.40339 40.2909 5.17676 40.2869H5.06244V40.2575V40.0279H5.08985C5.33453 40.0279 5.70958 40.0543 6.01476 40.0543C6.32596 40.0543 6.7 40.0279 6.99516 40.0279H7.0229V40.0576V40.2869H6.99516H6.90825C6.68095 40.2909 6.47337 40.3123 6.47203 40.6393V44.139C6.47337 44.4656 6.68095 44.4846 6.90825 44.491H7.0229V44.5201V44.749H6.99482V44.7487Z" fill="black"/>
<path d="M11.2864 43.4036L11.2985 43.3902V40.8862C11.2985 40.3377 10.9425 40.2575 10.7546 40.2575H10.6176V40.0573C10.9114 40.0573 11.1985 40.0837 11.4924 40.0837C11.7481 40.0837 12.0054 40.0573 12.2605 40.0573V40.2575H12.1679C11.9045 40.2575 11.6107 40.311 11.6107 41.1062V44.1453C11.6107 44.3793 11.6174 44.613 11.6478 44.8205H11.4101L8.19349 40.9855V43.7382C8.19349 44.3198 8.29946 44.5194 8.78046 44.5194H8.88676V44.7202C8.61767 44.7202 8.34959 44.6938 8.08118 44.6938C7.8004 44.6938 7.51293 44.7202 7.23181 44.7202V44.5194H7.31939C7.75026 44.5194 7.88162 44.2055 7.88162 43.672V40.8578C7.88162 40.4844 7.59349 40.2575 7.31304 40.2575H7.23215V40.0573C7.46881 40.0573 7.71282 40.0837 7.94948 40.0837C8.13734 40.0837 8.31851 40.0573 8.50603 40.0573L11.2864 43.4036Z" fill="black"/>
<path d="M11.2717 43.3902V43.3879L11.2664 43.3832L11.2717 43.3902ZM11.2864 43.4036L11.3065 43.3839L11.2864 43.4036ZM11.4101 44.7905H11.617C11.589 44.5893 11.5839 44.368 11.5839 44.1454V41.1062C11.5839 40.3047 11.8982 40.2284 12.1676 40.2281H12.2331V40.086C11.9871 40.0884 11.74 40.1124 11.492 40.1124C11.2056 40.1124 10.9274 40.0884 10.6453 40.086L10.6447 40.2281H10.755C10.9468 40.2284 11.3256 40.3197 11.3256 40.8863L11.3172 43.4113L11.3048 43.424L11.2841 43.4454L8.5057 40.086C8.31985 40.086 8.13934 40.1124 7.94848 40.1124C7.71984 40.1124 7.48519 40.0884 7.25922 40.086L7.25789 40.2281H7.31338C7.60586 40.2284 7.9077 40.4678 7.9077 40.8589V43.672C7.9077 44.2069 7.76831 44.5481 7.31906 44.5501L7.25889 44.5481V44.6915C7.52931 44.6892 7.80809 44.6648 8.08051 44.6648C8.34124 44.6648 8.60163 44.6892 8.85902 44.6915V44.5501H8.78047C8.28843 44.5481 8.16709 44.3192 8.16642 43.7382V40.9103L11.4101 44.7905ZM11.6478 44.8486L11.3904 44.8393L8.22023 41.0604V43.7382C8.22759 44.3188 8.31049 44.484 8.7808 44.4907H8.91417V44.5194V44.7487H8.88676C8.61634 44.7487 8.34759 44.722 8.08085 44.722C7.80107 44.722 7.5146 44.7487 7.23115 44.7487H7.20374V44.7203V44.4907H7.23115H7.31939C7.73188 44.488 7.8502 44.2045 7.85488 43.672V40.8589C7.85355 40.5032 7.58079 40.2869 7.31371 40.2869H7.20407V40.2562V40.0279H7.23148C7.47048 40.0279 7.71516 40.0543 7.94881 40.0543C8.13567 40.0543 8.31584 40.0279 8.52676 40.0379L11.2721 43.3431V40.8859C11.2687 40.3551 10.9371 40.2906 10.7556 40.2866H10.5905V40.2558V40.0275H10.6179C10.9131 40.0275 11.2002 40.054 11.4927 40.054C11.7467 40.054 12.0024 40.0275 12.2608 40.0275H12.2879V40.057V40.2866H12.2608H12.1682C11.9102 40.2936 11.6458 40.318 11.6378 41.1059V44.145C11.6378 44.3787 11.6448 44.6117 11.6749 44.8149L11.6805 44.8486H11.6478V44.8486Z" fill="black"/>
<path d="M13.1968 40.3912C12.7275 40.3912 12.7094 40.5119 12.6155 40.9989H12.428C12.4527 40.8117 12.4835 40.6249 12.5032 40.4313C12.5286 40.2435 12.5403 40.0573 12.5403 39.8637H12.6904C12.7405 40.0646 12.8966 40.0573 13.0664 40.0573H16.2881C16.4579 40.0573 16.614 40.0503 16.6267 39.85L16.7754 39.8775C16.7514 40.0573 16.726 40.2375 16.7076 40.4183C16.6959 40.5985 16.6959 40.7783 16.6959 40.9588L16.5077 41.033C16.495 40.7863 16.4642 40.3912 16.0457 40.3912H15.0209V43.9448C15.0209 44.4606 15.2401 44.5194 15.5393 44.5194H15.6587V44.7203C15.415 44.7203 14.9771 44.6945 14.6408 44.6945C14.2654 44.6945 13.8279 44.7203 13.5839 44.7203V44.5194H13.7032C14.0472 44.5194 14.221 44.4866 14.221 43.9588V40.3912H13.1968Z" fill="black"/>
<path d="M15.6583 44.7487C15.4126 44.7487 14.9761 44.7223 14.6405 44.7223C14.2654 44.7223 13.8289 44.7487 13.5835 44.7487H13.5571V44.7203V44.4906H13.5835H13.7029C14.0468 44.4816 14.1852 44.4769 14.1932 43.9588V40.42H13.1968V40.3912V40.3611H14.2477V43.9588C14.2477 44.495 14.0458 44.5495 13.7032 44.5501H13.6106V44.6912C13.8566 44.6892 14.2778 44.6648 14.6408 44.6648C14.966 44.6648 15.3832 44.6892 15.6306 44.6912V44.5501H15.5393C15.2375 44.5495 14.9941 44.4702 14.9941 43.9448V40.3611H16.0457C16.4649 40.3631 16.5204 40.7439 16.5334 40.9926L16.6684 40.9391C16.6684 40.7649 16.6691 40.5898 16.6805 40.4143C16.6985 40.2418 16.7213 40.0723 16.745 39.9012L16.6501 39.8841C16.6207 40.0787 16.4448 40.089 16.2881 40.086H13.0664H13.0337C12.8869 40.0864 12.7261 40.079 12.6703 39.8925H12.5667C12.566 40.0773 12.5543 40.2562 12.5302 40.4343C12.5119 40.6178 12.4831 40.794 12.4604 40.9708H12.5934C12.6757 40.5052 12.7291 40.3544 13.1964 40.3611V40.3912V40.42C12.7338 40.429 12.7438 40.5119 12.6416 41.0056L12.6372 41.0283H12.6152H12.3965L12.4006 40.9936C12.426 40.807 12.4574 40.6195 12.4758 40.4256C12.5015 40.2408 12.5135 40.0553 12.5135 39.8634V39.834H12.5403H12.7118L12.7168 39.8547C12.7592 40.0232 12.8749 40.0245 13.034 40.0275H13.0667H16.2884C16.4625 40.0245 16.5892 40.0218 16.5996 39.8474L16.6023 39.8156L16.6303 39.822L16.8072 39.8517L16.8025 39.8815C16.7778 40.0606 16.753 40.2408 16.7346 40.4196C16.7226 40.5981 16.7226 40.7779 16.7226 40.9585V40.9785L16.7046 40.9862L16.4836 41.0731L16.4819 41.034C16.4649 40.783 16.4408 40.4196 16.0457 40.4196H15.0483V43.9444C15.055 44.4482 15.2415 44.4836 15.5393 44.4903H15.6857V44.519V44.7484H15.6583V44.7487Z" fill="black"/>
<path d="M16.975 44.5194H17.0629C17.2875 44.5194 17.5252 44.4866 17.5252 44.1386V40.6392C17.5252 40.2909 17.2875 40.2575 17.0629 40.2575H16.975V40.0573C17.3547 40.0573 18.0059 40.0837 18.5293 40.0837C19.0554 40.0837 19.7039 40.0573 20.1288 40.0573C20.1177 40.3441 20.1237 40.7863 20.1421 41.0794L19.9539 41.1329C19.9239 40.6984 19.8493 40.3521 19.1928 40.3521H18.3257V42.1009H19.0675C19.4422 42.1009 19.5237 41.8743 19.5612 41.5133H19.7487C19.7363 41.7737 19.7296 42.0344 19.7296 42.2948C19.7296 42.5495 19.7363 42.8032 19.7487 43.0559L19.5612 43.0961C19.5241 42.6963 19.5054 42.4352 19.0742 42.4352H18.3261V43.9909C18.3261 44.4254 18.6871 44.4254 19.0869 44.4254C19.8363 44.4254 20.1669 44.3719 20.3551 43.6112L20.5292 43.657C20.448 44.0119 20.3734 44.3646 20.318 44.7196C19.9172 44.7196 19.1988 44.6938 18.6383 44.6938C18.0747 44.6938 17.332 44.7196 16.9753 44.7196V44.5194H16.975Z" fill="black"/>
<path d="M20.2936 44.6912C20.3484 44.3533 20.4196 44.016 20.4958 43.6797L20.3731 43.6466C20.1863 44.394 19.8239 44.4609 19.0862 44.4556C18.6924 44.4556 18.299 44.4556 18.297 43.9916V42.4068H19.0735C19.51 42.4022 19.5538 42.683 19.5853 43.063L19.72 43.0336C19.7076 42.7876 19.7016 42.5399 19.7016 42.2952C19.7016 42.0445 19.7076 41.7941 19.72 41.5418H19.5853C19.5498 41.8911 19.4479 42.1341 19.0671 42.1301H18.2967V40.322H19.1925C19.842 40.3167 19.9499 40.6764 19.978 41.0962L20.1131 41.0568C20.102 40.8689 20.0943 40.6266 20.0943 40.4036C20.0943 40.2893 20.0974 40.181 20.1007 40.0864C19.6768 40.0887 19.0431 40.1128 18.5293 40.1128C18.0162 40.1128 17.3841 40.0887 17.0024 40.0864V40.2284H17.0629C17.2852 40.2288 17.5509 40.2702 17.5526 40.6393V44.139C17.5509 44.508 17.2852 44.5485 17.0629 44.5502H17.0024V44.6912C17.3661 44.6899 18.0881 44.6648 18.6366 44.6648C19.1885 44.6648 19.8914 44.6899 20.2936 44.6912ZM20.3166 44.7487C19.9162 44.7487 19.1972 44.7213 18.6366 44.7213C18.074 44.7213 17.3316 44.7487 16.9746 44.7487H16.9482V44.7203V44.5194V44.4907H16.9746H17.0629C17.2892 44.4866 17.4948 44.4653 17.4974 44.1387V40.6393C17.4948 40.313 17.2892 40.2909 17.0629 40.2869H16.9482V40.2575V40.0279H16.9746C17.357 40.0279 18.0065 40.0543 18.5293 40.0543C19.0548 40.0543 19.7036 40.0279 20.1288 40.0279H20.1562L20.1555 40.0586C20.1515 40.1589 20.1488 40.2776 20.1488 40.4033C20.1488 40.6339 20.1555 40.8873 20.1679 41.0775L20.1686 41.1009L20.1478 41.1079L19.9285 41.1694L19.9275 41.1346C19.8908 40.7014 19.8363 40.3859 19.1928 40.3795H18.3511L18.3505 42.0716H19.0675C19.4275 42.0669 19.492 41.8703 19.5348 41.51L19.5361 41.4833H19.5605H19.7765L19.7758 41.514C19.7637 41.7751 19.7561 42.0345 19.7561 42.2949C19.7561 42.5476 19.7634 42.8013 19.7758 43.055L19.7765 43.0791L19.7537 43.0847L19.5364 43.1312L19.5351 43.0998C19.4913 42.6916 19.4887 42.4684 19.0738 42.4637H18.3515V43.9913C18.3522 44.3971 18.6794 44.3951 19.0865 44.3971C19.8386 44.3924 20.1398 44.3529 20.3283 43.6038L20.335 43.5764L20.3611 43.5811L20.561 43.6369L20.5556 43.6644C20.4747 44.018 20.3999 44.3713 20.3434 44.7246L20.3387 44.7484H20.3166V44.7487Z" fill="black"/>
<path d="M22.1721 42.3139H22.4773C23.1027 42.3139 23.4393 42.0605 23.4393 41.272C23.4393 40.6787 23.0834 40.2973 22.5271 40.2973C22.3396 40.2973 22.2594 40.318 22.1721 40.3247V42.3139ZM21.3729 40.7649C21.3729 40.2779 21.1226 40.2575 20.929 40.2575H20.816V40.0573C21.0159 40.0573 21.4033 40.0837 21.7847 40.0837C22.1588 40.0837 22.4593 40.0573 22.7902 40.0573C23.5764 40.0573 24.2773 40.2842 24.2773 41.2335C24.2773 41.8339 23.9026 42.2012 23.4089 42.4091L24.4762 44.1182C24.6511 44.401 24.7757 44.4803 25.0823 44.5194V44.7202C24.8757 44.7202 24.6758 44.6945 24.4702 44.6945C24.277 44.6945 24.0758 44.7202 23.8833 44.7202C23.4022 44.046 22.9891 43.3247 22.5833 42.5549H22.1718V43.9855C22.1718 44.5 22.3961 44.5194 22.6826 44.5194H22.7955V44.7202C22.4389 44.7202 22.0779 44.6945 21.7209 44.6945C21.4214 44.6945 21.1279 44.7202 20.8154 44.7202V44.5194H20.9283C21.1603 44.5194 21.3722 44.4064 21.3722 44.1594V40.7649H21.3729Z" fill="black"/>
<path d="M22.4773 42.2862C23.0957 42.2791 23.4076 42.0502 23.4136 41.274C23.4096 40.6904 23.071 40.3287 22.5272 40.326C22.3583 40.326 22.2785 40.3424 22.1989 40.3508V42.2862H22.4773ZM22.1718 42.343H22.1441V40.2973L22.1678 40.2953C22.2537 40.2883 22.338 40.2699 22.5268 40.2699C23.0954 40.2699 23.4664 40.6653 23.4664 41.274C23.4648 42.0719 23.1074 42.3426 22.4773 42.343H22.1718ZM22.1718 42.5262H22.5987L22.6064 42.5412C23.0132 43.3087 23.4233 44.0297 23.8833 44.6915C24.0731 44.6915 24.2743 44.6648 24.4686 44.6648C24.6681 44.6648 24.861 44.6885 25.0552 44.6912V44.5444C24.762 44.506 24.6243 44.4117 24.4539 44.135L23.3662 42.3958L23.3976 42.3828C23.8866 42.1765 24.2489 41.8192 24.2496 41.2326C24.2489 40.306 23.5747 40.0907 22.7899 40.0864C22.461 40.0864 22.1605 40.1134 21.7844 40.1134C21.4174 40.1134 21.0467 40.0887 20.8425 40.0864V40.2284H20.9287C21.1222 40.2288 21.398 40.2632 21.398 40.7649V44.1594C21.398 44.4278 21.1633 44.5495 20.9287 44.5501H20.8425V44.6912C21.1426 44.6898 21.4281 44.6648 21.7212 44.6648C22.0699 44.6648 22.4225 44.6898 22.7685 44.6912V44.5501H22.6829C22.3981 44.5495 22.1441 44.5117 22.1441 43.9846V42.5265H22.1718V42.5262ZM25.0826 44.7487C24.873 44.7487 24.6748 44.7219 24.4689 44.7219C24.2787 44.7219 24.0788 44.7487 23.8615 44.7377C23.3822 44.0648 22.9714 43.3481 22.5683 42.5853H22.1989V43.9849C22.2059 44.488 22.3948 44.4836 22.6832 44.4913H22.8233V44.52V44.7494H22.7956C22.4386 44.7494 22.0756 44.7226 21.7216 44.7226C21.4231 44.7226 21.1296 44.7494 20.816 44.7494H20.7886V44.7209V44.4913H20.816H20.929C21.1537 44.4893 21.3435 44.385 21.3442 44.16V40.7656C21.3395 40.2916 21.1226 40.2943 20.929 40.2876H20.7886V40.2582V40.0285H20.816C21.0183 40.0285 21.4037 40.0549 21.7847 40.0549C22.1575 40.0549 22.4573 40.0285 22.7902 40.0285C23.5774 40.0302 24.3021 40.2618 24.3044 41.2329C24.3044 41.8356 23.9317 42.2126 23.4501 42.4225L24.4986 44.1029C24.6735 44.38 24.7828 44.4492 25.0863 44.4913L25.1087 44.495V44.52V44.7494H25.0826V44.7487Z" fill="black"/>
<path d="M29.3234 43.4036L29.3348 43.3902V40.8862C29.3348 40.3377 28.9794 40.2575 28.7919 40.2575H28.6555V40.0573C28.9494 40.0573 29.2352 40.0837 29.5296 40.0837C29.7864 40.0837 30.0407 40.0573 30.2984 40.0573V40.2575H30.2045C29.9421 40.2575 29.649 40.311 29.649 41.1062V44.1453C29.649 44.3793 29.6547 44.613 29.6857 44.8205H29.4491L26.2325 40.9855V43.7382C26.2325 44.3198 26.3377 44.5194 26.8188 44.5194H26.9254V44.7202C26.6566 44.7202 26.3882 44.6938 26.1195 44.6938C25.8373 44.6938 25.5506 44.7202 25.2691 44.7202V44.5194H25.356C25.7875 44.5194 25.9196 44.2055 25.9196 43.672V40.8578C25.9196 40.4844 25.6321 40.2575 25.3513 40.2575H25.2694V40.0573C25.5064 40.0573 25.7514 40.0837 25.9888 40.0837C26.1743 40.0837 26.3565 40.0573 26.5443 40.0573L29.3234 43.4036Z" fill="black"/>
<path d="M29.3083 43.3902V43.3882L29.3036 43.3832L29.3083 43.3902ZM29.323 43.4036L29.3434 43.3839L29.323 43.4036ZM29.4487 44.7905H29.6536C29.6262 44.5906 29.6202 44.368 29.6202 44.1454V41.1062C29.6208 40.3047 29.9367 40.2301 30.2041 40.2281H30.2703V40.086C30.0236 40.0884 29.7769 40.1124 29.5293 40.1124C29.2425 40.1124 28.9637 40.0884 28.6812 40.086V40.2281H28.7915C28.9841 40.2301 29.3625 40.3197 29.3625 40.8863L29.3538 43.4113L29.3421 43.424L29.3227 43.4461L26.5439 40.086C26.3571 40.086 26.1762 40.1124 25.9877 40.1124C25.7567 40.1124 25.5228 40.0884 25.2958 40.086V40.2281H25.3509C25.6444 40.2301 25.9449 40.4671 25.9449 40.8579V43.6707C25.9449 44.2069 25.8039 44.5481 25.3556 44.5501L25.2955 44.5495V44.6912C25.5655 44.6892 25.844 44.6648 26.1174 44.6648C26.3798 44.6648 26.6395 44.6892 26.8976 44.6912V44.5501H26.8184C26.3267 44.5495 26.2043 44.3202 26.203 43.7375V40.9117L29.4487 44.7905ZM29.6854 44.8486L29.4286 44.8393L26.2578 41.0611V43.7375C26.2652 44.3198 26.3477 44.484 26.8187 44.4907H26.9511V44.5194V44.7487H26.924C26.6536 44.7487 26.3862 44.7213 26.1177 44.7213C25.8393 44.7213 25.5505 44.7487 25.2691 44.7487H25.241V44.7203V44.4907H25.2691H25.356C25.7688 44.4886 25.8874 44.2045 25.8915 43.6707V40.8579C25.8908 40.5019 25.618 40.2869 25.3513 40.2869H25.2413V40.2575V40.0279H25.2694C25.5084 40.0279 25.7524 40.0543 25.9881 40.0543C26.1719 40.0543 26.3527 40.0279 26.5623 40.0366L29.3086 43.3431V40.8859C29.3066 40.3551 28.974 40.2893 28.7922 40.2866H28.6277V40.2572V40.0275H28.6552C28.9503 40.0275 29.2381 40.054 29.5299 40.054C29.784 40.054 30.0397 40.0275 30.2977 40.0275H30.3251V40.0573V40.2866H30.2977H30.2048C29.9471 40.2933 29.6817 40.318 29.6757 41.1059V44.145C29.6757 44.3787 29.681 44.6106 29.7124 44.8156L29.7161 44.8486H29.6854V44.8486Z" fill="black"/>
<path d="M32.2151 40.8054H32.2014L31.6214 42.6967H32.789L32.2151 40.8054ZM31.3029 43.765C31.24 43.9916 31.1645 44.1668 31.1645 44.2851C31.1645 44.487 31.4282 44.5197 31.6331 44.5197H31.703V44.7203C31.4523 44.7056 31.1969 44.6946 30.9455 44.6946C30.7209 44.6946 30.497 44.7056 30.2717 44.7203V44.5197H30.3094C30.5524 44.5197 30.7594 44.3653 30.8519 44.0849L31.8514 41.0197C31.9326 40.772 32.0456 40.4384 32.0834 40.1903C32.2823 40.1171 32.533 39.9848 32.6513 39.9032C32.671 39.8965 32.6827 39.8902 32.7014 39.8902C32.7202 39.8902 32.7315 39.8902 32.7452 39.9109C32.7643 39.9637 32.7823 40.0239 32.8014 40.0774L33.9516 43.5714C34.0261 43.8044 34.1003 44.0514 34.1809 44.253C34.2568 44.4405 34.3878 44.5197 34.5947 44.5197H34.6318V44.7203C34.3504 44.7056 34.0689 44.6946 33.7701 44.6946C33.4646 44.6946 33.151 44.7056 32.8325 44.7203V44.5197H32.901C33.0441 44.5197 33.2887 44.493 33.2887 44.3262C33.2887 44.24 33.2326 44.0591 33.1627 43.8445L32.919 43.0704H31.5014L31.3029 43.765Z" fill="black"/>
<path d="M32.1876 40.8144L32.202 40.809L32.1876 40.8144ZM31.6582 42.6666H32.7515L32.2084 40.8769L31.6582 42.6666ZM31.583 42.7254L32.182 40.7759H32.2024H32.2154V40.8054L32.2087 40.8077L32.2154 40.8054V40.7759H32.2338L32.8278 42.7254H31.583ZM32.8605 44.6892C33.1694 44.6775 33.4729 44.6648 33.7707 44.6648C34.0605 44.6648 34.333 44.6775 34.6044 44.6892V44.5495H34.5954C34.3811 44.5508 34.2337 44.4605 34.1571 44.264C34.0756 44.0621 33.9997 43.8144 33.9262 43.5801L32.7759 40.0864C32.7569 40.0332 32.7395 39.9734 32.7231 39.9262C32.7171 39.9192 32.7185 39.9192 32.7141 39.9192H32.7017C32.6894 39.9192 32.682 39.9236 32.666 39.9276C32.546 40.0108 32.2953 40.1428 32.1098 40.195C32.0713 40.448 31.9587 40.7816 31.8774 41.0293L30.8783 44.0945C30.7831 44.385 30.5638 44.5501 30.3104 44.5495H30.3001V44.6892C30.5143 44.6775 30.7303 44.6648 30.9472 44.6648C31.1889 44.6648 31.4356 44.6775 31.6745 44.6892V44.5495H31.6341C31.4302 44.5461 31.1457 44.5227 31.1387 44.2857C31.1394 44.1534 31.2156 43.9829 31.2771 43.7566L31.3035 43.7649L31.2771 43.7556L31.4827 43.0419H32.9394L33.1894 43.8355C33.26 44.0501 33.3168 44.2282 33.3168 44.3262C33.3078 44.5304 33.0447 44.5455 32.903 44.5495H32.8619V44.6892H32.8605ZM34.6304 44.7487C34.3497 44.7357 34.0682 44.7213 33.7707 44.7213C33.4652 44.7213 33.153 44.7357 32.8344 44.7487L32.8057 44.75V44.7203V44.4896H32.8331H32.9016C33.0467 44.4896 33.2613 44.4549 33.2613 44.3265C33.2626 44.25 33.2072 44.0675 33.138 43.8545L32.9003 43.0991H31.5218L31.3279 43.7743C31.2647 44.0009 31.1889 44.1778 31.1902 44.2861C31.1922 44.4492 31.4252 44.4896 31.6328 44.4896H31.7287V44.52V44.75L31.7006 44.7487C31.4506 44.7357 31.1956 44.7213 30.9459 44.7213C30.7229 44.7213 30.4966 44.7357 30.2733 44.7487L30.2439 44.75V44.7203V44.4896H30.2713H30.3091C30.5407 44.489 30.7353 44.3472 30.8255 44.0758L31.8256 41.0096C31.9062 40.7626 32.0198 40.43 32.0733 40.1632C32.2695 40.092 32.5209 39.9577 32.6412 39.8768C32.6583 39.8698 32.676 39.8617 32.7007 39.8617C32.7165 39.8607 32.7495 39.8651 32.7706 39.8995C32.7883 39.955 32.8077 40.0145 32.8268 40.0686L33.977 43.562C34.0502 43.796 34.125 44.0427 34.2069 44.2406C34.2795 44.4188 34.3945 44.489 34.5947 44.4896H34.6579V44.52V44.75L34.6304 44.7487Z" fill="black"/>
<path d="M34.9066 40.3912C34.4387 40.3912 34.4196 40.5119 34.3257 40.9989H34.1385C34.1626 40.8117 34.1946 40.6249 34.2144 40.4313C34.2384 40.2435 34.2508 40.0573 34.2508 39.8637H34.4016C34.4504 40.0646 34.6071 40.0573 34.7756 40.0573H37.9996C38.1674 40.0573 38.3242 40.0503 38.3359 39.85L38.4853 39.8775C38.4619 40.0573 38.4375 40.2375 38.4181 40.4183C38.4044 40.5985 38.4044 40.7783 38.4044 40.9588L38.2169 41.033C38.2065 40.7863 38.1751 40.3912 37.7552 40.3912H36.731V43.9448C36.731 44.4606 36.9503 44.5194 37.2495 44.5194H37.3688V44.7203C37.1248 44.7203 36.6879 44.6945 36.3496 44.6945C35.9763 44.6945 35.5374 44.7203 35.294 44.7203V44.5194H35.4127C35.7573 44.5194 35.9312 44.4866 35.9312 43.9588V40.3912H34.9066Z" fill="black"/>
<path d="M37.3688 44.7487C37.1234 44.7487 36.6852 44.7223 36.3489 44.7223C35.9762 44.7223 35.5387 44.7487 35.2947 44.7487H35.2666V44.7203V44.4906H35.2947H35.413C35.7576 44.4816 35.8953 44.4769 35.904 43.9588L35.9034 40.42H34.9073V40.3912V40.3611H35.9589V43.9588C35.9589 44.495 35.7566 44.5481 35.413 44.5495H35.3211V44.6915C35.5678 44.6892 35.9876 44.6648 36.3493 44.6648C36.6765 44.6648 37.0944 44.6892 37.341 44.6915V44.5495H37.2498C36.9483 44.5481 36.7053 44.4706 36.7046 43.9448V40.3611H37.7559C38.1757 40.3631 38.2299 40.7439 38.2422 40.9926L38.3779 40.9391C38.3779 40.7649 38.3786 40.5898 38.3916 40.4153C38.4087 40.2431 38.4321 40.0723 38.4548 39.9018L38.3602 39.8841C38.3315 40.0787 38.156 40.089 37.9999 40.086H34.7759H34.7438C34.5964 40.0884 34.4369 40.079 34.3801 39.8918H34.2782C34.2768 40.0773 34.2645 40.2562 34.2397 40.4343C34.2227 40.6185 34.1926 40.7953 34.1692 40.9708H34.3029C34.3851 40.5052 34.4393 40.3534 34.9069 40.3611V40.3912V40.42C34.444 40.428 34.4543 40.5119 34.3527 41.0056L34.348 41.0283H34.326H34.1074L34.1114 40.9949C34.1368 40.807 34.1675 40.6195 34.1866 40.427C34.2113 40.2408 34.223 40.0553 34.223 39.8634V39.834H34.2511H34.4216L34.4276 39.8547C34.4707 40.0232 34.5844 40.0245 34.7441 40.0275H34.7762H38.0002C38.1727 40.0245 38.2994 40.0218 38.3104 39.8477L38.3111 39.8156L38.3405 39.822L38.518 39.8517L38.5133 39.8815C38.4879 40.0606 38.4638 40.2408 38.4448 40.4196C38.4324 40.5981 38.4324 40.7779 38.4324 40.9585V40.9785L38.414 40.9862L38.1928 41.0731L38.1921 41.034C38.1757 40.783 38.151 40.4196 37.7559 40.4196H36.7584V43.9444C36.7651 44.4482 36.9523 44.4836 37.2501 44.4903H37.3959V44.519V44.7484H37.3688V44.7487Z" fill="black"/>
<path d="M38.7162 44.5194H38.8038C39.0291 44.5194 39.2654 44.4866 39.2654 44.1386V40.6392C39.2654 40.2909 39.0291 40.2575 38.8038 40.2575H38.7162V40.0573C38.9599 40.0573 39.3339 40.0837 39.6401 40.0837C39.9536 40.0837 40.3283 40.0573 40.6225 40.0573V40.2575H40.5343C40.3083 40.2575 40.0706 40.2909 40.0706 40.6392V44.139C40.0706 44.4869 40.3083 44.5197 40.5343 44.5197H40.6225V44.7206C40.3223 44.7206 39.9469 44.6948 39.6347 44.6948C39.3286 44.6948 38.9595 44.7206 38.7162 44.7206V44.5194V44.5194Z" fill="black"/>
<path d="M40.5938 44.6912V44.5495H40.5343C40.3103 44.5495 40.0446 44.5077 40.0446 44.1387V40.6393C40.0446 40.2702 40.3103 40.2284 40.5343 40.2284H40.5938V40.0864C40.306 40.0887 39.9443 40.1128 39.6398 40.1128C39.3433 40.1128 38.9856 40.0887 38.7433 40.0864V40.2284H38.8041C39.0261 40.2288 39.2925 40.2702 39.2925 40.6393V44.139C39.2925 44.508 39.0261 44.5498 38.8041 44.5498H38.7433V44.6915C38.9836 44.6889 39.3373 44.6651 39.6344 44.6651C39.9383 44.6648 40.2993 44.6892 40.5938 44.6912ZM40.6225 44.7487C40.3203 44.7487 39.947 44.7213 39.6348 44.7213C39.3292 44.7213 38.9602 44.7487 38.7162 44.7487H38.6895V44.7203V44.5194V44.4907H38.7162H38.8044C39.0291 44.4866 39.2366 44.4653 39.238 44.1387V40.6393C39.2366 40.313 39.0291 40.2909 38.8044 40.2869H38.6895V40.2575V40.0279H38.7162C38.9602 40.0279 39.3363 40.0543 39.6401 40.0543C39.9516 40.0543 40.327 40.0279 40.6225 40.0279H40.6479V40.0573V40.2869H40.6225H40.5343C40.3056 40.2909 40.1007 40.313 40.098 40.6393V44.139C40.1007 44.4656 40.3056 44.487 40.5343 44.491H40.6479V44.5197V44.749H40.6225V44.7487Z" fill="black"/>
<path d="M43.2071 44.5264C44.4195 44.5264 44.631 43.3836 44.631 42.4092C44.631 41.4331 44.138 40.2512 43.1008 40.2512C42.0077 40.2512 41.6835 41.2934 41.6835 42.1876C41.6835 43.3836 42.1959 44.5264 43.2071 44.5264ZM43.1125 39.9574C44.4448 39.9574 45.5058 40.8401 45.5058 42.2624C45.5058 43.7994 44.4749 44.8202 43.1452 44.8202C41.8199 44.8202 40.8087 43.8586 40.8087 42.4216C40.8087 41.033 41.8138 39.9574 43.1125 39.9574Z" fill="black"/>
<path d="M41.6554 42.1872C41.6574 41.2887 41.9857 40.2211 43.1008 40.2211C44.1611 40.2234 44.6558 41.4274 44.6584 42.4088C44.6558 43.3832 44.4419 44.5531 43.2071 44.5531V44.5261V44.497C44.3954 44.4956 44.601 43.3832 44.6036 42.4088C44.6036 41.4408 44.1166 40.2816 43.1008 40.2802C42.0295 40.2809 41.7129 41.2981 41.7102 42.1872C41.7102 43.3775 42.2183 44.495 43.2074 44.497V44.5261V44.5531C42.1712 44.5528 41.6574 43.3902 41.6554 42.1872ZM40.7813 42.4219C40.7833 41.0173 41.8005 39.9306 43.1128 39.9286V39.9573V39.9868C41.8292 39.9868 40.8358 41.0484 40.8338 42.4219C40.8371 43.8422 41.8332 44.7898 43.1462 44.7905C44.4626 44.7898 45.4784 43.7837 45.4801 42.2618C45.4787 40.8568 44.4342 39.9881 43.1128 39.9868V39.9573V39.9286C44.4545 39.9296 45.5309 40.8211 45.5336 42.2614C45.5322 43.8144 44.4883 44.8456 43.1459 44.8486C41.8095 44.846 40.7833 43.8743 40.7813 42.4219Z" fill="black"/>
<path d="M49.7156 43.4036L49.7287 43.3902V40.8862C49.7287 40.3377 49.3717 40.2575 49.1835 40.2575H49.0478V40.0573C49.3409 40.0573 49.628 40.0837 49.9212 40.0837C50.1789 40.0837 50.4343 40.0573 50.691 40.0573V40.2575H50.5964C50.3347 40.2575 50.0402 40.311 50.0402 41.1062V44.1453C50.0402 44.3793 50.0469 44.613 50.0786 44.8205H49.841L46.623 40.9855V43.7382C46.623 44.3198 46.7293 44.5194 47.21 44.5194H47.3169V44.7202C47.0478 44.7202 46.7798 44.6938 46.5114 44.6938C46.2299 44.6938 45.9428 44.7202 45.6613 44.7202V44.5194H45.7489C46.1811 44.5194 46.3118 44.2055 46.3118 43.672V40.8578C46.3118 40.4844 46.0253 40.2575 45.7425 40.2575H45.6617V40.0573C45.8986 40.0573 46.1423 40.0837 46.3803 40.0837C46.5672 40.0837 46.7473 40.0573 46.9352 40.0573L49.7156 43.4036Z" fill="black"/>
<path d="M49.7012 43.3903V43.3883L49.6958 43.3832L49.7012 43.3903ZM49.7155 43.4036L49.7359 43.3839L49.7155 43.4036ZM49.8409 44.7905H50.0451C50.0191 44.5893 50.0124 44.368 50.0124 44.1454V41.1062C50.0124 40.303 50.3282 40.2301 50.596 40.2281H50.6638V40.0861C50.4158 40.0884 50.1701 40.1125 49.9201 40.1125C49.6353 40.1125 49.3559 40.0884 49.0741 40.0861V40.2281H49.1831C49.3763 40.2301 49.7536 40.3207 49.7536 40.8863L49.7476 43.4113L49.7353 43.424L49.7149 43.4461L46.9351 40.0861C46.7503 40.0861 46.5681 40.1125 46.3789 40.1125C46.1489 40.1125 45.9146 40.0884 45.687 40.0861V40.2281H45.7418C46.0356 40.2301 46.3371 40.4671 46.3371 40.8579V43.672C46.3371 44.2069 46.1974 44.5481 45.7481 44.5502L45.6866 44.5495V44.6912C45.9577 44.6892 46.2358 44.6648 46.5106 44.6648C46.771 44.6648 47.0304 44.6892 47.2894 44.6912V44.5502H47.2085C46.7182 44.5495 46.5955 44.3202 46.5955 43.7382V40.9103L49.8409 44.7905ZM50.0785 44.8487L49.8202 44.8393L46.65 41.0611V43.7382C46.6577 44.3198 46.7402 44.4833 47.2096 44.4893H47.3439V44.5197V44.7487H47.3172C47.0468 44.7487 46.778 44.722 46.5116 44.722C46.2315 44.722 45.9444 44.7487 45.6602 44.7487H45.6355V44.7203V44.4896H45.6602H45.7491C46.161 44.4883 46.2793 44.2045 46.2846 43.6724V40.8582C46.284 40.5022 46.0112 40.2873 45.7428 40.2873H45.6358V40.2579V40.0282H45.6606C45.9009 40.0282 46.1442 40.0546 46.3799 40.0546C46.5654 40.0546 46.7449 40.0282 46.9565 40.0382L49.7018 43.3435V40.8863C49.6998 40.3555 49.3669 40.2909 49.1841 40.2869H49.0203V40.2575V40.0279H49.0483C49.3422 40.0279 49.6293 40.0543 49.9211 40.0543C50.1772 40.0543 50.4315 40.0279 50.6916 40.0279H50.7177V40.0573V40.2869H50.6916H50.597C50.3396 40.294 50.0742 40.319 50.0689 41.1062V44.1454C50.0689 44.379 50.0735 44.612 50.104 44.8159L50.1086 44.849H50.0785V44.8487Z" fill="black"/>
<path d="M52.6073 40.8054H52.5949L52.0133 42.6967H53.1826L52.6073 40.8054ZM51.6937 43.765C51.6329 43.9916 51.5574 44.1668 51.5574 44.2851C51.5574 44.487 51.8204 44.5197 52.0253 44.5197H52.0952V44.7203C51.8452 44.7056 51.5885 44.6946 51.3384 44.6946C51.1138 44.6946 50.8892 44.7056 50.6646 44.7203V44.5197H50.7003C50.945 44.5197 51.1522 44.3653 51.2435 44.0849L52.245 41.0197C52.3252 40.772 52.4382 40.4384 52.4743 40.1903C52.6755 40.1171 52.9242 39.9848 53.0449 39.9032C53.0626 39.8965 53.0749 39.8902 53.0943 39.8902C53.1127 39.8902 53.1244 39.8902 53.1368 39.9109C53.1565 39.9637 53.1745 40.0239 53.1936 40.0774L54.3431 43.5714C54.4177 43.8044 54.4926 44.0514 54.5748 44.253C54.6487 44.4405 54.7797 44.5197 54.9859 44.5197H55.0244V44.7203C54.7429 44.7056 54.4615 44.6946 54.1613 44.6946C53.8558 44.6946 53.5429 44.7056 53.2243 44.7203V44.5197H53.2929C53.4359 44.5197 53.6806 44.493 53.6806 44.3262C53.6806 44.24 53.6245 44.0591 53.5553 43.8445L53.3116 43.0704H51.8936L51.6937 43.765Z" fill="black"/>
<path d="M52.5816 40.8144L52.5933 40.8091L52.5816 40.8144ZM52.0511 42.6666H53.1435L52.6003 40.8776L52.0511 42.6666ZM51.9752 42.7247L52.5752 40.776H52.5936H52.6073V40.8054L52.6006 40.8077L52.6073 40.8054V40.776H52.627L53.2173 42.7247H51.9752ZM53.2514 44.6899C53.5603 44.6775 53.8645 44.6648 54.163 44.6648C54.4528 44.6648 54.7245 44.6775 54.9973 44.6892L54.9966 44.5495H54.9863C54.7747 44.5502 54.6273 44.4606 54.5487 44.264C54.4665 44.0621 54.392 43.8144 54.3184 43.5815L53.1682 40.0864C53.1498 40.0332 53.1304 39.9734 53.1154 39.9273C53.1107 39.9193 53.1107 39.9193 53.1077 39.9193H53.0953C53.0816 39.9193 53.0746 39.9243 53.0602 39.9286C52.9376 40.0102 52.6875 40.1442 52.5033 40.195C52.4642 40.4481 52.3506 40.7813 52.271 41.0293L51.2702 44.0946C51.175 44.385 50.9574 44.5502 50.7017 44.5495H50.6926V44.6892C50.9076 44.6775 51.1222 44.6648 51.3398 44.6648C51.5821 44.6648 51.8288 44.6775 52.0685 44.6892V44.5495H52.0267C51.8231 44.5461 51.5383 44.5234 51.5313 44.2851C51.5326 44.153 51.6095 43.9836 51.6704 43.7566L51.6951 43.765L51.6704 43.7556L51.8759 43.042H53.3317L53.583 43.8355C53.6516 44.0501 53.709 44.2283 53.709 44.3262C53.6994 44.5304 53.437 44.5455 53.2952 44.5495H53.2528V44.6899H53.2514ZM55.0227 44.7487C54.7413 44.7367 54.4605 44.722 54.163 44.722C53.8581 44.722 53.5446 44.7367 53.2267 44.7487L53.1986 44.75V44.7203V44.4907H53.2254H53.2939C53.439 44.4907 53.6542 44.4546 53.6542 44.3262C53.6562 44.2497 53.5994 44.0678 53.5289 43.8542L53.2926 43.0988H51.9137L51.7205 43.774C51.6577 44.0026 51.5835 44.1774 51.5848 44.2851C51.5848 44.4489 51.8191 44.4907 52.0254 44.4907H52.1206V44.5194V44.7497L52.0925 44.7484C51.8432 44.7363 51.5871 44.7216 51.3384 44.7216C51.1145 44.7216 50.8905 44.7363 50.6646 44.7484L50.6378 44.7497V44.72V44.4903H50.6646H50.7003C50.9326 44.489 51.1279 44.3459 51.2194 44.0752L52.2189 41.009C52.2984 40.7619 52.4114 40.4293 52.4662 40.1636C52.6621 40.0907 52.9135 39.957 53.0348 39.8761C53.0505 39.8691 53.0683 39.8614 53.0943 39.8614C53.11 39.8601 53.1428 39.8644 53.1615 39.9009C53.1812 39.953 53.1993 40.0138 53.2197 40.068L54.3689 43.5614C54.4441 43.7954 54.5183 44.0421 54.5992 44.2413C54.6731 44.4181 54.7854 44.4883 54.9856 44.4903H55.0501V44.5191V44.7494L55.0227 44.7487Z" fill="black"/>
<path d="M56.5987 44.0648C56.5987 44.3335 56.7719 44.4124 56.9728 44.4405C57.2281 44.4609 57.5099 44.4609 57.7981 44.4261C58.0591 44.3927 58.2851 44.2329 58.3967 44.0648C58.4967 43.9183 58.5528 43.7315 58.5906 43.5844H58.7715C58.7029 43.9651 58.6153 44.3399 58.5405 44.7199C57.9919 44.7199 57.4411 44.6942 56.8919 44.6942C56.3417 44.6942 55.7925 44.7199 55.2426 44.7199V44.519H55.3289C55.5541 44.519 55.7988 44.4863 55.7988 44.0718V40.6392C55.7988 40.2909 55.5541 40.2575 55.3289 40.2575H55.2426V40.0573C55.5729 40.0573 55.8981 40.0837 56.229 40.0837C56.5483 40.0837 56.8598 40.0573 57.1797 40.0573V40.2575H57.0222C56.7846 40.2575 56.5984 40.2645 56.5984 40.6185V44.0648H56.5987Z" fill="black"/>
<path d="M58.5181 44.6912C58.5893 44.3282 58.6722 43.9739 58.7387 43.6132H58.61C58.5722 43.7586 58.5161 43.9378 58.4188 44.0829C58.3011 44.2563 58.0702 44.4195 57.7991 44.4552C57.6353 44.4729 57.4732 44.4816 57.3204 44.4816C57.1991 44.4816 57.0821 44.4759 56.9684 44.4679C56.7655 44.4435 56.569 44.3506 56.569 44.0645V40.6182C56.569 40.2472 56.7889 40.2278 57.0219 40.2278H57.1506V40.0857C56.8424 40.0881 56.5389 40.1128 56.2287 40.1128C55.9055 40.1128 55.5889 40.0881 55.269 40.0857V40.2278H55.3285C55.5512 40.2278 55.8239 40.2696 55.8239 40.6376V44.0718C55.8239 44.504 55.5525 44.5492 55.3285 44.5492H55.269V44.6909C55.8082 44.6895 56.3487 44.6645 56.8916 44.6645C57.4344 44.6645 57.9769 44.6899 58.5181 44.6912ZM58.5405 44.7487C57.9903 44.7487 57.4397 44.722 56.8919 44.722C56.342 44.722 55.7925 44.7487 55.2413 44.7487H55.2152V44.7203V44.4907H55.2413H55.3289C55.5548 44.4843 55.7688 44.4683 55.7721 44.0722V40.6379C55.7688 40.313 55.5555 40.2909 55.3289 40.2869H55.2152V40.2575V40.0279H55.2413C55.5742 40.0279 55.8988 40.0543 56.229 40.0543C56.5463 40.0543 56.8571 40.0279 57.1797 40.0279H57.2044V40.0573V40.2869H57.1797H57.0222C56.7799 40.2936 56.6298 40.2816 56.6241 40.6185V44.0648C56.6255 44.3145 56.7789 44.3814 56.9741 44.4111C57.0844 44.4195 57.2007 44.4238 57.3207 44.4238C57.4735 44.4238 57.6323 44.4161 57.7934 44.3981C58.0481 44.3653 58.2667 44.2085 58.375 44.0494C58.471 43.9057 58.5258 43.7228 58.5635 43.5778L58.5689 43.556H58.5893H58.8042L58.7989 43.5908C58.7283 43.9732 58.6421 44.3452 58.5665 44.726L58.5619 44.7484H58.5405V44.7487Z" fill="black"/>
<path d="M58.5893 40.5728H58.6675C58.7524 40.5728 58.7915 40.5042 58.7915 40.3933C58.7915 40.2809 58.7314 40.2418 58.6635 40.2418H58.589V40.5728H58.5893ZM58.3687 40.9438V40.9097C58.4489 40.8973 58.4639 40.8993 58.4639 40.8468V40.3251C58.4639 40.2519 58.4569 40.2265 58.3714 40.2305V40.1947H58.7076C58.8239 40.1947 58.9302 40.2542 58.9302 40.3822C58.9302 40.4865 58.8664 40.5644 58.7741 40.5941L58.8824 40.7556C58.9326 40.8281 58.9901 40.8973 59.0275 40.9214V40.9435H58.8995C58.8373 40.9435 58.7832 40.8051 58.6632 40.6202H58.5893V40.8532C58.5893 40.899 58.605 40.897 58.6859 40.9094V40.9435H58.3687V40.9438ZM58.6956 41.1433C58.9901 41.1433 59.216 40.8749 59.216 40.5728C59.216 40.2699 58.9927 39.9995 58.6956 39.9995C58.3991 39.9995 58.1738 40.2699 58.1738 40.5728C58.1741 40.8753 58.3994 41.1433 58.6956 41.1433ZM58.6956 39.8678C59.0723 39.8678 59.3538 40.1773 59.3538 40.5728C59.3538 40.9682 59.0723 41.274 58.6956 41.274C58.3195 41.274 58.0381 40.9682 58.0381 40.5728C58.0384 40.1773 58.3195 39.8678 58.6956 39.8678Z" fill="black"/>
</svg>
