<svg width="91" height="50" viewBox="0 0 91 50" fill="none" xmlns="http://www.w3.org/2000/svg">
<path fill-rule="evenodd" clip-rule="evenodd" d="M4.34381 26.8484H5.49908C6.56192 26.8484 7.30129 26.6642 7.71719 26.3408C8.13309 26.016 8.36414 25.4159 8.36414 24.6303C8.36414 23.7985 8.13309 23.1978 7.71719 22.8743C7.30129 22.5046 6.56192 22.366 5.54529 22.366H4.34381V26.8484ZM0 29.159V20.0555H5.22181C6.56192 20.0555 7.53235 20.0555 8.22551 20.1479C8.87246 20.2403 9.42698 20.3789 9.88909 20.5638C10.8133 20.9335 11.5527 21.4418 12.0148 22.1349C12.4769 22.8281 12.7079 23.6599 12.7079 24.6303C12.7079 25.6014 12.4307 26.4787 11.8299 27.2181C11.2754 27.9113 10.3974 28.4189 9.24214 28.7886C8.82625 28.9279 8.27172 29.0203 7.62477 29.0659C6.93161 29.1121 5.91497 29.159 4.43623 29.159H0ZM14.2791 21.7652V19.8244H18.2532V21.7652H14.2791ZM14.2791 29.159V22.4122H18.2532V29.159H14.2791V29.159ZM20.1941 29.159V22.4122H23.7985V23.4288C24.2606 23.0129 24.7689 22.7357 25.3235 22.5508C25.9242 22.366 26.5712 22.2736 27.2643 22.2736C27.8651 22.2736 28.4196 22.3198 28.8817 22.4584C29.39 22.597 29.7597 22.7819 30.0832 23.0591C30.4067 23.3364 30.5915 23.6137 30.7301 23.9834C30.8688 24.3068 30.915 24.9076 30.915 25.6476V29.159H26.9871V25.6476C26.9871 25.1386 26.8946 24.8152 26.6636 24.6303C26.4787 24.4455 26.1091 24.353 25.6469 24.353C25.1386 24.353 24.7689 24.4455 24.4917 24.6765C24.2606 24.9076 24.1682 25.1848 24.1682 25.6476V29.159H20.1941V29.159ZM39.3715 26.1553C39.0018 26.2483 38.4935 26.3407 37.8928 26.4325C36.8762 26.618 36.414 26.8484 36.414 27.1719C36.414 27.3574 36.5065 27.4954 36.6913 27.6347C36.8761 27.7264 37.1534 27.7726 37.5231 27.7726C38.17 27.7726 38.6784 27.6809 38.9556 27.4492C39.2791 27.265 39.4177 26.9415 39.4177 26.4787C39.4177 26.3857 39.4177 26.2945 39.4177 26.2483C39.4177 26.2021 39.4177 26.1553 39.3715 26.1553ZM39.7412 29.159L39.5102 28.512C39.0018 28.7893 38.4473 29.021 37.8928 29.159C37.292 29.3445 36.6451 29.3907 35.9057 29.3907C34.7967 29.3907 33.9187 29.2052 33.2717 28.8355C32.671 28.4658 32.3937 27.9119 32.3937 27.265C32.3937 26.5718 32.671 26.0628 33.2717 25.7394C33.8725 25.4621 35.0277 25.2311 36.6913 25.0462C36.9224 25.0462 37.1996 25 37.5693 25C38.817 24.9538 39.4177 24.7227 39.4177 24.3993C39.4177 24.1682 39.3253 24.0296 39.0943 23.9372C38.8632 23.8447 38.4935 23.8447 37.9852 23.8447C37.6155 23.8447 37.292 23.8909 37.061 23.9834C36.8299 24.0758 36.7375 24.2606 36.6913 24.4917H32.8096C32.8558 23.7523 33.3179 23.1516 34.1959 22.7819C35.0739 22.366 36.414 22.1811 38.1238 22.1811C38.9556 22.1811 39.695 22.2274 40.3882 22.366C41.0813 22.4584 41.6359 22.597 42.0055 22.7819C42.4676 22.9667 42.8373 23.244 43.0222 23.475C43.207 23.7523 43.2994 24.1682 43.2994 24.6765V28.374C43.2994 28.512 43.3457 28.6044 43.3919 28.6975C43.4843 28.8355 43.5767 28.8817 43.7153 28.9748V29.159H39.7412V29.159ZM54.159 25.6014H58.2255C58.1331 26.8022 57.4861 27.7264 56.3771 28.4196C55.2674 29.0665 53.7431 29.3913 51.8022 29.3913C49.6303 29.3913 47.9205 28.9754 46.719 28.0961C45.4713 27.265 44.9168 26.0628 44.9168 24.631C44.9168 23.1522 45.4713 21.9507 46.6728 21.0727C47.9205 20.2409 49.5841 19.7788 51.7098 19.7788C53.6506 19.7788 55.1756 20.1023 56.2847 20.7493C57.3943 21.3962 58.0407 22.3204 58.1793 23.5219H54.021C53.9748 23.0136 53.7431 22.6901 53.374 22.459C53.0043 22.228 52.4498 22.0894 51.756 22.0894C50.878 22.0894 50.2773 22.2742 49.8614 22.7363C49.3993 23.1522 49.2144 23.7529 49.2144 24.631C49.2144 25.4165 49.4455 26.0628 49.8614 26.4794C50.3241 26.8953 51.0166 27.1263 51.8491 27.1263C52.5422 27.1263 53.0499 26.9883 53.4664 26.7104C53.8355 26.4787 54.0659 26.0622 54.159 25.6014ZM66.2662 26.1553C65.8965 26.2483 65.3882 26.3407 64.7412 26.4325C63.7701 26.618 63.2618 26.8484 63.2618 27.1719C63.2618 27.3574 63.3549 27.4954 63.5853 27.6347C63.7701 27.7264 64.048 27.7726 64.4177 27.7726C65.0647 27.7726 65.5268 27.6809 65.8496 27.4492C66.1275 27.265 66.3117 26.9415 66.3117 26.4787C66.3117 26.3857 66.3117 26.2945 66.2662 26.2483C66.2662 26.2015 66.2662 26.1553 66.2662 26.1553ZM66.6359 29.159L66.4048 28.512C65.8965 28.7893 65.3419 29.021 64.7412 29.159C64.1398 29.3445 63.4935 29.3907 62.7535 29.3907C61.6444 29.3907 60.7665 29.2052 60.1664 28.8355C59.565 28.4658 59.2421 27.9119 59.2421 27.265C59.2421 26.5718 59.5656 26.0628 60.1664 25.7394C60.7671 25.4621 61.9217 25.2311 63.5853 25.0462C63.7701 25.0462 64.0943 25 64.4177 25C65.6648 24.9538 66.3117 24.7227 66.3117 24.3993C66.3117 24.1682 66.1731 24.0296 65.9883 23.9372C65.7578 23.8447 65.3875 23.8447 64.8792 23.8447C64.4633 23.8447 64.1398 23.8909 63.955 23.9834C63.7246 24.0758 63.5853 24.2606 63.5397 24.4917H59.7036C59.7036 23.7523 60.1663 23.1516 61.0899 22.7819C61.9679 22.366 63.2618 22.1811 65.0178 22.1811C65.8496 22.1811 66.589 22.2274 67.2822 22.366C67.9753 22.4584 68.5292 22.597 68.8995 22.7819C69.3616 22.9667 69.6858 23.244 69.8706 23.475C70.0548 23.7523 70.1479 24.1682 70.1479 24.6765V28.374C70.1479 28.512 70.1941 28.6044 70.2865 28.6975C70.3327 28.8355 70.4713 28.8817 70.61 28.9748V29.159H66.6359V29.159ZM72.1811 29.159V22.4122H75.8318V23.6599C76.0628 23.1978 76.4332 22.8281 76.9415 22.597C77.4498 22.366 78.0968 22.2736 78.8817 22.2736H79.2514V24.9538C79.1127 24.9076 78.9741 24.9076 78.8361 24.9076C78.6981 24.9076 78.5582 24.9076 78.4664 24.9076C77.6346 24.9076 77.0801 25 76.7104 25.231C76.2952 25.4621 76.1097 25.8318 76.1097 26.3857V29.1583H72.1811V29.159ZM90.942 29.159H87.43V28.3278C87.0148 28.6975 86.5065 28.9748 85.9981 29.1128C85.4436 29.2982 84.8422 29.3913 84.1491 29.3913C82.902 29.3913 81.8854 29.0665 81.0992 28.4196C80.3136 27.7726 79.8977 26.8953 79.8977 25.7856C79.8977 24.7696 80.3136 23.8909 81.0992 23.2446C81.8854 22.5515 82.902 22.228 84.1491 22.228C84.7504 22.228 85.2588 22.3204 85.7671 22.459C86.2292 22.5977 86.6907 22.8287 87.061 23.1522V20.0561H90.9427V29.159H90.942ZM85.4898 27.4023C85.9981 27.4023 86.3672 27.2643 86.6907 26.9877C86.9686 26.7092 87.1066 26.3408 87.1066 25.8318C87.1066 25.3235 86.9679 24.9538 86.6907 24.7227C86.4602 24.4455 86.0437 24.3068 85.4898 24.3068C84.9353 24.3068 84.5188 24.4455 84.2883 24.7227C84.0104 24.9538 83.8724 25.3235 83.8724 25.8318C83.8724 26.3408 84.0111 26.7092 84.2883 26.9877C84.5656 27.2643 84.9815 27.4023 85.4898 27.4023Z" fill="#0054A6"/>
<path fill-rule="evenodd" clip-rule="evenodd" d="M21.5342 44.5471H68.7615C76.987 44.5471 84.0573 39.464 86.9685 32.3013H84.7504C81.9778 38.3549 75.878 42.5601 68.7615 42.5601H21.5342C14.4639 42.5601 8.3179 38.3543 5.54525 32.3013H3.37335C6.28463 39.464 13.3087 44.5471 21.5342 44.5471ZM86.9685 17.6987C84.0573 10.536 76.987 5.45287 68.7615 5.45287H21.5342C13.3087 5.45287 6.28463 10.536 3.37335 17.6987H5.54525C8.3179 11.6451 14.4639 7.43993 21.5342 7.43993H68.7615C75.878 7.43993 81.9778 11.6451 84.7504 17.6987H86.9685Z" fill="#0054A6"/>
<path fill-rule="evenodd" clip-rule="evenodd" d="M45.3327 0C56.5157 0 66.0351 7.48613 69.1774 17.6987H21.3956C24.5379 7.48613 34.0567 0 45.3327 0ZM69.1774 32.3013C66.0351 42.5139 56.5151 50 45.3327 50C34.0573 50 24.5379 42.5139 21.3956 32.3013H69.1774Z" fill="#ED1C24"/>
</svg>
