<svg width="118" height="50" viewBox="0 0 118 50" fill="none" xmlns="http://www.w3.org/2000/svg">
<path d="M76.183 23.728H79.175L81.759 30.286H82.304L84.484 23.728H88.027L90.222 30.286H90.773L93.371 23.728H96.482L92.736 32.485H88.203L86.269 26.063L84.357 32.485H79.812L76.183 23.728Z" fill="#1A171B"/>
<path d="M101.091 29.586H104.968C104.962 30.018 105.095 30.295 105.363 30.42C105.556 30.502 105.804 30.549 106.109 30.565C106.414 30.579 107.375 30.592 108.992 30.6C110.687 30.596 111.703 30.586 112.043 30.577C112.385 30.567 112.654 30.534 112.854 30.477C113.149 30.397 113.295 30.176 113.295 29.817C113.295 29.555 113.191 29.381 112.982 29.296C112.773 29.208 112.347 29.159 111.707 29.15C111.213 29.15 110.168 29.125 108.57 29.074C106.933 29.023 105.867 28.992 105.373 28.986C104.412 28.963 103.674 28.902 103.154 28.8C102.638 28.698 102.234 28.536 101.947 28.31C101.453 27.935 101.207 27.304 101.207 26.423C101.207 25.435 101.488 24.737 102.053 24.333C102.483 24.016 103.145 23.812 104.035 23.726C104.926 23.639 106.74 23.593 109.474 23.593C111.406 23.593 112.761 23.631 113.544 23.702C114.751 23.814 115.577 24.038 116.028 24.374C116.477 24.71 116.7 25.273 116.7 26.069C116.7 26.141 116.698 26.28 116.692 26.481H112.811C112.799 26.237 112.768 26.069 112.721 25.982C112.672 25.89 112.578 25.818 112.436 25.76C112.264 25.694 111.957 25.649 111.522 25.628C111.086 25.608 110.163 25.601 108.751 25.601C107.05 25.601 106.015 25.636 105.642 25.707C105.269 25.775 105.085 25.976 105.085 26.295C105.085 26.602 105.269 26.789 105.642 26.858C105.951 26.915 107.365 26.967 109.888 27.018C112.011 27.063 113.429 27.114 114.146 27.17C114.861 27.227 115.431 27.336 115.855 27.5C116.337 27.691 116.677 27.957 116.875 28.291C117.074 28.627 117.174 29.111 117.174 29.74C117.174 30.566 117.008 31.178 116.674 31.58C116.424 31.877 116.076 32.096 115.629 32.24C115.182 32.386 114.557 32.484 113.748 32.537C112.881 32.588 111.268 32.615 108.906 32.615C106.929 32.615 105.468 32.58 104.527 32.511C103.584 32.441 102.875 32.322 102.4 32.146C101.904 31.957 101.564 31.708 101.375 31.4C101.186 31.093 101.092 30.625 101.092 29.996V29.586H101.091Z" fill="#1A171B"/>
<path d="M76.878 42.682V33.924H82.878C84.067 33.924 84.831 33.947 85.175 33.996C86.042 34.111 86.63 34.389 86.937 34.832C87.242 35.275 87.396 36.066 87.396 37.205C87.396 38.287 87.269 39.045 87.017 39.482C86.845 39.777 86.607 40.002 86.298 40.154C85.987 40.31 85.569 40.416 85.034 40.476C84.653 40.519 83.942 40.539 82.903 40.539H79.548V42.682H76.878V42.682ZM79.548 38.352H82.884C83.491 38.348 83.863 38.34 83.997 38.327C84.132 38.315 84.253 38.28 84.36 38.225C84.495 38.153 84.59 38.043 84.641 37.895C84.692 37.745 84.717 37.514 84.717 37.206C84.717 36.892 84.686 36.663 84.621 36.518C84.557 36.372 84.445 36.268 84.283 36.202C84.162 36.157 83.697 36.128 82.883 36.114H79.547V38.352H79.548Z" fill="#FFD200"/>
<path d="M100.733 42.682L99.985 41.202H94.189L93.439 42.682H90.392L95.038 33.924H99.182L103.76 42.682H100.733ZM99.048 39.283L97.359 35.967H96.828L95.141 39.283H99.048Z" fill="#FFD200"/>
<path d="M105.2 33.924H108.71L111.565 37.434L114.299 33.924H117.776L112.983 39.584V42.682H110.223V39.584L105.2 33.924Z" fill="#FFD200"/>
<path d="M117.317 44.441L117.122 45.416L76.318 46.01C76.318 48.211 78.105 50 80.308 50H114.007C116.21 50 117.999 48.211 117.999 46.01V45.121L117.317 44.441Z" fill="#4C504D"/>
<path d="M114.009 16.75H113.452C113.19 7.832 106.005 0.68 97.159 0.68C88.312 0.68 81.128 7.832 80.867 16.75H80.31C78.105 16.75 75.638 18.744 75.638 20.949L76.32 21.627H81.437H86.322H107.995H112.882H117.999V20.74C117.999 18.537 116.212 16.75 114.009 16.75ZM85.521 16.75C85.781 10.414 90.894 5.335 97.159 5.335C103.425 5.335 108.538 10.414 108.796 16.75H85.521Z" fill="#4C504D"/>
<path d="M75.636 44.441V45.328C75.636 47.533 77.425 49.318 79.628 49.318H113.329C115.532 49.318 117.317 47.533 117.317 45.328V44.441H75.636Z" fill="#858C8B"/>
<path d="M113.329 16.07H112.772C112.511 7.152 105.323 0 96.478 0C87.635 0 80.449 7.152 80.187 16.07H79.63C77.427 16.07 75.638 17.857 75.638 20.06V20.949H80.755H85.642H107.315H112.2H117.319V20.06C117.319 17.857 115.534 16.07 113.329 16.07ZM84.841 16.07C85.101 9.732 90.214 4.656 96.477 4.656C102.745 4.656 107.856 9.732 108.116 16.07H84.841Z" fill="#858C8B"/>
<path d="M0.0299988 23.003H0.738999L2.725 27.414H2.93L4.857 23.003H5.67L7.526 27.414H7.72L9.758 23.003H10.475L8.159 27.97H7.056L5.271 23.724L3.404 27.97H2.282L0.0299988 23.003Z" fill="#1A171B"/>
<path d="M11.649 27.97V23.003H16.461V23.585H12.303V25.104H16.285V25.685H12.303V27.389H16.464V27.97H11.649Z" fill="#1A171B"/>
<path d="M17.748 27.97V23.003H21.007C21.602 23.012 21.973 23.024 22.121 23.037C22.586 23.074 22.907 23.259 23.085 23.585C23.176 23.754 23.221 23.984 23.221 24.278C23.221 24.599 23.177 24.84 23.088 24.998C23 25.155 22.84 25.275 22.614 25.357C22.906 25.406 23.113 25.52 23.234 25.701C23.355 25.882 23.415 26.168 23.415 26.558C23.415 27.054 23.326 27.396 23.146 27.585C23.041 27.693 22.908 27.773 22.749 27.822C22.589 27.876 22.352 27.913 22.034 27.936C21.764 27.958 21.422 27.968 21.007 27.968H17.748V27.97ZM18.402 25.137H21.006C21.442 25.137 21.74 25.129 21.901 25.113C22.062 25.096 22.187 25.065 22.276 25.013C22.461 24.907 22.553 24.688 22.553 24.362C22.553 24.049 22.489 23.842 22.362 23.743C22.281 23.68 22.178 23.641 22.056 23.628C21.934 23.612 21.584 23.6 21.007 23.586H18.403V25.137H18.402ZM18.402 27.389H21.006C21.518 27.389 21.88 27.375 22.091 27.347C22.302 27.32 22.457 27.266 22.556 27.185C22.681 27.079 22.745 26.868 22.745 26.549C22.745 26.21 22.676 25.989 22.534 25.887C22.435 25.811 22.321 25.767 22.195 25.754C22.066 25.74 21.67 25.728 21.006 25.718H18.402V27.389V27.389Z" fill="#1A171B"/>
<path d="M26.965 26.418H27.602C27.602 26.474 27.603 26.511 27.606 26.524C27.609 26.805 27.63 26.991 27.664 27.086C27.699 27.181 27.774 27.254 27.893 27.306C28.076 27.387 28.671 27.426 29.681 27.426C30.411 27.426 30.937 27.389 31.255 27.318C31.569 27.247 31.726 27 31.726 26.579C31.726 26.366 31.702 26.205 31.651 26.096C31.601 25.991 31.515 25.913 31.393 25.869C31.271 25.823 31.099 25.798 30.879 25.792C30.658 25.784 29.942 25.779 28.731 25.779C28.324 25.779 27.997 25.742 27.753 25.666C27.509 25.59 27.32 25.469 27.188 25.301C27.032 25.102 26.954 24.801 26.954 24.396C26.954 23.947 27.079 23.623 27.325 23.42C27.445 23.32 27.577 23.244 27.724 23.192C27.87 23.142 28.076 23.102 28.34 23.071C28.772 23.018 29.288 22.99 29.886 22.99C30.44 22.99 30.867 23.018 31.17 23.075C31.473 23.132 31.707 23.23 31.875 23.369C32.014 23.482 32.11 23.616 32.161 23.768C32.214 23.92 32.242 24.156 32.246 24.476H31.592C31.592 24.436 31.592 24.411 31.592 24.398C31.592 24.156 31.566 23.993 31.511 23.911C31.436 23.783 31.268 23.689 31.011 23.635C30.752 23.579 30.368 23.552 29.858 23.552C29.222 23.552 28.745 23.575 28.428 23.624C28.111 23.672 27.896 23.752 27.783 23.862C27.677 23.97 27.624 24.147 27.624 24.395C27.624 24.619 27.65 24.776 27.704 24.872C27.756 24.966 27.86 25.038 28.012 25.086C28.235 25.159 28.665 25.197 29.3 25.204C29.516 25.207 30.05 25.207 30.901 25.21C31.254 25.213 31.525 25.245 31.713 25.312C31.901 25.376 32.055 25.49 32.176 25.651C32.323 25.853 32.398 26.146 32.398 26.524C32.398 26.884 32.336 27.169 32.214 27.378C32.068 27.621 31.797 27.785 31.4 27.866C31.003 27.949 30.29 27.99 29.261 27.99C28.717 27.99 28.316 27.972 28.058 27.94C27.801 27.909 27.596 27.847 27.445 27.76C27.262 27.657 27.137 27.521 27.067 27.363C26.999 27.202 26.963 26.961 26.963 26.64C26.962 26.624 26.963 26.551 26.965 26.418Z" fill="#1A171B"/>
<path d="M33.748 27.97V23.003H38.56V23.585H34.403V25.104H38.383V25.685H34.403V27.389H38.564V27.97H33.748Z" fill="#1A171B"/>
<path d="M44.809 26.271H45.445C45.427 26.722 45.402 27.033 45.366 27.203C45.287 27.572 45.044 27.8 44.636 27.885C44.304 27.952 43.717 27.986 42.87 27.986C41.771 27.986 41.03 27.949 40.644 27.87C40.276 27.793 40.03 27.599 39.902 27.285C39.775 26.971 39.711 26.397 39.711 25.565C39.711 24.773 39.759 24.196 39.856 23.837C39.971 23.412 40.267 23.163 40.745 23.094C41.204 23.024 41.88 22.99 42.77 22.99C43.617 22.99 44.226 23.032 44.593 23.116C44.776 23.158 44.932 23.239 45.066 23.359C45.198 23.48 45.283 23.619 45.319 23.775C45.354 23.923 45.375 24.214 45.38 24.647H44.773C44.77 24.561 44.768 24.503 44.768 24.476C44.768 24.238 44.746 24.068 44.701 23.967C44.656 23.866 44.566 23.789 44.435 23.736C44.192 23.637 43.627 23.586 42.737 23.586C42.092 23.586 41.608 23.605 41.285 23.64C40.96 23.675 40.75 23.731 40.651 23.81C40.558 23.887 40.488 24.046 40.444 24.289C40.4 24.531 40.378 24.869 40.378 25.301C40.378 25.504 40.386 25.766 40.403 26.092C40.419 26.413 40.437 26.635 40.453 26.757C40.479 26.946 40.539 27.087 40.635 27.174C40.729 27.259 40.879 27.315 41.082 27.33C41.454 27.372 41.985 27.39 42.676 27.39C42.886 27.39 43.163 27.382 43.505 27.37C43.847 27.357 44.065 27.342 44.157 27.33C44.34 27.309 44.475 27.27 44.564 27.222C44.654 27.172 44.714 27.095 44.748 26.996C44.778 26.908 44.798 26.667 44.809 26.271Z" fill="#1A171B"/>
<path d="M46.732 23.003H47.385V25.444C47.385 26.166 47.393 26.599 47.408 26.748C47.426 26.937 47.48 27.074 47.57 27.159C47.658 27.246 47.805 27.302 48.01 27.327C48.351 27.369 48.842 27.389 49.482 27.389C50.359 27.389 50.964 27.363 51.294 27.308C51.492 27.278 51.63 27.217 51.709 27.126C51.791 27.035 51.837 26.885 51.849 26.679C51.861 26.493 51.869 26.081 51.875 25.445V23.004H52.528V25.445C52.523 26.109 52.511 26.567 52.493 26.818C52.449 27.251 52.292 27.551 52.021 27.719C51.854 27.823 51.65 27.887 51.411 27.912C51.171 27.939 50.579 27.964 49.637 27.985C48.809 27.971 48.314 27.964 48.153 27.956C47.989 27.945 47.81 27.922 47.616 27.881C47.291 27.81 47.055 27.626 46.903 27.327C46.832 27.181 46.787 27.007 46.768 26.806C46.75 26.604 46.739 26.151 46.732 25.445V23.003Z" fill="#1A171B"/>
<path d="M54.012 27.97V23.003H57.072C57.901 23.012 58.431 23.035 58.663 23.065C59.067 23.118 59.349 23.304 59.504 23.62C59.607 23.831 59.658 24.126 59.658 24.504C59.658 24.79 59.643 25.009 59.611 25.157C59.58 25.305 59.525 25.425 59.446 25.513C59.32 25.658 59.121 25.759 58.849 25.817C59.06 25.852 59.229 25.936 59.353 26.066C59.446 26.167 59.506 26.289 59.532 26.428C59.558 26.569 59.571 26.847 59.571 27.266V27.97H58.917V27.495C58.917 27.088 58.909 26.807 58.893 26.653C58.844 26.339 58.668 26.154 58.364 26.102C58.244 26.084 58.136 26.075 58.042 26.069C57.947 26.067 57.625 26.063 57.072 26.061H54.666V27.969H54.012V27.97ZM54.666 25.477H57.072C57.709 25.477 58.118 25.47 58.299 25.452C58.48 25.434 58.626 25.388 58.737 25.315C58.907 25.204 58.989 24.929 58.989 24.492C58.989 24.118 58.911 23.873 58.755 23.762C58.654 23.689 58.497 23.642 58.282 23.62C58.067 23.598 57.663 23.586 57.072 23.586H54.666V25.477Z" fill="#1A171B"/>
<path d="M61.061 27.97V23.003H65.872V23.585H61.716V25.104H65.698V25.685H61.716V27.389H65.878V27.97H61.061Z" fill="#1A171B"/>
<path d="M20.787 36V31H23.894C24.709 31.018 25.201 31.036 25.368 31.06C25.524 31.082 25.668 31.138 25.798 31.229C25.929 31.321 26.027 31.434 26.091 31.572C26.197 31.791 26.249 32.117 26.249 32.548C26.249 32.885 26.221 33.15 26.164 33.344C26.108 33.539 26.016 33.693 25.886 33.804C25.754 33.919 25.616 33.996 25.475 34.036C25.332 34.076 25.11 34.101 24.811 34.111C24.703 34.113 24.397 34.117 23.894 34.119H21.442V36H20.787ZM21.441 33.532H23.893C24.493 33.53 24.865 33.519 25.012 33.502C25.158 33.486 25.282 33.435 25.382 33.353C25.456 33.288 25.509 33.2 25.538 33.086C25.566 32.973 25.581 32.8 25.581 32.569C25.581 32.31 25.568 32.13 25.543 32.02C25.519 31.911 25.468 31.827 25.394 31.769C25.297 31.698 25.178 31.65 25.032 31.632C24.887 31.613 24.508 31.6 23.894 31.584H21.442V33.532H21.441Z" fill="#1A171B"/>
<path d="M31.992 36L31.409 34.946H27.439L26.853 36H26.112L28.895 31H29.941L32.718 36H31.992ZM31.096 34.359L29.569 31.585H29.306L27.756 34.359H31.096Z" fill="#1A171B"/>
<path d="M31.899 31H32.784L35.154 33.398L37.449 31H38.362L35.483 33.957V36H34.827V33.957L31.899 31Z" fill="#1A171B"/>
<path d="M39.014 31H40.323L42.988 35.238L45.611 31H46.926V36H46.271V31.62H45.999L43.259 36H42.725L39.956 31.62H39.669V36H39.014V31Z" fill="#1A171B"/>
<path d="M47.92 36V31H52.731V31.585H48.572V33.114H52.555V33.701H48.572V35.413H52.734V36H47.92Z" fill="#1A171B"/>
<path d="M53.495 31H54.586L58.886 35.386H59.037V31H59.692V36H58.584L54.294 31.627H54.15V36H53.495V31V31Z" fill="#1A171B"/>
<path d="M60.396 31H65.976V31.585H63.52V36H62.866V31.585H60.397V31H60.396Z" fill="#1A171B"/>
<path d="M23.007 41.468H26.226C26.221 42.239 26.197 42.739 26.151 42.968C26.1 43.223 26.021 43.417 25.913 43.543C25.806 43.672 25.64 43.774 25.416 43.85C25.114 43.95 24.436 44 23.377 44C22.382 44 21.679 43.967 21.266 43.901C20.907 43.841 20.646 43.685 20.486 43.426C20.306 43.139 20.216 42.496 20.216 41.504C20.216 40.816 20.265 40.278 20.364 39.891C20.457 39.528 20.679 39.287 21.03 39.169C21.383 39.057 22.071 38.999 23.1 38.999C23.438 38.999 23.817 39.009 24.238 39.024C24.658 39.045 24.946 39.066 25.099 39.086C25.413 39.132 25.669 39.252 25.865 39.454C25.982 39.58 26.065 39.721 26.113 39.885C26.161 40.047 26.187 40.277 26.193 40.573H25.517C25.51 40.187 25.457 39.944 25.359 39.844C25.294 39.78 25.202 39.734 25.086 39.704C24.967 39.676 24.781 39.652 24.524 39.633C24.172 39.61 23.733 39.597 23.211 39.597C22.523 39.597 22.027 39.614 21.725 39.651C21.423 39.687 21.224 39.752 21.124 39.847C21.034 39.934 20.971 40.092 20.936 40.319C20.901 40.547 20.884 40.911 20.884 41.409C20.884 42.156 20.914 42.644 20.974 42.876C21.011 43.017 21.072 43.117 21.153 43.185C21.236 43.252 21.358 43.299 21.519 43.326C21.84 43.377 22.543 43.403 23.627 43.403C24.226 43.403 24.669 43.377 24.954 43.328C25.213 43.284 25.377 43.191 25.448 43.043C25.519 42.897 25.558 42.566 25.565 42.051H23.004V41.468H23.007Z" fill="#1A171B"/>
<path d="M32.458 43.988L31.874 42.94H27.904L27.318 43.988H26.576L29.361 39.017H30.407L33.184 43.988H32.458ZM31.562 42.357L30.032 39.6H29.77L28.22 42.357H31.562Z" fill="#1A171B"/>
<path d="M32.531 39.018H38.109V39.601H35.652V43.989H34.998V39.601H32.531V39.018Z" fill="#1A171B"/>
<path d="M38.777 43.988V39.017H43.59V39.6H39.431V41.119H43.413V41.703H39.431V43.405H43.592V43.988H38.777V43.988Z" fill="#1A171B"/>
<path d="M44.063 39.018H44.771L46.757 43.431H46.96L48.889 39.018H49.702L51.557 43.431H51.751L53.789 39.018H54.506L52.19 43.989H51.086L49.303 39.74L47.435 43.989H46.314L44.063 39.018Z" fill="#1A171B"/>
<path d="M59.741 43.988L59.16 42.94H55.188L54.604 43.988H53.861L56.646 39.017H57.693L60.469 43.988H59.741ZM58.846 42.357L57.32 39.6H57.057L55.506 42.357H58.846Z" fill="#1A171B"/>
<path d="M59.615 39.018H60.498L62.869 41.405L65.164 39.018H66.078L63.197 41.958V43.988H62.543V41.958L59.615 39.018Z" fill="#1A171B"/>
</svg>
