<svg width="265" height="190" viewBox="0 0 265 190" fill="none" xmlns="http://www.w3.org/2000/svg">
<path d="M107.327 136.052C107.327 137.198 107.35 137.821 107.372 138.104C107.395 138.32 107.452 138.411 107.667 138.433C108.041 138.479 108.2 138.5 108.529 138.512L108.506 138.841C108.143 138.841 107.384 138.807 106.601 138.807C106.057 138.807 105.434 138.841 104.901 138.841L104.867 138.524C105.105 138.512 105.32 138.479 105.672 138.444C105.91 138.423 106.035 138.354 106.046 138.138C106.08 137.752 106.091 137.242 106.091 136.041V133.614C106.091 132.865 106.091 132.31 106.08 132.004C104.629 132.004 104.493 132.107 104.3 132.549C104.119 132.945 104.005 133.354 103.88 133.807L103.574 133.728C103.688 133.15 103.778 132.05 103.824 131.551C104.164 131.631 104.901 131.664 106.25 131.664H107.18C108.823 131.664 109.368 131.652 109.798 131.551C109.776 131.733 109.662 132.776 109.696 133.637L109.379 133.74C109.3 133.059 109.186 132.618 109.096 132.401C108.982 132.095 108.789 131.982 107.338 132.005C107.338 132.3 107.327 132.901 107.327 133.513V136.052V136.052Z" fill="black"/>
<path d="M114.809 134.033C114.809 132.957 114.798 132.525 114.786 132.276C114.775 132.117 114.718 132.038 114.492 132.015L113.811 131.947L113.868 131.631C114.118 131.631 114.753 131.664 115.297 131.664C115.852 131.664 116.476 131.631 117.065 131.631C118.176 131.631 118.675 131.801 118.993 132.107C119.321 132.413 119.435 132.855 119.435 133.274C119.435 134.489 118.516 134.953 117.451 135.123V135.169C118.539 135.304 119.231 135.701 119.412 136.665C119.491 137.005 119.537 137.448 119.571 137.821C119.616 138.32 119.797 138.547 120.172 138.547C120.262 138.547 120.41 138.525 120.489 138.49L120.444 138.83C120.296 138.888 119.922 138.933 119.639 138.933C118.698 138.933 118.244 138.547 118.165 137.572C118.142 137.256 118.12 136.949 118.097 136.632C117.995 135.578 117.428 135.362 116.374 135.362H116.045V136.484C116.045 137.38 116.056 137.799 116.079 138.129C116.102 138.412 116.204 138.457 117.02 138.514L116.986 138.843C116.589 138.843 115.898 138.809 115.41 138.809C114.798 138.809 114.242 138.843 113.834 138.843L113.846 138.514C114.582 138.469 114.753 138.412 114.764 138.174C114.786 137.913 114.809 137.438 114.809 136.383V134.033V134.033ZM116.044 135.009H116.373C117.518 135.009 118.107 134.567 118.107 133.399C118.107 133.014 118.017 132.663 117.88 132.446C117.711 132.186 117.427 131.982 116.77 131.982C116.554 131.982 116.361 132.004 116.248 132.039C116.146 132.061 116.101 132.118 116.089 132.243C116.078 132.38 116.044 132.776 116.044 133.774V135.009V135.009Z" fill="black"/>
<path d="M131.063 138.841C130.791 138.829 130.201 138.807 129.6 138.807C129.022 138.807 128.569 138.829 128.024 138.841L128.013 138.512C128.693 138.455 128.795 138.41 128.739 138.172C128.637 137.776 128.342 136.8 128.126 136.098C127.922 136.086 127.458 136.086 126.993 136.086C126.539 136.086 126.097 136.086 125.916 136.098C125.61 137.061 125.451 137.549 125.372 137.855C125.258 138.342 125.372 138.456 126.301 138.512L126.29 138.841C125.927 138.841 125.576 138.807 125.065 138.807C124.725 138.807 124.181 138.841 123.739 138.841V138.512C124.363 138.467 124.578 138.387 124.827 137.764C125.201 136.846 126.448 133.309 126.755 132.368C126.868 132.051 126.925 131.88 126.948 131.688C127.197 131.676 127.786 131.608 128.002 131.517C128.557 133.399 129.725 137.174 130.145 138.161C130.247 138.378 130.371 138.456 130.632 138.479L131.063 138.512V138.841V138.841ZM126.063 135.689C126.244 135.7 126.664 135.7 127.072 135.7C127.48 135.7 127.877 135.7 128.013 135.689C127.741 134.691 127.378 133.489 127.095 132.525C126.824 133.342 126.495 134.295 126.063 135.689Z" fill="black"/>
<path d="M133.512 131.631C133.784 131.631 134.453 131.664 135.009 131.664C135.507 131.664 136.03 131.631 136.563 131.631L136.619 131.959L136.019 132.027C135.826 132.049 135.791 132.106 135.836 132.277C135.95 132.741 136.97 135.666 137.661 137.582C138.421 135.587 139.283 133.195 139.475 132.344C139.521 132.141 139.463 132.061 139.293 132.038C139.089 132.016 138.862 131.981 138.624 131.959L138.567 131.631C138.794 131.631 139.304 131.664 139.781 131.664C140.166 131.664 140.563 131.631 141.039 131.631L141.107 131.959C140.415 131.971 140.234 132.084 139.973 132.662C139.496 133.75 138.443 136.562 137.625 138.932C137.434 138.898 136.979 138.92 136.821 138.954C136.072 136.652 134.882 133.398 134.485 132.446C134.292 132.05 134.145 131.981 133.533 131.959L133.512 131.631Z" fill="black"/>
<path d="M144.405 131.631C144.745 131.631 145.539 131.664 146.117 131.664H148.044C148.792 131.664 149.416 131.631 149.665 131.585C149.62 131.902 149.608 132.957 149.632 133.535L149.325 133.557C149.28 133.251 149.188 132.876 149.053 132.559C148.861 132.128 148.679 132.027 147.591 132.027H146.843C146.695 132.027 146.661 132.072 146.65 132.209C146.628 132.549 146.604 133.093 146.604 133.717V134.918C146.729 134.93 147.082 134.93 147.251 134.93C148.237 134.93 148.407 134.714 148.509 133.954H148.804C148.736 134.725 148.725 135.735 148.782 136.448L148.475 136.437C148.384 135.597 148.26 135.302 147.24 135.302C147.036 135.302 146.729 135.302 146.604 135.325V136.356C146.604 137.047 146.617 137.775 146.638 138.17C146.65 138.397 146.718 138.453 147.67 138.453C148.713 138.453 149.031 138.385 149.337 138.068C149.608 137.784 149.836 137.195 149.96 136.741L150.244 136.787C150.231 137.058 150.006 138.566 149.949 138.861C149.562 138.827 148.838 138.804 147.534 138.804H146.128C145.55 138.804 144.711 138.838 144.314 138.838L144.327 138.521L145.007 138.453C145.234 138.441 145.302 138.34 145.324 138.045C145.357 137.604 145.37 137.036 145.37 136.322V133.986C145.37 133.158 145.357 132.591 145.347 132.275C145.336 132.082 145.245 132.013 144.973 131.991L144.407 131.945V131.631H144.405Z" fill="black"/>
<path d="M159.868 136.63C159.777 137.151 159.687 138.138 159.607 138.852C159.403 138.83 158.904 138.819 158.235 138.819C157.578 138.807 156.727 138.807 155.877 138.807C155.378 138.807 154.46 138.841 154.178 138.841V138.512L154.813 138.455C155.062 138.422 155.141 138.364 155.153 138.172C155.187 137.809 155.221 137.084 155.221 136.154V133.75C155.221 132.854 155.208 132.492 155.198 132.254C155.187 132.084 155.107 132.016 154.88 132.004L154.291 131.959L154.303 131.631C154.61 131.631 155.403 131.664 155.845 131.664C156.276 131.664 156.785 131.631 157.42 131.631L157.454 131.959L156.83 132.004C156.593 132.027 156.525 132.095 156.514 132.299C156.491 132.719 156.456 133.32 156.456 134.193V136.188C156.456 137.118 156.469 137.958 156.49 138.263C156.502 138.387 156.57 138.455 157.239 138.455C158.385 138.455 158.746 138.387 159.008 138.014C159.245 137.673 159.404 137.186 159.552 136.619L159.868 136.63Z" fill="black"/>
<path d="M111.793 90.268C108.029 90.268 104.136 90.007 100.181 89.489C99.3353 89.376 98.7283 88.619 98.8043 87.768C98.8663 87.081 100.537 70.783 119.073 58.279C128.882 51.662 140.536 48.304 151.988 48.786L149.622 51.884C138.917 51.403 130.101 54.676 120.852 60.912C106.811 70.385 103.125 82.353 102.234 86.536C106.464 87.013 110.605 87.184 114.569 87.036C126.629 86.594 138.549 83.209 149.039 77.247C159.532 71.286 167.208 64.744 173.757 54.609L177.759 54.369C170.935 64.929 161.545 73.798 150.611 80.011C139.68 86.225 127.256 89.755 114.685 90.215C113.73 90.249 112.766 90.268 111.793 90.268Z" fill="#00AEEF"/>
<path d="M127.297 94.929C122.461 82.81 120.575 65.433 123.797 52.788L125.271 47L126.87 52.754C130.697 66.526 142.126 79.143 155.25 85.475L151.959 87.355C140.818 81.667 130.737 71.475 125.733 59.235C124.175 69.566 126.566 84.718 130.44 94.428L127.297 94.929Z" fill="black"/>
<path d="M125.117 60.3679C124.87 61.2829 124.096 62.6449 123.534 63.4859C122.934 64.3859 123.923 65.2439 124.789 65.1179C126.172 64.9169 127.121 63.9589 128.424 63.4889C127.968 63.0329 127.513 62.578 127.057 62.122C126.628 63.901 125.102 65.828 124.046 67.317C123.46 68.143 124.426 69.1739 125.301 68.9489C126.201 68.7179 126.805 68.272 126.857 68.718C126.868 68.813 125.428 70.7759 125.603 70.5059C124.946 71.5199 124.28 72.4269 124.186 73.6419C124.14 74.2379 124.732 74.7589 125.297 74.7539C127.586 74.7319 129.648 72.8099 131.597 71.8259C131.09 71.3189 130.584 70.8119 130.077 70.3059C128.669 73.0959 126.214 75.29 125.235 78.258C125.016 78.923 125.607 79.6989 126.307 79.6639C128.7 79.5439 130.844 77.4609 132.939 76.4569C132.382 76.1369 131.825 75.817 131.267 75.498C131.406 77.207 128.926 79.0349 128.767 80.9169C128.702 81.6899 129.526 82.1129 130.173 81.9879C132.685 81.5059 135.419 79.38 138.019 79.525L136.909 78.4149C136.572 79.2779 136.004 79.9849 135.204 80.5329C134.153 81.5089 135.727 83.0769 136.774 82.1039C137.899 81.0579 138.99 79.9889 139.13 78.4149C139.186 77.7929 138.575 77.3349 138.019 77.3039C135.136 77.1409 132.386 79.3069 129.583 79.8459C130.051 80.2029 130.52 80.5599 130.989 80.9169C131.157 78.9289 133.656 77.568 133.489 75.498C133.42 74.624 132.609 74.159 131.819 74.538C130.244 75.293 128.086 77.3529 126.308 77.4419C126.665 77.9109 127.022 78.3799 127.379 78.8479C128.239 76.2419 130.759 73.878 131.997 71.428C132.505 70.421 131.485 69.3979 130.477 69.9069C129.039 70.6339 126.991 72.5149 125.298 72.5319L126.409 73.6419C126.611 71.0239 130.24 69.6709 129.762 66.8339C129.687 66.3889 129.137 65.9829 128.691 66.0169C127.282 66.1259 126.085 66.4539 124.711 66.8059C125.129 67.3499 125.547 67.894 125.965 68.438C127.17 66.74 128.706 64.763 129.201 62.713C129.386 61.948 128.669 61.0459 127.834 61.3469C126.609 61.7879 125.493 62.7869 124.199 62.9749C124.618 63.5189 125.035 64.063 125.454 64.607C126.22 63.46 126.902 62.2899 127.26 60.9579C127.632 59.5759 125.489 58.9859 125.117 60.3679Z" fill="black"/>
<path d="M110.891 112.179C110.891 109.76 110.743 108.235 110.631 107.64C110.557 107.303 110.37 107.118 109.849 107.118L108.323 107.08L108.361 106.15C109.7 106.077 111.598 105.889 112.827 105.517L112.938 105.629C113.05 106.597 113.161 108.531 113.161 109.127H113.236C114.129 107.341 115.468 105.443 117.738 105.443C119.227 105.443 119.972 106.558 119.972 107.453C119.972 108.755 119.041 109.202 118.52 109.202C118.036 109.202 117.738 109.015 117.627 108.68C117.441 107.861 117.181 107.378 116.25 107.378C115.059 107.378 114.017 109.239 113.534 111.026C113.384 111.656 113.31 112.29 113.31 113.032C113.31 117.425 113.31 118.952 113.384 119.882C113.422 120.701 113.682 120.85 116.511 120.96L116.361 121.965C115.245 121.965 113.534 121.855 112.082 121.855C110.593 121.855 109.478 121.965 108.212 121.965L108.323 120.96C110.296 120.887 110.631 120.701 110.705 120.068C110.817 119.324 110.891 117.611 110.891 115.38V112.179Z" fill="#00AEEF"/>
<path d="M132.52 121.965C131.516 121.965 130.176 121.855 128.65 121.855C127.087 121.855 126.008 121.965 124.891 121.965L124.966 120.96C127.199 120.887 127.495 120.626 127.533 119.992C127.571 119.249 127.683 117.648 127.683 115.415V111.322C127.683 109.164 127.607 108.01 127.571 107.453C127.533 107.006 127.124 106.931 125.04 107.006L125.114 106.076C126.603 106.001 128.836 105.815 130.212 105.443C130.176 106.373 130.101 108.644 130.101 111.136V115.414C130.101 117.834 130.138 119.21 130.212 119.991C130.212 120.737 130.66 120.886 132.594 120.959L132.52 121.965Z" fill="#00AEEF"/>
<path d="M148.676 109.685C148.676 108.16 147.857 106.485 145.439 106.485C143.058 106.485 141.978 107.713 141.978 109.24C141.978 109.651 142.052 110.057 142.126 110.318C142.201 110.58 142.015 110.876 141.828 110.989C141.568 111.175 141.307 111.286 140.861 111.286C140.191 111.286 139.558 110.876 139.558 109.761C139.558 107.862 142.125 105.445 145.958 105.445C148.824 105.445 150.089 106.709 150.572 107.418C150.87 107.9 151.094 108.757 151.094 109.463V119.027C151.094 120.516 151.576 120.777 152.061 120.777C152.656 120.777 153.213 120.107 153.586 118.58L154.48 118.917C153.997 121.521 152.619 122.376 151.205 122.376C149.346 122.376 148.75 121.15 148.639 119.585C146.964 121.409 144.991 122.376 143.242 122.376C140.451 122.376 138.814 120.369 138.814 117.837C138.814 116.46 139.334 115.12 140.898 114.487C143.502 113.372 147.373 112.105 148.675 111.1V109.685H148.676ZM141.643 117.463C141.643 119.286 142.686 120.701 144.434 120.701C146.406 120.701 147.708 119.583 148.453 117.872C148.641 117.425 148.677 116.829 148.677 116.42V112.252C147.598 112.885 145.253 113.814 143.69 114.599C142.537 115.23 141.644 115.789 141.644 117.425V117.463H141.643Z" fill="#00AEEF"/>
<path d="M75.2487 109.685C75.2487 108.16 74.4297 106.485 72.0117 106.485C69.6297 106.485 68.5507 107.713 68.5507 109.24C68.5507 109.651 68.6247 110.057 68.6997 110.318C68.7747 110.58 68.5877 110.876 68.4017 110.989C68.1417 111.175 67.8807 111.286 67.4347 111.286C66.7647 111.286 66.1317 110.876 66.1317 109.761C66.1317 107.862 68.6997 105.445 72.5327 105.445C75.3987 105.445 76.6637 106.709 77.1467 107.418C77.4447 107.9 77.6687 108.757 77.6687 109.463V119.027C77.6687 120.516 78.1517 120.777 78.6357 120.777C79.2307 120.777 79.7887 120.107 80.1617 118.58L81.0547 118.917C80.5717 121.521 79.1937 122.376 77.7797 122.376C75.9197 122.376 75.3247 121.15 75.2127 119.585C73.5377 121.409 71.5647 122.376 69.8157 122.376C67.0247 122.376 65.3877 120.369 65.3877 117.837C65.3877 116.46 65.9077 115.12 67.4717 114.487C70.0757 113.372 73.9467 112.105 75.2487 111.1V109.685ZM68.2157 117.463C68.2157 119.286 69.2577 120.701 71.0067 120.701C72.9787 120.701 74.2817 119.583 75.0257 117.872C75.2127 117.425 75.2487 116.829 75.2487 116.42V112.252C74.1697 112.885 71.8257 113.814 70.2617 114.599C69.1087 115.23 68.2157 115.789 68.2157 117.425V117.463Z" fill="#00AEEF"/>
<path d="M192.281 109.685C192.281 108.16 191.462 106.485 189.044 106.485C186.662 106.485 185.583 107.713 185.583 109.24C185.583 109.651 185.657 110.057 185.731 110.318C185.806 110.58 185.62 110.876 185.433 110.989C185.173 111.175 184.912 111.286 184.466 111.286C183.796 111.286 183.163 110.876 183.163 109.761C183.163 107.862 185.73 105.445 189.563 105.445C192.429 105.445 193.694 106.709 194.177 107.418C194.475 107.9 194.699 108.757 194.699 109.463V119.027C194.699 120.516 195.181 120.777 195.666 120.777C196.261 120.777 196.818 120.107 197.191 118.58L198.085 118.917C197.602 121.521 196.224 122.376 194.81 122.376C192.951 122.376 192.355 121.15 192.244 119.585C190.568 121.409 188.596 122.376 186.847 122.376C184.056 122.376 182.419 120.369 182.419 117.837C182.419 116.46 182.939 115.12 184.503 114.487C187.107 113.372 190.978 112.105 192.28 111.1V109.685H192.281ZM185.248 117.463C185.248 119.286 186.29 120.701 188.039 120.701C190.011 120.701 191.313 119.583 192.058 117.872C192.246 117.425 192.282 116.829 192.282 116.42V112.252C191.203 112.885 188.858 113.814 187.295 114.599C186.142 115.23 185.249 115.789 185.249 117.425V117.463H185.248Z" fill="#00AEEF"/>
<path d="M159.292 120.96C161.228 120.887 161.6 120.774 161.674 119.882C161.749 118.767 161.786 117.388 161.786 115.604V112.366C161.786 110.318 161.749 108.645 161.711 107.713C161.674 107.155 161.376 107.118 159.33 107.118L159.404 106.189C160.891 106.15 162.605 105.964 164.018 105.629C164.092 106.335 164.205 107.974 164.242 108.493C165.544 107.154 167.368 105.443 170.047 105.443C172.541 105.443 173.769 106.596 174.327 107.787C174.625 108.383 174.773 109.202 174.773 110.094V119.992C174.773 120.811 174.997 120.849 177.303 120.96L177.193 121.965C176.188 121.965 174.847 121.856 173.322 121.856C171.908 121.856 170.829 121.965 169.824 121.965L169.898 120.96C171.721 120.887 172.093 120.701 172.169 120.03C172.243 119.211 172.356 117.351 172.356 114.412C172.356 109.87 172.281 109.426 171.947 108.755C171.463 107.712 170.606 107.117 169.118 107.117C167.033 107.117 165.545 108.159 164.616 109.835C164.28 110.393 164.206 110.95 164.206 111.843V116.123C164.206 117.686 164.206 119.211 164.28 119.957C164.353 120.738 164.652 120.925 166.736 120.96L166.662 121.965C165.657 121.965 163.908 121.856 162.792 121.856C161.526 121.856 160.372 121.965 159.293 121.965V120.96H159.292Z" fill="#00AEEF"/>
<path d="M94.5168 121.723L90.7658 121.641L87.2568 121.723V120.996C88.9508 120.996 89.1108 120.553 89.1108 119.1V108.289C89.1108 106.958 88.6668 106.877 87.2568 106.877V106.149L90.4018 106.191L93.9928 106.149C98.0278 106.109 102.263 107.884 102.867 113.331C103.513 118.576 99.0768 121.804 94.5168 121.723ZM93.9128 107.078C93.0248 107.078 92.5398 107.078 91.3698 107.159V118.736C91.3698 120.552 92.2578 120.836 94.3158 120.836C97.1398 120.836 100.448 118.455 100.407 114.138C100.327 109.942 97.7448 107.078 93.9128 107.078Z" fill="#00AEEF"/>
</svg>
