<svg width="132" height="92" viewBox="0 0 132 92" fill="none" xmlns="http://www.w3.org/2000/svg">
<g clip-path="url(#clip0)">
<path d="M23.7046 86.5429C23.6295 85.3716 23.0814 84.3054 21.7899 84.3054C21.0841 84.3054 20.581 84.5682 20.168 85.0787C19.725 85.6344 19.4397 86.5879 19.4397 87.6917C19.4397 88.6152 19.6575 89.4562 20.0329 90.0193C20.4534 90.6801 21.0916 90.9879 21.8124 90.9879C22.8636 90.9879 23.5769 90.4774 24.0049 89.2685L24.3128 89.4637C23.9148 90.7777 22.9762 91.521 21.4595 91.521C20.3182 91.521 19.4397 91.1456 18.8841 90.3798C18.4186 89.7791 18.1558 88.8856 18.1558 87.8494C18.1558 86.5129 18.6213 85.5142 19.3046 84.876C19.8827 84.3054 20.6711 83.96 21.7073 83.96C22.6308 83.96 23.2841 84.2453 23.6295 84.5982L23.8472 84.005L24.1175 84.0951C24.0274 84.7258 23.9674 85.747 24.0124 86.5054L23.7046 86.5429Z" fill="black"/>
<path d="M32.0686 84.2903C31.4379 84.2903 30.9123 84.5907 30.5519 85.1688C30.2441 85.6719 30.0263 86.5504 30.0263 87.6692C30.0263 88.788 30.2816 89.7565 30.6195 90.2897C31.0099 90.9054 31.5431 91.1682 32.1738 91.1682C32.7594 91.1682 33.27 90.9354 33.6454 90.3272C33.9458 89.8016 34.1335 88.8705 34.1335 87.7743C34.1335 86.7156 33.9383 85.792 33.6079 85.1914C33.2625 84.5982 32.7519 84.2903 32.0762 84.2903H32.0686ZM32.1738 83.96C34.2837 83.96 35.44 85.6118 35.44 87.6241C35.44 90.2371 34.0734 91.5286 32.0762 91.5286C30.0789 91.5286 28.7349 90.2146 28.7349 87.8118C28.7349 85.7094 29.9137 83.9675 32.1663 83.9675H32.1738V83.96Z" fill="black"/>
<path d="M39.6676 84.1035C39.8703 84.1035 40.4335 84.1411 40.8239 84.1411C41.2144 84.1411 41.4621 84.1335 41.74 84.1035C41.8451 84.2837 42.0103 84.539 42.3707 85.0496C42.7011 85.5602 43.955 87.3847 45.6444 89.7875C45.6669 86.4537 45.5994 85.2824 45.5543 84.9745C45.5092 84.5841 45.3966 84.494 44.9686 84.4639L44.3755 84.4339L44.428 84.111C44.9086 84.111 45.4191 84.1486 45.8321 84.1486C46.2601 84.1486 46.7632 84.111 47.041 84.111L47.056 84.4339C46.8082 84.4564 46.6205 84.4789 46.4628 84.5165C46.2826 84.5615 46.2 84.6591 46.155 84.9219C46.1024 85.3424 46.0348 86.739 46.0348 88.481V91.3793C45.8546 91.4018 45.5393 91.4468 45.3741 91.4919C44.3604 89.9076 42.4908 87.167 41.1543 85.2073C41.1543 87.7977 41.1768 90.1253 41.2444 90.5458C41.2895 90.8311 41.4171 90.9363 41.6198 90.9663C41.8151 90.9888 42.1079 91.0339 42.3932 91.0564L42.3707 91.3718C41.9953 91.3718 41.4697 91.3417 40.854 91.3417C40.3209 91.3417 39.9079 91.3718 39.6226 91.3718L39.6376 91.0564C39.7953 91.0564 40.043 91.0189 40.2383 90.9888C40.5086 90.9438 40.5837 90.7861 40.6137 90.4782C40.6813 90.0352 40.7864 87.5499 40.7864 84.9144C40.7563 84.8018 40.7338 84.7342 40.6662 84.6516C40.5987 84.5615 40.4635 84.5015 40.2082 84.4789L39.6826 84.4339V84.1035H39.6676Z" fill="black"/>
<path d="M51.501 88.9536C51.4559 90.3803 52.0791 91.1536 53.243 91.1536C54.0163 91.1536 54.6696 90.7332 54.6696 89.7871C54.6696 89.2915 54.4744 88.9386 54.0539 88.6908C53.7085 88.4806 52.8225 88.0601 52.2969 87.7523C51.5235 87.3243 51.2232 86.7011 51.2232 85.9878C51.2232 84.7338 52.1392 83.9454 53.4457 83.9454C54.0914 83.9454 54.6771 84.1482 54.9249 84.4035L55.1201 83.9004L55.4054 83.968C55.2477 84.8615 55.2252 85.7625 55.2252 86.168L54.9174 86.2055C54.9174 84.9065 54.2416 84.2983 53.4157 84.2983C52.6648 84.2983 52.1918 84.8014 52.1918 85.5973C52.1918 86.1079 52.4095 86.4983 52.9802 86.8062C53.8136 87.2642 54.4068 87.5345 54.8198 87.7973C55.4129 88.1277 55.7208 88.6007 55.7208 89.3366C55.7208 90.8082 54.5194 91.514 53.0853 91.514C52.3795 91.514 51.5686 91.2813 51.103 91.071C51.1706 90.4328 51.1856 89.5994 51.1931 89.0137L51.501 88.9536Z" fill="black"/>
<path d="M63.5596 91.0186C64.5958 91.0186 65.3541 90.6732 65.4668 89.0138C65.5719 87.5346 65.5118 85.71 65.4668 84.9667C65.4367 84.5312 65.264 84.5012 64.9637 84.4786L64.393 84.4261L64.3555 84.0957C64.7309 84.0957 65.1964 84.1408 65.5794 84.1408C65.9773 84.1408 66.4203 84.1032 66.8333 84.0957L66.8934 84.4186L66.4579 84.4636C66.1275 84.5012 66.0599 84.5988 66.0449 84.8841C65.9773 86.5059 65.9773 88.4431 65.8647 89.3892C65.7521 90.1851 65.4743 90.6807 64.9862 91.0336C64.5657 91.3564 63.95 91.5216 63.1691 91.5216C62.2531 91.5216 61.4947 91.2814 61.0442 90.7783C60.6988 90.3803 60.5562 89.9073 60.5412 88.8936C60.5261 88.0752 60.5261 85.3571 60.5186 84.8315C60.5036 84.5913 60.4661 84.4937 60.2784 84.4786L59.6401 84.4111V84.0957C60.0681 84.0957 60.6463 84.1408 61.1118 84.1408C61.5023 84.1408 62.118 84.0957 62.561 84.0957L62.5835 84.4186L61.9528 84.4861C61.8026 84.4937 61.72 84.5762 61.6975 84.7715C61.6149 85.6124 61.6074 87.9551 61.6825 89.194C61.7275 89.9599 61.8777 90.2452 62.1405 90.5155C62.4333 90.8308 63.019 91.0186 63.5296 91.0186H63.5596Z" fill="black"/>
<path d="M76.2266 89.1939C76.1365 89.712 76.0314 90.6656 75.9638 91.3864C75.7611 91.3639 75.2505 91.3564 74.5823 91.3564C73.9215 91.3489 73.0655 91.3489 72.2246 91.3489C71.7215 91.3489 70.8355 91.3789 70.5352 91.3789L70.5502 91.0635L71.2034 90.996C71.4587 90.9734 71.5338 90.9059 71.5488 90.7182C71.5788 90.3502 71.6164 89.6144 71.6164 88.6608V86.2356C71.6164 85.3421 71.6014 84.9816 71.5939 84.7414C71.5863 84.5612 71.5038 84.5011 71.2785 84.4786L70.6703 84.4485L70.6928 84.1182C71.0007 84.1182 71.7515 84.1557 72.1645 84.1557C72.5625 84.1557 73.0805 84.1332 73.7038 84.1182L73.7488 84.4485L73.1106 84.4936C72.8628 84.5161 72.7877 84.5837 72.7802 84.7864C72.7577 85.2069 72.7352 85.8001 72.7352 86.6786V88.6833C72.7352 89.6294 72.7502 90.5079 72.7652 90.8008C72.7727 90.9284 72.8478 90.996 73.5836 90.996C74.7925 90.996 75.1604 90.9134 75.4007 90.538C75.6259 90.2076 75.7911 89.727 75.9113 89.1789L76.2266 89.1939Z" fill="black"/>
<path d="M83.1495 88.5409C83.1495 89.7198 83.172 90.3655 83.202 90.6433C83.217 90.8611 83.2696 90.9512 83.4874 90.9737C83.8628 91.0187 84.043 91.0413 84.3734 91.0563L84.3508 91.3716C83.9829 91.3716 83.2246 91.3416 82.4662 91.3416C81.9406 91.3416 81.3399 91.3716 80.8143 91.3716L80.7693 91.0563C81.0095 91.0413 81.2348 91.0187 81.6102 90.9737C81.8505 90.9512 81.9631 90.8836 81.9781 90.6658C82.0082 90.2754 82.0232 89.7498 82.0232 88.5334V86.1382C82.0232 85.3723 82.0232 84.7942 82.0082 84.4863C80.4539 84.4863 80.3338 84.5915 80.1385 85.0345C79.9658 85.4249 79.8682 85.8078 79.7406 86.2659L79.4478 86.1833C79.5604 85.6126 79.658 84.5389 79.6955 84.0283C80.0259 84.1034 80.7317 84.1409 82.1358 84.1409H83.0368C84.7488 84.1409 85.2519 84.1334 85.6573 84.0283C85.6348 84.2085 85.5222 85.2747 85.5522 86.0932L85.2443 86.2058C85.1768 85.545 85.0717 85.087 84.9891 84.8843C84.8839 84.5764 84.7037 84.4638 83.142 84.4863C83.142 84.7942 83.1344 85.4099 83.1344 86.0256V88.5409H83.1495Z" fill="black"/>
<path d="M90.7331 86.1609C90.7331 85.455 90.7331 85.1547 90.7181 84.8619C90.7106 84.5165 90.5379 84.4714 89.7495 84.4264L89.757 84.1035C90.0799 84.1185 90.7256 84.1411 91.2512 84.1411C91.7618 84.1411 92.4075 84.1035 92.783 84.1035V84.4264C92.0546 84.4489 91.9045 84.5315 91.8819 84.7943C91.8669 85.012 91.8519 85.3725 91.8519 86.0933V89.0967C91.8519 89.9001 91.8744 90.3056 91.8819 90.6585C91.9045 90.9663 92.0922 91.0264 92.798 91.0564V91.3718C92.3775 91.3643 91.7393 91.3417 91.2362 91.3417C90.7707 91.3417 90.1324 91.3643 89.757 91.3718L89.7645 91.0564C90.4929 91.0339 90.6656 90.9513 90.6881 90.666C90.7106 90.4182 90.7331 90.0277 90.7331 89.1117V86.1609Z" fill="black"/>
<path d="M96.7176 84.1035C96.9278 84.1035 97.4835 84.1411 97.8739 84.1411C98.2644 84.1411 98.5121 84.1335 98.79 84.1035C98.8951 84.2837 99.0603 84.539 99.4207 85.0496C99.751 85.5602 101.005 87.3847 102.694 89.7875C102.717 86.4537 102.649 85.2824 102.604 84.9745C102.559 84.5841 102.447 84.494 102.019 84.4639L101.425 84.4339L101.478 84.111C101.959 84.111 102.469 84.1486 102.882 84.1486C103.318 84.1486 103.813 84.111 104.091 84.111L104.106 84.4339C103.858 84.4564 103.671 84.4789 103.513 84.5165C103.333 84.5615 103.25 84.6591 103.205 84.9219C103.152 85.3424 103.077 86.739 103.077 88.481V91.3793C102.897 91.4018 102.589 91.4468 102.417 91.4919C101.403 89.9076 99.5333 87.167 98.1968 85.2073C98.1968 87.7977 98.2193 90.1253 98.2869 90.5458C98.3319 90.8311 98.4596 90.9363 98.6623 90.9663C98.8575 90.9888 99.1579 91.0339 99.4357 91.0564L99.4132 91.3718C99.0377 91.3718 98.5121 91.3417 97.8964 91.3417C97.3633 91.3417 96.9504 91.3718 96.665 91.3718L96.68 91.0564C96.8377 91.0564 97.0855 91.0189 97.2807 90.9888C97.551 90.9438 97.6261 90.7861 97.6562 90.4782C97.7237 90.0352 97.8213 87.5499 97.8213 84.9144C97.7913 84.8018 97.7688 84.7342 97.6937 84.6516C97.6261 84.5615 97.491 84.5015 97.2357 84.4789L96.7101 84.4339V84.1035H96.7176Z" fill="black"/>
<path d="M113.754 86.5432C113.687 85.1316 113.011 84.2981 111.779 84.2981C111.089 84.2981 110.503 84.5234 110.022 85.1767C109.579 85.8074 109.362 86.7159 109.362 87.7521C109.362 88.6982 109.579 89.5917 109.962 90.1698C110.428 90.8756 111.059 91.1535 111.832 91.1535C112.598 91.1535 113.026 90.8907 113.078 90.4927C113.123 90.1548 113.123 89.5316 113.123 89.0135C113.123 88.3753 113.056 88.2927 112.47 88.2476L111.885 88.2026L111.87 87.8872C112.245 87.8872 113.093 87.9173 113.581 87.9173C114.07 87.9173 114.655 87.9098 114.941 87.8872V88.1951C114.362 88.2777 114.272 88.3227 114.242 88.593C114.197 89.0586 114.22 89.4715 114.22 89.8094C114.22 90.3876 114.25 90.7105 114.302 90.9657C114.039 91.0333 113.484 91.206 113.176 91.2961C112.778 91.4087 112.215 91.5214 111.659 91.5214C110.278 91.5214 109.399 91.1535 108.784 90.3726C108.303 89.7569 108.055 88.8558 108.055 87.8197C108.055 86.3029 108.671 85.1166 109.752 84.4784C110.36 84.1029 110.984 83.9678 111.779 83.9678C112.823 83.9678 113.469 84.3207 113.724 84.5835L113.972 83.9978L114.235 84.0879C114.152 84.4859 114.032 85.6947 114.077 86.5507H113.754V86.5432Z" fill="black"/>
<path d="M46.1622 43.0393C42.4155 43.0393 38.5411 42.7765 34.6141 42.2659C33.7731 42.1533 33.1725 41.4024 33.2475 40.554C33.3076 39.8707 34.9745 23.6598 53.408 11.2181C63.1615 4.63316 74.7547 1.29938 86.1452 1.77992L83.795 4.85842C73.1479 4.37787 64.3779 7.63658 55.18 13.8386C41.2066 23.2618 37.5424 35.1629 36.6564 39.3301C40.8612 39.8031 44.9834 39.9758 48.9254 39.8257C60.924 39.3902 72.78 36.0188 83.2168 30.0871C93.6537 24.1553 101.29 17.6455 107.807 7.569L111.787 7.32873C104.999 17.8332 95.6585 26.6557 84.7786 32.8352C73.9063 39.0147 61.5472 42.5287 49.038 42.9867C48.0919 43.0243 47.1308 43.0393 46.1622 43.0393Z" fill="#00AEEF"/>
<path d="M61.585 47.6792C56.7721 35.6205 54.8949 18.3358 58.1011 5.75904L59.5652 0L61.157 5.7215C64.9639 19.4171 76.3318 31.9713 89.3891 38.271L86.1154 40.1406C75.0328 34.4792 65.0014 24.3427 60.0233 12.1713C58.4765 22.4505 60.8567 37.5201 64.7086 47.1761L61.585 47.6792Z" fill="black"/>
<path d="M59.4149 13.2974C59.1671 14.2059 58.4013 15.565 57.8381 16.3984C57.245 17.2919 58.2286 18.1479 59.0845 18.0203C60.4586 17.8175 61.4047 16.864 62.7037 16.3984C62.2531 15.9479 61.7951 15.4899 61.3446 15.0394C60.9166 16.8114 59.3999 18.7261 58.3487 20.2053C57.763 21.0312 58.7241 22.0524 59.5951 21.8271C60.4886 21.5943 61.0893 21.1513 61.1419 21.5943C61.1569 21.6919 59.7228 23.6442 59.8955 23.3739C59.2422 24.3875 58.5815 25.2885 58.4839 26.4974C58.4388 27.0906 59.0245 27.6087 59.5876 27.6012C61.8627 27.5786 63.9125 25.6715 65.8572 24.6878C65.3542 24.1848 64.8511 23.6817 64.348 23.1786C62.9439 25.9568 60.5037 28.1343 59.5351 31.0926C59.3173 31.7534 59.903 32.5268 60.6013 32.4892C62.9815 32.3691 65.1139 30.2967 67.2013 29.2981C66.6456 28.9827 66.09 28.6599 65.5344 28.3445C65.6695 30.0489 63.2067 31.866 63.049 33.7356C62.9815 34.5015 63.7999 34.922 64.4456 34.8018C66.946 34.3213 69.6641 32.2039 72.247 32.3541C71.8791 31.9861 71.5112 31.6182 71.1432 31.2503C70.8054 32.1063 70.2422 32.8121 69.4463 33.3602C68.4026 34.3288 69.9644 35.8906 71.0081 34.922C72.1269 33.8783 73.2081 32.8196 73.3507 31.2503C73.4033 30.6346 72.7951 30.1766 72.247 30.1465C69.3787 29.9889 66.6456 32.1363 63.8525 32.6769C64.318 33.0298 64.7835 33.3902 65.249 33.7431C65.4142 31.7684 67.8996 30.4093 67.7344 28.352C67.6668 27.481 66.8559 27.023 66.0675 27.3984C64.4982 28.1493 62.3583 30.1991 60.5862 30.2892C60.9391 30.7547 61.2996 31.2203 61.6525 31.6858C62.5084 29.0954 65.0163 26.7452 66.2477 24.3049C66.7508 23.3063 65.7371 22.2851 64.7385 22.7957C63.3043 23.5165 61.2695 25.3936 59.5876 25.4087C59.9555 25.7766 60.3234 26.1445 60.6914 26.5124C60.8941 23.907 64.4982 22.5629 64.0252 19.7397C63.9501 19.2967 63.4019 18.8913 62.9589 18.9288C61.5548 19.0339 60.3685 19.3643 59.0019 19.7172C59.4149 20.2578 59.8354 20.7984 60.2484 21.339C61.4422 19.6496 62.974 17.6824 63.4695 15.6476C63.6497 14.8892 62.9439 13.9882 62.1105 14.2885C60.8941 14.724 59.7828 15.7227 58.4914 15.9104C58.9043 16.451 59.3248 16.9916 59.7378 17.5322C60.5037 16.3909 61.1794 15.2271 61.5323 13.9056C61.9153 12.509 59.7828 11.9233 59.4149 13.2974Z" fill="black"/>
<path d="M45.2612 64.8363C45.2612 62.4335 45.1111 60.9093 45.0059 60.3237C44.9309 59.9858 44.7431 59.8056 44.2251 59.8056L42.7083 59.768L42.7459 58.8445C44.0749 58.7694 45.967 58.5817 47.1909 58.2138L47.3036 58.3264C47.4162 59.2875 47.5213 61.2097 47.5213 61.8028H47.5964C48.4824 60.0233 49.8189 58.1387 52.0715 58.1387C53.5507 58.1387 54.294 59.2499 54.294 60.1359C54.294 61.4349 53.3705 61.8779 52.8524 61.8779C52.3718 61.8779 52.079 61.6902 51.9664 61.3598C51.7786 60.5489 51.5234 60.0684 50.5998 60.0684C49.4135 60.0684 48.3773 61.923 47.8967 63.695C47.7466 64.3257 47.6715 64.9489 47.6715 65.6922C47.6715 70.0622 47.6715 71.5789 47.7466 72.5025C47.7841 73.3134 48.0469 73.4636 50.8551 73.5762L50.7049 74.5748C49.5937 74.5748 47.8892 74.4622 46.4476 74.4622C44.9684 74.4622 43.8571 74.5748 42.5957 74.5748L42.7083 73.5762C44.6681 73.5011 45.0059 73.3209 45.081 72.6902C45.1937 71.9469 45.2687 70.2424 45.2687 68.0274V64.8363H45.2612Z" fill="#00AEEF"/>
<path d="M66.7806 74.5673C65.7819 74.5673 64.4454 74.4547 62.9287 74.4547C61.3744 74.4547 60.3007 74.5673 59.1895 74.5673L59.2645 73.5687C61.4871 73.4936 61.7799 73.2383 61.8174 72.6076C61.855 71.8643 61.9676 70.2724 61.9676 68.0574V63.9878C61.9676 61.8404 61.8925 60.6916 61.855 60.1359C61.8174 59.6929 61.412 59.6179 59.3396 59.6929L59.4147 58.7694C60.8939 58.6943 63.1164 58.5066 64.4905 58.1387C64.4529 59.0622 64.3778 61.3223 64.3778 63.8001V68.0574C64.3778 70.4602 64.4154 71.8342 64.4905 72.6076C64.4905 73.3509 64.9335 73.4936 66.8557 73.5687L66.7806 74.5673Z" fill="#00AEEF"/>
<path d="M75.8512 70.092C75.8512 71.909 76.8874 73.3131 78.6294 73.3131C80.5891 73.3131 81.8881 72.2019 82.6239 70.4974C82.8116 70.0544 82.8492 69.4612 82.8492 69.0558V64.9111C81.7755 65.5418 79.4403 66.4653 77.886 67.2462C76.7372 67.8769 75.8512 68.4326 75.8512 70.0544V70.092ZM82.8492 62.3507C82.8492 60.8339 82.0308 59.167 79.628 59.167C77.2553 59.167 76.1816 60.3909 76.1816 61.9077C76.1816 62.3131 76.2567 62.7186 76.3318 62.9814C76.4069 63.2442 76.2191 63.537 76.0314 63.6496C75.7761 63.8373 75.5133 63.9425 75.0703 63.9425C74.4021 63.9425 73.7714 63.537 73.7714 62.4257C73.7714 60.5336 76.3243 58.1309 80.1386 58.1309C82.9918 58.1309 84.2458 59.3848 84.7263 60.0906C85.0267 60.5711 85.2444 61.4196 85.2444 62.1254V71.6387C85.2444 73.1179 85.7249 73.3807 86.2055 73.3807C86.7987 73.3807 87.3543 72.7124 87.7222 71.1957L88.6082 71.5336C88.1277 74.124 86.7536 74.9725 85.3495 74.9725C83.4949 74.9725 82.9092 73.7561 82.7966 72.1943C81.1297 74.0114 79.17 74.9725 77.428 74.9725C74.6499 74.9725 73.0205 72.9752 73.0205 70.4599C73.0205 69.0933 73.5386 67.7568 75.0929 67.1261C77.6833 66.0148 81.5352 64.7609 82.8267 63.7548V62.3507H82.8492Z" fill="#00AEEF"/>
<path d="M2.8157 70.0919C2.8157 71.909 3.85188 73.3131 5.59386 73.3131C7.55358 73.3131 8.85256 72.2018 9.5884 70.4974C9.77611 70.0544 9.81365 69.4612 9.81365 69.0558V64.9111C8.73993 65.5418 6.40478 66.4653 4.85051 67.2462C3.70171 67.8769 2.8157 68.4326 2.8157 70.0544V70.0919ZM9.80614 62.3507C9.80614 60.8339 8.98771 59.167 6.58498 59.167C4.2198 59.167 3.14607 60.3909 3.14607 61.9076C3.14607 62.3131 3.22116 62.7186 3.29625 62.9814C3.37133 63.2442 3.18362 63.537 2.9959 63.6496C2.74061 63.8373 2.47782 63.9425 2.03481 63.9425C1.36655 63.9425 0.743345 63.537 0.743345 62.4257C0.743345 60.5336 3.29625 58.1309 7.11058 58.1309C9.96382 58.1309 11.2177 59.3848 11.6983 60.0906C11.9911 60.5711 12.2164 61.4196 12.2164 62.1254V71.6387C12.2164 73.1179 12.6969 73.3807 13.1775 73.3807C13.7706 73.3807 14.3263 72.7124 14.6942 71.1957L15.5802 71.5336C15.0997 74.124 13.7256 74.9725 12.3215 74.9725C10.4744 74.9725 9.88123 73.7561 9.7686 72.1943C8.10171 74.0114 6.14198 74.9725 4.4 74.9725C1.62935 74.98 0 72.9827 0 70.4599C0 69.0933 0.518089 67.7568 2.07235 67.1261C4.6628 66.0148 8.51468 64.7609 9.80614 63.7548V62.3507Z" fill="#00AEEF"/>
<path d="M119.228 70.092C119.228 71.909 120.264 73.3131 122.006 73.3131C123.966 73.3131 125.265 72.2019 126.001 70.4974C126.189 70.0544 126.226 69.4612 126.226 69.0558V64.9111C125.152 65.5418 122.817 66.4653 121.263 67.2462C120.114 67.8769 119.228 68.4326 119.228 70.0544V70.092ZM126.226 62.3507C126.226 60.8339 125.408 59.167 123.005 59.167C120.632 59.167 119.559 60.3909 119.559 61.9077C119.559 62.3131 119.634 62.7186 119.709 62.9814C119.784 63.2442 119.596 63.537 119.408 63.6496C119.153 63.8373 118.89 63.9425 118.447 63.9425C117.779 63.9425 117.148 63.537 117.148 62.4257C117.148 60.5336 119.701 58.1309 123.516 58.1309C126.369 58.1309 127.623 59.3848 128.103 60.0906C128.404 60.5711 128.621 61.4196 128.621 62.1254V71.6387C128.621 73.1179 129.102 73.3807 129.582 73.3807C130.176 73.3807 130.731 72.7124 131.099 71.1957L131.985 71.5336C131.505 74.124 130.131 74.9725 128.726 74.9725C126.872 74.9725 126.286 73.7561 126.174 72.1943C124.507 74.0114 122.547 74.9725 120.805 74.9725C118.027 74.9725 116.397 72.9752 116.397 70.4599C116.397 69.0933 116.916 67.7568 118.47 67.1261C121.06 66.0148 124.912 64.7609 126.204 63.7548V62.3507H126.226Z" fill="#00AEEF"/>
<path d="M93.4062 73.5687C95.3284 73.4936 95.7039 73.381 95.7714 72.495C95.8465 71.3837 95.8841 70.0172 95.8841 68.2376V65.024C95.8841 62.9892 95.8465 61.3223 95.809 60.3912C95.7714 59.8356 95.4711 59.7981 93.4438 59.7981L93.5189 58.8745C94.9981 58.837 96.7025 58.6493 98.1066 58.3189C98.1817 59.0172 98.2943 60.654 98.3319 61.1721C99.6233 59.8431 101.44 58.1387 104.106 58.1387C106.584 58.1387 107.808 59.2875 108.363 60.4738C108.656 61.067 108.806 61.8779 108.806 62.7714V72.6076C108.806 73.4185 109.031 73.4561 111.322 73.5687L111.209 74.5673C110.21 74.5673 108.874 74.4547 107.357 74.4547C105.953 74.4547 104.879 74.5673 103.881 74.5673L103.956 73.5687C105.773 73.4936 106.141 73.3134 106.216 72.6451C106.291 71.8342 106.404 69.9796 106.404 67.0588C106.404 62.5387 106.328 62.0957 105.998 61.4349C105.518 60.3987 104.662 59.8056 103.182 59.8056C101.11 59.8056 99.6308 60.8417 98.6998 62.5086C98.3694 63.0643 98.2943 63.6199 98.2943 64.5059V68.7632C98.2943 70.3175 98.2943 71.8342 98.3694 72.5776C98.4445 73.351 98.7373 73.5387 100.81 73.5762L100.735 74.5748C99.7359 74.5748 97.994 74.4622 96.8827 74.4622C95.6213 74.4622 94.48 74.5748 93.4062 74.5748V73.5687Z" fill="#00AEEF"/>
<path d="M28.375 59.7604C27.489 59.7604 27.0084 59.7604 25.8446 59.843V71.3611C25.8446 73.1706 26.7306 73.4484 28.7729 73.4484C31.5811 73.4484 34.8698 71.0832 34.8323 66.7884C34.7572 62.6136 32.1893 59.7604 28.375 59.7604ZM28.9756 74.3269L25.2439 74.2443L21.7524 74.3269V73.6061C23.4344 73.6061 23.5995 73.1631 23.5995 71.7215V60.9692C23.5995 59.6477 23.1565 59.5652 21.7524 59.5652V58.8443L24.8835 58.8819L28.4576 58.8443C32.4746 58.8068 36.6869 60.5713 37.2876 65.985C37.9258 71.1959 33.5108 74.4095 28.9756 74.3269Z" fill="#00AEEF"/>
</g>
<defs>
<clipPath id="clip0">
<rect width="132" height="91.5215" fill="white"/>
</clipPath>
</defs>
</svg>
