<svg width="136" height="94" viewBox="0 0 136 94" fill="none" xmlns="http://www.w3.org/2000/svg">
<path d="M42.8855 90.9879C42.8855 92.1589 42.909 92.7954 42.9315 93.0845C42.955 93.3052 43.0133 93.3982 43.2332 93.4207C43.6156 93.4677 43.7782 93.4892 44.1146 93.5014L44.0911 93.8376C43.7199 93.8376 42.9438 93.8028 42.1431 93.8028C41.5869 93.8028 40.9498 93.8376 40.4048 93.8376L40.37 93.5137C40.6134 93.5014 40.8332 93.4677 41.1932 93.4319C41.4365 93.4105 41.5644 93.34 41.5756 93.1193C41.6104 92.7249 41.6216 92.2038 41.6216 90.9767V88.4969C41.6216 87.7317 41.6216 87.1646 41.6104 86.8519C40.1266 86.8519 39.9876 86.9572 39.7902 87.4088C39.6051 87.8134 39.4886 88.2313 39.3608 88.6941L39.0479 88.6134C39.1644 88.0229 39.2565 86.8989 39.3035 86.3891C39.6512 86.4708 40.4048 86.5046 41.7842 86.5046H42.7352C44.4152 86.5046 44.9725 86.4923 45.4122 86.3891C45.3897 86.5751 45.2732 87.6407 45.3079 88.5204L44.9838 88.6257C44.903 87.9299 44.7864 87.4793 44.6944 87.2576C44.5778 86.9449 44.3805 86.8295 42.8968 86.853C42.8968 87.1544 42.8855 87.7684 42.8855 88.3937V90.9879Z" fill="black"/>
<path d="M50.5361 88.925C50.5361 87.8256 50.5249 87.3842 50.5126 87.1298C50.5014 86.9673 50.4431 86.8866 50.212 86.8631L49.5156 86.7936L49.5739 86.4708C49.8295 86.4708 50.4789 86.5045 51.0351 86.5045C51.6027 86.5045 52.2407 86.4708 52.843 86.4708C53.9791 86.4708 54.4893 86.6445 54.8145 86.9571C55.1499 87.2698 55.2665 87.7214 55.2665 88.1495C55.2665 89.3909 54.3268 89.865 53.2377 90.0387V90.0857C54.3503 90.2236 55.0579 90.6292 55.243 91.6142C55.3237 91.9616 55.3708 92.4142 55.4055 92.7953C55.4516 93.3052 55.6366 93.5371 56.0201 93.5371C56.1121 93.5371 56.2635 93.5146 56.3443 93.4789L56.2982 93.8263C56.1469 93.8855 55.7645 93.9315 55.4751 93.9315C54.5129 93.9315 54.0486 93.5371 53.9678 92.5409C53.9443 92.218 53.9218 91.9044 53.8983 91.5805C53.794 90.5036 53.2142 90.2829 52.1364 90.2829H51.8V91.4293C51.8 92.3447 51.8113 92.7729 51.8348 93.11C51.8583 93.3992 51.9626 93.4452 52.797 93.5034L52.7622 93.8396C52.3563 93.8396 51.6497 93.8048 51.1507 93.8048C50.5249 93.8048 49.9563 93.8396 49.5391 93.8396L49.5514 93.5034C50.304 93.4574 50.4789 93.3992 50.4901 93.156C50.5126 92.8893 50.5361 92.404 50.5361 91.3261V88.925ZM51.799 89.9222H52.1354C53.3062 89.9222 53.9085 89.4706 53.9085 88.2772C53.9085 87.8838 53.8165 87.5252 53.6764 87.3035C53.5036 87.0378 53.2132 86.8294 52.5414 86.8294C52.3205 86.8294 52.1231 86.8519 52.0076 86.8876C51.9033 86.9101 51.8573 86.9684 51.845 87.0961C51.8338 87.236 51.799 87.6407 51.799 88.6604V89.9222Z" fill="black"/>
<path d="M67.1572 93.8375C66.879 93.8253 66.2757 93.8028 65.6612 93.8028C65.0701 93.8028 64.6069 93.8253 64.0496 93.8375L64.0384 93.5014C64.7337 93.4431 64.838 93.3971 64.7808 93.154C64.6765 92.7494 64.3748 91.7522 64.1539 91.0349C63.9453 91.0226 63.4709 91.0226 62.9954 91.0226C62.5311 91.0226 62.0792 91.0226 61.8941 91.0349C61.5812 92.0188 61.4186 92.5174 61.3378 92.8301C61.2212 93.3277 61.3378 93.4442 62.2878 93.5014L62.2765 93.8375C61.9053 93.8375 61.5464 93.8028 61.0239 93.8028C60.6762 93.8028 60.1199 93.8375 59.668 93.8375V93.5014C60.306 93.4554 60.5259 93.3737 60.7805 92.7371C61.1629 91.7992 62.4381 88.1853 62.752 87.2238C62.8675 86.8999 62.9258 86.7252 62.9494 86.529C63.204 86.5168 63.8063 86.4473 64.0271 86.3543C64.5946 88.2772 65.789 92.1343 66.2185 93.1427C66.3228 93.3645 66.4496 93.4441 66.7165 93.4676L67.1572 93.5014V93.8375ZM62.0444 90.617C62.2295 90.6282 62.6589 90.6282 63.0762 90.6282C63.4934 90.6282 63.8993 90.6282 64.0384 90.617C63.7602 89.5973 63.3891 88.3692 63.0997 87.3842C62.8226 88.219 62.4861 89.1927 62.0444 90.617Z" fill="black"/>
<path d="M69.6602 86.4708C69.9383 86.4708 70.6224 86.5045 71.1909 86.5045C71.7002 86.5045 72.235 86.4708 72.78 86.4708L72.8372 86.8059L72.2237 86.8754C72.0263 86.8979 71.9906 86.9561 72.0366 87.1308C72.1531 87.6049 73.1962 90.5935 73.9027 92.5511C74.6799 90.5128 75.5613 88.0688 75.7577 87.1993C75.8047 86.9919 75.7454 86.9101 75.5715 86.8866C75.3629 86.8641 75.1308 86.8284 74.8875 86.8059L74.8292 86.4708C75.0613 86.4708 75.5828 86.5045 76.0706 86.5045C76.4642 86.5045 76.8702 86.4708 77.3569 86.4708L77.4265 86.8059C76.7189 86.8182 76.5338 86.9336 76.2669 87.5242C75.7791 88.6358 74.7024 91.509 73.8659 93.9305C73.6706 93.8957 73.2054 93.9182 73.0438 93.953C72.2779 91.6009 71.0611 88.2762 70.6551 87.3035C70.4577 86.8989 70.3074 86.8284 69.6816 86.8059L69.6602 86.4708Z" fill="black"/>
<path d="M80.8001 86.4708C81.1477 86.4708 81.9597 86.5045 82.5507 86.5045H84.5212C85.286 86.5045 85.9241 86.4708 86.1787 86.4238C86.1327 86.7477 86.1204 87.8256 86.145 88.4162L85.8311 88.4386C85.785 88.126 85.691 87.7428 85.5529 87.4189C85.3566 86.9786 85.1705 86.8753 84.0579 86.8753H83.293C83.1416 86.8753 83.107 86.9214 83.0957 87.0613C83.0732 87.4087 83.0487 87.9645 83.0487 88.602V89.8292C83.1765 89.8415 83.5375 89.8414 83.7103 89.8414C84.7185 89.8414 84.8922 89.6207 84.9965 88.8442H85.2982C85.2287 89.6319 85.2175 90.664 85.2758 91.3925L84.9619 91.3812C84.8688 90.523 84.742 90.2216 83.699 90.2216C83.4904 90.2216 83.1765 90.2216 83.0487 90.2451V91.2985C83.0487 92.0045 83.062 92.7483 83.0834 93.1519C83.0957 93.3839 83.1653 93.4411 84.1387 93.4411C85.2053 93.4411 85.5304 93.3715 85.8433 93.0476C86.1204 92.7574 86.3536 92.1557 86.4804 91.6919L86.7708 91.7389C86.7575 92.0157 86.5274 93.5564 86.4691 93.8578C86.0734 93.8231 85.3331 93.7997 83.9997 93.7997H82.5619C81.9709 93.7997 81.113 93.8344 80.707 93.8344L80.7203 93.5106L81.4157 93.4411C81.6478 93.4288 81.7173 93.3256 81.7398 93.0242C81.7736 92.5736 81.7869 91.9933 81.7869 91.2637V88.8769C81.7869 88.0309 81.7736 87.4515 81.7633 87.1287C81.7521 86.9315 81.659 86.8611 81.3809 86.8386L80.8021 86.7916V86.4708H80.8001Z" fill="black"/>
<path d="M96.6113 91.5784C96.5183 92.1108 96.4262 93.1192 96.3444 93.8487C96.1358 93.8263 95.6256 93.815 94.9415 93.815C94.2697 93.8028 93.3995 93.8028 92.5303 93.8028C92.02 93.8028 91.0813 93.8375 90.793 93.8375V93.5014L91.4423 93.4431C91.6969 93.4094 91.7777 93.3501 91.79 93.154C91.8247 92.7831 91.8595 92.0423 91.8595 91.0921V88.6358C91.8595 87.7204 91.8462 87.3505 91.836 87.1073C91.8247 86.9336 91.743 86.8641 91.5109 86.8519L90.9085 86.8059L90.9208 86.4708C91.2347 86.4708 92.0456 86.5045 92.4976 86.5045C92.9383 86.5045 93.4588 86.4708 94.1081 86.4708L94.1429 86.8059L93.5048 86.8519C93.2624 86.8754 93.193 86.9449 93.1818 87.1533C93.1582 87.5824 93.1224 88.1965 93.1224 89.0885V91.1268C93.1224 92.0771 93.1357 92.9353 93.1572 93.2469C93.1695 93.3736 93.2389 93.4431 93.923 93.4431C95.0949 93.4431 95.464 93.3736 95.7319 92.9925C95.9743 92.6441 96.1368 92.1465 96.2882 91.5672L96.6113 91.5784Z" fill="black"/>
<path d="M47.4526 44.2086C43.6037 44.2086 39.6229 43.9419 35.5787 43.4127C34.7136 43.2972 34.0929 42.5238 34.1706 41.6543C34.234 40.9523 35.9427 24.3 54.8968 11.5242C64.9271 4.76335 76.844 1.33235 88.5543 1.82483L86.1349 4.99018C75.1884 4.49872 66.1736 7.84287 56.716 14.2144C42.3582 23.8934 38.5891 36.1215 37.678 40.3955C42.0034 40.8829 46.2378 41.0576 50.2912 40.9064C62.6233 40.4547 74.8121 36.9962 85.5388 30.9045C96.2684 24.814 104.118 18.1297 110.815 7.77442L114.907 7.5292C107.929 18.3188 98.3269 27.3806 87.1462 33.7286C75.9687 40.0777 63.2644 43.6845 50.4098 44.1545C49.4333 44.1892 48.4476 44.2086 47.4526 44.2086Z" fill="#00AEEF"/>
<path d="M63.3057 48.9709C58.3606 36.5885 56.432 18.8337 59.7267 5.91383L61.234 0L62.869 5.87909C66.7823 19.9505 78.4691 32.8418 91.8892 39.3114L88.524 41.2323C77.1317 35.4206 66.8233 25.0071 61.7064 12.501C60.1132 23.0566 62.5582 38.538 66.5196 48.459L63.3057 48.9709Z" fill="black"/>
<path d="M61.077 13.6585C60.8245 14.5934 60.033 15.985 59.4583 16.8443C58.8448 17.7639 59.8561 18.6405 60.7416 18.5118C62.1558 18.3064 63.1262 17.3276 64.4586 16.8474C63.9923 16.3814 63.5271 15.9166 63.0608 15.4507C62.6221 17.2684 61.0617 19.2373 59.9819 20.7587C59.3827 21.6026 60.3704 22.6559 61.2652 22.426C62.1855 22.19 62.8031 21.7344 62.8563 22.1901C62.8675 22.2872 61.395 24.2928 61.574 24.0169C60.9022 25.0529 60.2211 25.9797 60.125 27.2211C60.078 27.83 60.6833 28.3624 61.2611 28.3572C63.6017 28.3348 65.7102 26.371 67.7032 25.3656C67.1848 24.8476 66.6673 24.3295 66.1489 23.8125C64.7091 26.6632 62.1988 28.905 61.1977 31.9375C60.9737 32.617 61.5781 33.4097 62.2939 33.374C64.7408 33.2514 66.9332 31.1231 69.0755 30.0973C68.5059 29.7703 67.9363 29.4435 67.3657 29.1175C67.5079 30.8637 64.9719 32.7313 64.8094 34.6542C64.7429 35.444 65.5855 35.8762 66.2471 35.7485C68.8157 35.256 71.6114 33.0839 74.27 33.2321L73.135 32.0978C72.7904 32.9796 72.2096 33.702 71.3915 34.2619C70.3168 35.2591 71.9263 36.8612 72.997 35.867C74.1473 34.7983 75.2629 33.706 75.4061 32.0978C75.4634 31.4623 74.8386 30.9944 74.27 30.9627C71.322 30.7961 68.51 33.0092 65.6438 33.5599C66.1223 33.9247 66.6019 34.2895 67.0815 34.6542C67.2533 32.623 69.8086 31.2325 69.6379 29.1175C69.5673 28.2245 68.738 27.7494 67.9302 28.1367C66.3197 28.9081 64.113 31.0127 62.2949 31.1037C62.6599 31.5829 63.025 32.0621 63.39 32.5402C64.2694 29.8776 66.8463 27.4623 68.1122 24.959C68.6317 23.9302 67.5887 22.8848 66.5579 23.4049C65.0875 24.1477 62.9933 26.0696 61.2621 26.0869L62.3982 27.2211C62.6047 24.5462 66.3156 23.1637 65.8268 20.2651C65.7501 19.8104 65.1877 19.3956 64.7316 19.4303C63.2909 19.5417 62.0669 19.8768 60.6619 20.2365C61.0893 20.7923 61.5167 21.3482 61.9442 21.904C63.1763 20.1691 64.747 18.1492 65.2531 16.0546C65.4423 15.273 64.7091 14.3512 63.8553 14.6588C62.6027 15.1094 61.4615 16.1301 60.1383 16.3222C60.5668 16.878 60.9932 17.4339 61.4216 17.9898C62.2049 16.8178 62.9023 15.6223 63.2684 14.2613C63.6488 12.8493 61.4574 12.2465 61.077 13.6585Z" fill="black"/>
<path d="M46.5295 66.5959C46.5295 64.1243 46.3781 62.5662 46.2636 61.9583C46.1879 61.6139 45.9967 61.4249 45.464 61.4249L43.9035 61.3861L43.9424 60.4359C45.3116 60.3613 47.2524 60.1692 48.5091 59.7891L48.6226 59.9035C48.7372 60.8926 48.8507 62.8686 48.8507 63.4776H48.9274C49.8405 61.6528 51.2097 59.7135 53.5309 59.7135C55.0535 59.7135 55.8153 60.8527 55.8153 61.7672C55.8153 63.0975 54.8633 63.5542 54.3305 63.5542C53.8356 63.5542 53.5309 63.3632 53.4174 63.0209C53.2272 62.1841 52.9613 61.6906 52.0093 61.6906C50.7915 61.6906 49.726 63.592 49.2321 65.4179C49.0787 66.0616 49.003 66.7093 49.003 67.4675C49.003 71.956 49.003 73.5162 49.0787 74.4664C49.1176 75.3032 49.3834 75.4554 52.2762 75.5678L52.1229 76.5947C50.9817 76.5947 49.2321 76.4823 47.7473 76.4823C46.2247 76.4823 45.0846 76.5947 43.79 76.5947L43.9035 75.5678C45.921 75.4932 46.2636 75.3032 46.3393 74.6564C46.4538 73.8963 46.5295 72.146 46.5295 69.8665V66.5959Z" fill="#00AEEF"/>
<path d="M68.6458 76.5947C67.6192 76.5947 66.2489 76.4823 64.6885 76.4823C63.0903 76.4823 61.9869 76.5947 60.8447 76.5947L60.9214 75.5678C63.2048 75.4932 63.5075 75.2266 63.5463 74.5788C63.5852 73.8196 63.6997 72.1838 63.6997 69.9023V65.7203C63.6997 63.5154 63.622 62.3363 63.5852 61.7672C63.5463 61.3105 63.1281 61.2338 60.9971 61.3105L61.0728 60.3603C62.5953 60.2836 64.8787 60.0936 66.2857 59.7135C66.2489 60.6637 66.1722 62.9841 66.1722 65.5303V69.9013C66.1722 72.3739 66.2101 73.7798 66.2857 74.5778C66.2857 75.34 66.7439 75.4922 68.7215 75.5668L68.6458 76.5947Z" fill="#00AEEF"/>
<path d="M85.1675 64.0476C85.1675 62.4895 84.33 60.7781 81.8574 60.7781C79.4227 60.7781 78.3184 62.0328 78.3184 63.593C78.3184 64.0129 78.394 64.4277 78.4697 64.6944C78.5464 64.9621 78.3562 65.2645 78.165 65.38C77.8991 65.57 77.6322 65.6834 77.1762 65.6834C76.4911 65.6834 75.8438 65.2645 75.8438 64.1253C75.8438 62.185 78.4687 59.7155 82.3881 59.7155C85.3188 59.7155 86.6123 61.0069 87.1062 61.7313C87.4109 62.2238 87.64 63.0995 87.64 63.8208V73.5927C87.64 75.1141 88.1329 75.3808 88.6288 75.3808C89.2372 75.3808 89.8068 74.6962 90.1882 73.136L91.1024 73.4803C90.6085 76.1409 89.1993 77.0145 87.7534 77.0145C85.8525 77.0145 85.2431 75.7619 85.1296 74.1628C83.4168 76.0265 81.3993 77.0145 79.6109 77.0145C76.7569 77.0145 75.083 74.9639 75.083 72.3768C75.083 70.9699 75.6147 69.6008 77.214 68.954C79.8768 67.8148 83.8351 66.5202 85.1664 65.4934V64.0476H85.1675ZM77.9758 71.9947C77.9758 73.8573 79.0423 75.3031 80.8298 75.3031C82.8462 75.3031 84.1776 74.1608 84.9394 72.4126C85.1317 71.9559 85.1684 71.3469 85.1684 70.929V66.6704C84.065 67.3172 81.6671 68.2664 80.0689 69.0685C78.8899 69.7132 77.9768 70.2843 77.9768 71.9559V71.9947H77.9758Z" fill="#00AEEF"/>
<path d="M10.0834 64.0476C10.0834 62.4895 9.24595 60.7781 6.77341 60.7781C4.33768 60.7781 3.23435 62.0328 3.23435 63.593C3.23435 64.0129 3.31001 64.4277 3.38671 64.6944C3.4634 64.9621 3.27218 65.2645 3.08198 65.38C2.81612 65.57 2.54923 65.6834 2.09317 65.6834C1.40806 65.6834 0.760785 65.2645 0.760785 64.1253C0.760785 62.185 3.38671 59.7155 7.30616 59.7155C10.2368 59.7155 11.5303 61.0069 12.0242 61.7313C12.329 62.2238 12.558 63.0995 12.558 63.8208V73.5927C12.558 75.1141 13.0519 75.3808 13.5468 75.3808C14.1552 75.3808 14.7258 74.6962 15.1072 73.136L16.0204 73.4803C15.5265 76.1409 14.1174 77.0145 12.6715 77.0145C10.7696 77.0145 10.1611 75.7619 10.0466 74.1628C8.33383 76.0265 6.31633 77.0145 4.52788 77.0145C1.67392 77.0145 0 74.9639 0 72.3768C0 70.9699 0.531729 69.6008 2.13101 68.954C4.79374 67.8148 8.75206 66.5202 10.0834 65.4934V64.0476ZM2.89179 71.9947C2.89179 73.8573 3.95729 75.3031 5.74574 75.3031C7.76222 75.3031 9.09461 74.1608 9.8554 72.4126C10.0466 71.9559 10.0834 71.3469 10.0834 70.929V66.6704C8.98009 67.3172 6.58322 68.2664 4.98394 69.0685C3.80493 69.7132 2.89179 70.2843 2.89179 71.9559V71.9947Z" fill="#00AEEF"/>
<path d="M129.755 64.0476C129.755 62.4895 128.918 60.7781 126.445 60.7781C124.01 60.7781 122.906 62.0328 122.906 63.593C122.906 64.0129 122.982 64.4277 123.058 64.6944C123.134 64.9621 122.944 65.2645 122.753 65.38C122.487 65.57 122.22 65.6834 121.764 65.6834C121.079 65.6834 120.432 65.2645 120.432 64.1253C120.432 62.185 123.057 59.7155 126.976 59.7155C129.907 59.7155 131.2 61.0069 131.694 61.7313C131.999 62.2238 132.228 63.0995 132.228 63.8208V73.5927C132.228 75.1141 132.721 75.3808 133.217 75.3808C133.825 75.3808 134.395 74.6962 134.776 73.136L135.69 73.4803C135.196 76.1409 133.787 77.0145 132.341 77.0145C130.44 77.0145 129.831 75.7619 129.718 74.1628C128.004 76.0265 125.987 77.0145 124.199 77.0145C121.345 77.0145 119.671 74.9639 119.671 72.3768C119.671 70.9699 120.203 69.6008 121.802 68.954C124.465 67.8148 128.423 66.5202 129.754 65.4934V64.0476H129.755ZM122.564 71.9947C122.564 73.8573 123.629 75.3031 125.418 75.3031C127.434 75.3031 128.766 74.1608 129.527 72.4126C129.72 71.9559 129.756 71.3469 129.756 70.929V66.6704C128.653 67.3172 126.255 68.2664 124.657 69.0685C123.478 69.7132 122.565 70.2843 122.565 71.9559V71.9947H122.564Z" fill="#00AEEF"/>
<path d="M96.0225 75.5678C98.0021 75.4932 98.3825 75.3778 98.4582 74.4664C98.5349 73.3272 98.5727 71.9182 98.5727 70.0954V66.787C98.5727 64.6945 98.5349 62.9851 98.496 62.0328C98.4582 61.4627 98.1535 61.4249 96.0613 61.4249L96.137 60.4757C97.6575 60.4359 99.4102 60.2458 100.855 59.9035C100.931 60.6249 101.046 62.2995 101.084 62.8298C102.415 61.4617 104.28 59.7135 107.02 59.7135C109.57 59.7135 110.826 60.8916 111.396 62.1085C111.701 62.7174 111.852 63.5542 111.852 64.4656V74.5788C111.852 75.4156 112.081 75.4544 114.439 75.5678L114.327 76.5947C113.299 76.5947 111.928 76.4833 110.369 76.4833C108.923 76.4833 107.819 76.5947 106.792 76.5947L106.867 75.5678C108.732 75.4932 109.112 75.3032 109.19 74.6176C109.265 73.7808 109.381 71.8804 109.381 68.8775C109.381 64.2367 109.304 63.7831 108.963 63.0975C108.468 62.0318 107.591 61.4239 106.07 61.4239C103.938 61.4239 102.416 62.4885 101.467 64.201C101.123 64.7711 101.047 65.3402 101.047 66.2526V70.6257C101.047 72.2227 101.047 73.7808 101.123 74.543C101.198 75.341 101.503 75.5321 103.634 75.5678L103.558 76.5947C102.531 76.5947 100.743 76.4833 99.6014 76.4833C98.3069 76.4833 97.1268 76.5947 96.0235 76.5947V75.5678H96.0225Z" fill="#00AEEF"/>
<path d="M29.7861 76.3474L25.9505 76.2636L22.3623 76.3474V75.6046C24.0945 75.6046 24.2581 75.1519 24.2581 73.6674V62.6213C24.2581 61.2614 23.8041 61.1786 22.3623 61.1786V60.4348L25.5782 60.4777L29.2502 60.4348C33.3763 60.3939 37.7068 62.2075 38.3244 67.773C38.985 73.132 34.4489 76.4301 29.7861 76.3474ZM29.1684 61.384C28.2604 61.384 27.7645 61.384 26.5681 61.4668V73.2955C26.5681 75.1509 27.4761 75.4411 29.5805 75.4411C32.4682 75.4411 35.8508 73.0083 35.8089 68.5975C35.7271 64.3103 33.0869 61.384 29.1684 61.384Z" fill="#00AEEF"/>
</svg>
