<svg width="80" height="80" viewBox="0 0 80 80" fill="none" xmlns="http://www.w3.org/2000/svg">
<g filter="url(#filter0_b)">
<circle cx="40" cy="40" r="40" fill="white"/>
</g>
<path d="M31.374 60.5H49.626C53.4641 58.7523 56.7186 55.9375 59.0012 52.3913C61.2839 48.8452 62.4984 44.7173 62.5 40.5H18.5C18.5016 44.7173 19.7161 48.8452 21.9988 52.3913C24.2814 55.9375 27.5359 58.7523 31.374 60.5V60.5Z" stroke="#10304C" stroke-miterlimit="10" stroke-linecap="square"/>
<path d="M54.314 30.779L62.5 18.5" stroke="#10304C" stroke-miterlimit="10"/>
<path d="M46.9299 30.5L50.4999 20.5" stroke="#10304C" stroke-miterlimit="10"/>
<path d="M58.1591 34.4997C57.8169 33.5252 57.2283 32.6559 56.4505 31.9765C55.6726 31.297 54.7321 30.8306 53.7204 30.6225C52.7088 30.4145 51.6605 30.472 50.6777 30.7894C49.6948 31.1068 48.8109 31.6733 48.1121 32.4337C47.82 31.6149 47.3514 30.8703 46.7393 30.2529C46.1272 29.6355 45.3867 29.1604 44.5704 28.8612C43.7541 28.5621 42.882 28.4464 42.0159 28.5221C41.1498 28.5979 40.311 28.8634 39.5591 29.2997C38.9603 28.345 38.1035 27.5793 37.0877 27.0914C36.0719 26.6034 34.9387 26.413 33.8192 26.5423C32.6997 26.6717 31.6397 27.1154 30.7619 27.8221C29.8841 28.5288 29.2244 29.4696 28.8591 30.5357C28.7361 30.5287 28.6221 30.4997 28.5001 30.4997C27.2589 30.4993 26.0482 30.8837 25.0347 31.6001C24.0212 32.3165 23.2548 33.3296 22.8411 34.4997" stroke="#009FDA" stroke-miterlimit="10" stroke-linecap="square"/>
<path d="M24.5 26.5C25.0523 26.5 25.5 26.0523 25.5 25.5C25.5 24.9477 25.0523 24.5 24.5 24.5C23.9477 24.5 23.5 24.9477 23.5 25.5C23.5 26.0523 23.9477 26.5 24.5 26.5Z" fill="#009FDA"/>
<path d="M39.5 23.5C40.0523 23.5 40.5 23.0523 40.5 22.5C40.5 21.9477 40.0523 21.5 39.5 21.5C38.9477 21.5 38.5 21.9477 38.5 22.5C38.5 23.0523 38.9477 23.5 39.5 23.5Z" fill="#009FDA"/>
<path d="M34.5 34.5C35.0523 34.5 35.5 34.0523 35.5 33.5C35.5 32.9477 35.0523 32.5 34.5 32.5C33.9477 32.5 33.5 32.9477 33.5 33.5C33.5 34.0523 33.9477 34.5 34.5 34.5Z" fill="#009FDA"/>
<defs>
<filter id="filter0_b" x="-4" y="-4" width="88" height="88" filterUnits="userSpaceOnUse" color-interpolation-filters="sRGB">
<feFlood flood-opacity="0" result="BackgroundImageFix"/>
<feGaussianBlur in="BackgroundImage" stdDeviation="2"/>
<feComposite in2="SourceAlpha" operator="in" result="effect1_backgroundBlur"/>
<feBlend mode="normal" in="SourceGraphic" in2="effect1_backgroundBlur" result="shape"/>
</filter>
</defs>
</svg>
