<svg width="73" height="96" viewBox="0 0 73 96" fill="none" xmlns="http://www.w3.org/2000/svg">
<g clip-path="url(#clip0)">
<path d="M26.75 36.75L11.75 3.75H-0.25" stroke="#009FDA" stroke-width="2" stroke-miterlimit="10"/>
<path d="M48.2 18.75C47.9 17.85 47.75 16.8 47.75 15.75C47.75 9.15 53.15 3.75 59.75 3.75C66.35 3.75 71.75 9.15 71.75 15.75C71.75 22.35 66.35 27.75 59.75 27.75C58.7 27.75 57.65 27.6 56.75 27.3" stroke="#009FDA" stroke-width="2" stroke-miterlimit="10"/>
<path d="M2.75 36.75H56.75" stroke="#009FDA" stroke-width="2" stroke-miterlimit="10"/>
<path d="M56.75 18.75H2.75V39.75C2.75 54.6 14.9 66.75 29.75 66.75C44.6 66.75 56.75 54.6 56.75 39.75V18.75Z" stroke="#10304C" stroke-width="2" stroke-miterlimit="10" stroke-linecap="square"/>
<path d="M29.75 93.75V66.75" stroke="#10304C" stroke-width="2" stroke-miterlimit="10" stroke-linecap="square"/>
<path d="M14.75 93.75H44.75" stroke="#10304C" stroke-width="2" stroke-miterlimit="10" stroke-linecap="square"/>
</g>
<defs>
<clipPath id="clip0">
<rect width="73" height="96" fill="white"/>
</clipPath>
</defs>
</svg>
