<svg width="26" height="26" viewBox="0 0 26 26" fill="none" xmlns="http://www.w3.org/2000/svg">
<path d="M1.40967 13.0416C1.40967 19.4306 6.57008 24.673 13.0411 24.673C19.4301 24.673 24.6725 19.5125 24.6725 13.0416C24.6725 6.65248 19.5121 1.41016 13.0411 1.41016C6.57008 1.41016 1.40967 6.57057 1.40967 13.0416Z" stroke="#009FDA" stroke-miterlimit="10"/>
<path d="M16.0717 9.10942H15.0068C14.1877 9.10942 14.0239 9.51898 14.0239 10.0924V11.4029H16.0717L15.826 13.4507H14.0239V18.775H11.8942V13.4507H10.0103V11.4029H11.8123V9.84663C11.8123 8.04458 12.8771 7.14355 14.4335 7.14355C15.1707 7.14355 15.826 7.22547 15.9898 7.22547V9.10942H16.0717Z" fill="#009FDA"/>
</svg>
