<svg width="26" height="26" viewBox="0 0 26 26" fill="none" xmlns="http://www.w3.org/2000/svg">
<path d="M13.0409 1.40967C6.56996 1.40967 1.40955 6.57008 1.40955 13.0411C1.40955 19.4301 6.56996 24.6725 13.0409 24.6725C19.43 24.6725 24.6723 19.5121 24.6723 13.0411C24.5904 6.57008 19.43 1.40967 13.0409 1.40967Z" stroke="white" stroke-miterlimit="10"/>
<path d="M13.0409 7.96268C14.6792 7.96268 14.843 7.96268 15.4983 7.96268C16.0716 7.96268 16.3993 8.1265 16.645 8.20841C16.9727 8.29032 17.1365 8.45414 17.3822 8.69988C17.628 8.94561 17.7099 9.10943 17.8737 9.43708C17.9556 9.68281 18.0375 10.0105 18.1194 10.5838C18.1194 11.2391 18.1194 11.4029 18.1194 13.0412C18.1194 14.6794 18.1194 14.8432 18.1194 15.4985C18.1194 16.0719 17.9556 16.3995 17.8737 16.6453C17.7918 16.9729 17.628 17.1367 17.3822 17.3825C17.1365 17.6282 16.9727 17.7101 16.645 17.8739C16.3993 17.9559 16.0716 18.0378 15.4983 18.1197C14.843 18.1197 14.6792 18.1197 13.0409 18.1197C11.4027 18.1197 11.2389 18.1197 10.5836 18.1197C10.0102 18.1197 9.68257 17.9559 9.43683 17.8739C9.10919 17.792 8.94536 17.6282 8.69963 17.3825C8.4539 17.1367 8.37199 16.9729 8.20816 16.6453C8.12625 16.3995 8.04434 16.0719 7.96243 15.4985C7.96243 14.8432 7.96243 14.6794 7.96243 13.0412C7.96243 11.4029 7.96243 11.2391 7.96243 10.5838C7.96243 10.0105 8.12625 9.68281 8.20816 9.43708C8.29007 9.10943 8.4539 8.94561 8.69963 8.69988C8.94536 8.45414 9.10919 8.37223 9.43683 8.20841C9.68257 8.1265 10.0102 8.04459 10.5836 7.96268C11.157 7.96268 11.4027 7.96268 13.0409 7.96268ZM13.0409 6.81592C11.4027 6.81592 11.157 6.81592 10.5017 6.81592C9.84639 6.81592 9.43683 6.97974 9.02728 7.06165C8.53581 7.30739 8.20816 7.55312 7.88052 7.88076C7.55287 8.20841 7.30714 8.53605 7.14332 8.94561C6.97949 9.35517 6.89758 9.76472 6.89758 10.42C6.89758 11.0753 6.89758 11.321 6.89758 12.9593C6.89758 14.5975 6.89758 14.8432 6.89758 15.4985C6.89758 16.1538 7.06141 16.5634 7.14332 16.9729C7.30714 17.3825 7.47096 17.7101 7.88052 18.0378C8.20816 18.3654 8.53581 18.6111 8.94536 18.775C9.35492 18.9388 9.76448 19.0207 10.4198 19.0207C11.0751 19.0207 11.3208 19.0207 12.959 19.0207C14.5972 19.0207 14.843 19.0207 15.4983 19.0207C16.1536 19.0207 16.5631 18.8569 16.9727 18.775C17.3822 18.6111 17.7099 18.4473 18.0375 18.0378C18.3652 17.7101 18.6109 17.3825 18.7747 16.9729C18.9385 16.5634 19.0205 16.1538 19.0205 15.4985C19.0205 14.8432 19.0205 14.5975 19.0205 12.9593C19.0205 11.321 19.0205 11.0753 19.0205 10.42C19.0205 9.76472 18.8566 9.35517 18.7747 8.94561C18.6109 8.53605 18.4471 8.20841 18.0375 7.88076C17.7099 7.55312 17.3822 7.30739 16.9727 7.14356C16.5631 6.97974 16.1536 6.89783 15.4983 6.89783C14.9249 6.81592 14.6792 6.81592 13.0409 6.81592Z" fill="white"/>
<path d="M13.041 9.84668C11.3208 9.84668 9.84644 11.2392 9.84644 13.0412C9.84644 14.7614 11.2389 16.2358 13.041 16.2358C14.7611 16.2358 16.2355 14.8433 16.2355 13.0412C16.1536 11.2392 14.7611 9.84668 13.041 9.84668ZM13.041 15.089C11.8942 15.089 10.9932 14.188 10.9932 13.0412C10.9932 11.8945 11.8942 10.9934 13.041 10.9934C14.1877 10.9934 15.0888 11.8945 15.0888 13.0412C15.0888 14.1061 14.1058 15.089 13.041 15.089Z" fill="white"/>
<path d="M17.0546 9.68276C17.0546 10.0923 16.727 10.42 16.3174 10.42C15.9078 10.42 15.5802 10.0923 15.5802 9.68276C15.5802 9.2732 15.9078 8.94556 16.3174 8.94556C16.727 8.94556 17.0546 9.2732 17.0546 9.68276Z" fill="white"/>
</svg>
