<svg width="16" height="16" viewBox="0 0 16 16" fill="none" xmlns="http://www.w3.org/2000/svg">
<path d="M0.666687 3.33331H3.33335" stroke="#009FDA" stroke-linecap="round" stroke-linejoin="round"/>
<path d="M11.3334 3.33331H15.3334" stroke="#009FDA" stroke-linecap="round" stroke-linejoin="round"/>
<path d="M6.00004 5.99999C7.4728 5.99999 8.66671 4.80608 8.66671 3.33332C8.66671 1.86056 7.4728 0.666656 6.00004 0.666656C4.52728 0.666656 3.33337 1.86056 3.33337 3.33332C3.33337 4.80608 4.52728 5.99999 6.00004 5.99999Z" stroke="#009FDA" stroke-linecap="round" stroke-linejoin="round"/>
<path d="M15.3334 12.6667H12.6667" stroke="#009FDA" stroke-linecap="round" stroke-linejoin="round"/>
<path d="M4.66669 12.6667H0.666687" stroke="#009FDA" stroke-linecap="round" stroke-linejoin="round"/>
<path d="M10 15.3333C11.4728 15.3333 12.6667 14.1394 12.6667 12.6667C12.6667 11.1939 11.4728 10 10 10C8.52728 10 7.33337 11.1939 7.33337 12.6667C7.33337 14.1394 8.52728 15.3333 10 15.3333Z" stroke="#009FDA" stroke-linecap="round" stroke-linejoin="round"/>
</svg>
