<svg width="80" height="80" viewBox="0 0 80 80" fill="none" xmlns="http://www.w3.org/2000/svg">
<circle cx="40" cy="40" r="40" fill="white"/>
<path d="M34.5 39.5C38.366 39.5 41.5 36.366 41.5 32.5C41.5 28.634 38.366 25.5 34.5 25.5C30.634 25.5 27.5 28.634 27.5 32.5C27.5 36.366 30.634 39.5 34.5 39.5Z" stroke="#10304C" stroke-miterlimit="10" stroke-linecap="square"/>
<path d="M47.5 18.5H50.5C53.6826 18.5 56.7348 19.7643 58.9853 22.0147C61.2357 24.2652 62.5 27.3174 62.5 30.5V31.5H47.5" stroke="#10304C" stroke-miterlimit="10"/>
<path d="M47.5 40.5H50.5C52.3565 40.5 54.137 39.7625 55.4497 38.4497C56.7625 37.137 57.5 35.3565 57.5 33.5V31.5" stroke="#10304C" stroke-miterlimit="10"/>
<path d="M32.5 18.5H47.5V50.5C47.5 53.6826 46.2357 56.7348 43.9853 58.9853C41.7348 61.2357 38.6826 62.5 35.5 62.5H20.5V30.5C20.5 27.3174 21.7643 24.2652 24.0147 22.0147C26.2652 19.7643 29.3174 18.5 32.5 18.5V18.5Z" stroke="#009FDA" stroke-miterlimit="10" stroke-linecap="square"/>
<path d="M34.5 34.5C35.6046 34.5 36.5 33.6046 36.5 32.5C36.5 31.3954 35.6046 30.5 34.5 30.5C33.3954 30.5 32.5 31.3954 32.5 32.5C32.5 33.6046 33.3954 34.5 34.5 34.5Z" fill="#009FDA"/>
</svg>
