<svg width="80" height="80" viewBox="0 0 80 80" fill="none" xmlns="http://www.w3.org/2000/svg">
<circle cx="40" cy="40" r="40" fill="white"/>
<path d="M37.5457 30.8C38.181 29.456 38.507 27.9866 38.4997 26.5C38.4997 22.082 35.8137 18.5 32.4997 18.5C29.1857 18.5 26.4997 22.082 26.4997 26.5C26.4924 27.9866 26.8184 29.456 27.4537 30.8C25.5095 32.8876 24.4506 35.6477 24.4997 38.5C24.4997 44.023 28.0817 48.5 32.4997 48.5C36.9177 48.5 40.4997 44.023 40.4997 38.5C40.5488 35.6477 39.4899 32.8876 37.5457 30.8V30.8Z" stroke="#009FDA" stroke-miterlimit="10" stroke-linecap="square"/>
<path d="M32.5 56.5V38.5" stroke="#10304C" stroke-miterlimit="10" stroke-linecap="square"/>
<path d="M44.3376 47C45.5195 47.949 46.984 48.4768 48.4996 48.5C52.9176 48.5 56.4996 44.023 56.4996 38.5C56.5487 35.6477 55.4898 32.8876 53.5456 30.8C54.1809 29.456 54.5069 27.9866 54.4996 26.5C54.4996 22.082 51.8136 18.5 48.4996 18.5C47.5037 18.557 46.5408 18.8774 45.7093 19.4283C44.8777 19.9793 44.2073 20.7411 43.7666 21.636" stroke="#009FDA" stroke-miterlimit="10" stroke-linecap="square"/>
<path d="M48.5 56.5V38.5" stroke="#10304C" stroke-miterlimit="10" stroke-linecap="square"/>
<path d="M22.315 49.443C20.9909 50.2272 19.7168 51.0929 18.5 52.035V62.5H62.5V52.035C61.2832 51.0929 60.0091 50.2272 58.685 49.443" stroke="#10304C" stroke-miterlimit="10" stroke-linecap="square"/>
</svg>
