<svg width="96" height="67" viewBox="0 0 133 93" fill="none" xmlns="http://www.w3.org/2000/svg">
<path d="M35.753 89.6094C35.753 90.7554 35.776 91.3784 35.798 91.6614C35.821 91.8774 35.878 91.9684 36.093 91.9904C36.467 92.0364 36.626 92.0574 36.955 92.0694L36.932 92.3984C36.569 92.3984 35.81 92.3644 35.027 92.3644C34.483 92.3644 33.86 92.3984 33.327 92.3984L33.293 92.0814C33.531 92.0694 33.746 92.0364 34.098 92.0014C34.336 91.9804 34.461 91.9114 34.472 91.6954C34.506 91.3094 34.517 90.7994 34.517 89.5984V87.1714C34.517 86.4224 34.517 85.8674 34.506 85.5614C33.055 85.5614 32.919 85.6644 32.726 86.1064C32.545 86.5024 32.431 86.9114 32.306 87.3644L32 87.2854C32.114 86.7074 32.204 85.6074 32.25 85.1084C32.59 85.1884 33.327 85.2214 34.676 85.2214H35.606C37.249 85.2214 37.794 85.2094 38.224 85.1084C38.202 85.2904 38.088 86.3334 38.122 87.1944L37.805 87.2974C37.726 86.6164 37.612 86.1754 37.522 85.9584C37.408 85.6524 37.215 85.5394 35.764 85.5624C35.764 85.8574 35.753 86.4584 35.753 87.0704V89.6094Z" fill="white"/>
<path d="M44.8105 87.5905C44.8105 86.5145 44.7995 86.0825 44.7875 85.8335C44.7765 85.6745 44.7195 85.5955 44.4935 85.5725L43.8125 85.5045L43.8695 85.1885C44.1195 85.1885 44.7545 85.2215 45.2985 85.2215C45.8535 85.2215 46.4775 85.1885 47.0665 85.1885C48.1775 85.1885 48.6765 85.3585 48.9945 85.6645C49.3225 85.9705 49.4365 86.4125 49.4365 86.8315C49.4365 88.0465 48.5175 88.5105 47.4525 88.6805V88.7265C48.5405 88.8615 49.2325 89.2585 49.4135 90.2225C49.4925 90.5625 49.5385 91.0055 49.5725 91.3785C49.6175 91.8775 49.7985 92.1045 50.1735 92.1045C50.2635 92.1045 50.4115 92.0825 50.4905 92.0475L50.4455 92.3875C50.2975 92.4455 49.9235 92.4905 49.6405 92.4905C48.6995 92.4905 48.2455 92.1045 48.1665 91.1295C48.1435 90.8135 48.1215 90.5065 48.0985 90.1895C47.9965 89.1355 47.4295 88.9195 46.3755 88.9195H46.0465V90.0415C46.0465 90.9375 46.0575 91.3565 46.0805 91.6865C46.1035 91.9695 46.2055 92.0145 47.0215 92.0715L46.9875 92.4005C46.5905 92.4005 45.8995 92.3665 45.4115 92.3665C44.7995 92.3665 44.2435 92.4005 43.8355 92.4005L43.8475 92.0715C44.5835 92.0265 44.7545 91.9695 44.7655 91.7315C44.7875 91.4705 44.8105 90.9955 44.8105 89.9405V87.5905ZM46.0455 88.5665H46.3745C47.5195 88.5665 48.1085 88.1245 48.1085 86.9565C48.1085 86.5715 48.0185 86.2205 47.8815 86.0035C47.7125 85.7435 47.4285 85.5395 46.7715 85.5395C46.5555 85.5395 46.3625 85.5615 46.2495 85.5965C46.1475 85.6185 46.1025 85.6755 46.0905 85.8005C46.0795 85.9375 46.0455 86.3335 46.0455 87.3315V88.5665Z" fill="white"/>
<path d="M64.1365 92.3982C63.8645 92.3862 63.2745 92.3642 62.6735 92.3642C62.0955 92.3642 61.6425 92.3862 61.0975 92.3982L61.0865 92.0692C61.7665 92.0122 61.8685 91.9672 61.8125 91.7292C61.7105 91.3332 61.4155 90.3572 61.1995 89.6552C60.9955 89.6432 60.5315 89.6432 60.0665 89.6432C59.6125 89.6432 59.1705 89.6432 58.9895 89.6552C58.6835 90.6182 58.5245 91.1062 58.4455 91.4122C58.3315 91.8992 58.4455 92.0132 59.3745 92.0692L59.3635 92.3982C59.0005 92.3982 58.6495 92.3642 58.1385 92.3642C57.7985 92.3642 57.2545 92.3982 56.8125 92.3982V92.0692C57.4365 92.0242 57.6515 91.9442 57.9005 91.3212C58.2745 90.4032 59.5215 86.8662 59.8285 85.9252C59.9415 85.6082 59.9985 85.4372 60.0215 85.2452C60.2705 85.2332 60.8595 85.1652 61.0755 85.0742C61.6305 86.9562 62.7985 90.7312 63.2185 91.7182C63.3205 91.9352 63.4445 92.0132 63.7055 92.0362L64.1365 92.0692V92.3982ZM59.1365 89.2462C59.3175 89.2572 59.7375 89.2572 60.1455 89.2572C60.5535 89.2572 60.9505 89.2572 61.0865 89.2462C60.8145 88.2482 60.4515 87.0462 60.1685 86.0822C59.8975 86.8992 59.5685 87.8522 59.1365 89.2462Z" fill="white"/>
<path d="M69.8125 85.1885C70.0845 85.1885 70.7535 85.2215 71.3095 85.2215C71.8075 85.2215 72.3305 85.1885 72.8635 85.1885L72.9195 85.5165L72.3195 85.5845C72.1265 85.6065 72.0915 85.6635 72.1365 85.8345C72.2505 86.2985 73.2705 89.2235 73.9615 91.1395C74.7215 89.1445 75.5835 86.7525 75.7755 85.9015C75.8215 85.6985 75.7635 85.6185 75.5935 85.5955C75.3895 85.5735 75.1625 85.5385 74.9245 85.5165L74.8675 85.1885C75.0945 85.1885 75.6045 85.2215 76.0815 85.2215C76.4665 85.2215 76.8635 85.1885 77.3395 85.1885L77.4075 85.5165C76.7155 85.5285 76.5345 85.6415 76.2735 86.2195C75.7965 87.3075 74.7435 90.1195 73.9255 92.4895C73.7345 92.4555 73.2795 92.4775 73.1215 92.5115C72.3725 90.2095 71.1825 86.9555 70.7855 86.0035C70.5925 85.6075 70.4455 85.5385 69.8335 85.5165L69.8125 85.1885Z" fill="white"/>
<path d="M83.9035 85.1876C84.2435 85.1876 85.0375 85.2206 85.6155 85.2206H87.5425C88.2905 85.2206 88.9145 85.1876 89.1635 85.1416C89.1185 85.4586 89.1065 86.5136 89.1305 87.0916L88.8235 87.1136C88.7785 86.8076 88.6865 86.4326 88.5515 86.1156C88.3595 85.6846 88.1775 85.5836 87.0895 85.5836H86.3415C86.1935 85.5836 86.1595 85.6286 86.1485 85.7656C86.1265 86.1056 86.1025 86.6496 86.1025 87.2736V88.4746C86.2275 88.4866 86.5805 88.4866 86.7495 88.4866C87.7355 88.4866 87.9055 88.2706 88.0075 87.5106H88.3025C88.2345 88.2816 88.2235 89.2916 88.2805 90.0046L87.9735 89.9936C87.8825 89.1536 87.7585 88.8586 86.7385 88.8586C86.5345 88.8586 86.2275 88.8586 86.1025 88.8816V89.9126C86.1025 90.6036 86.1155 91.3316 86.1365 91.7266C86.1485 91.9536 86.2165 92.0096 87.1685 92.0096C88.2115 92.0096 88.5295 91.9416 88.8355 91.6246C89.1065 91.3406 89.3345 90.7516 89.4585 90.2976L89.7425 90.3436C89.7295 90.6146 89.5045 92.1226 89.4475 92.4176C89.0605 92.3836 88.3365 92.3606 87.0325 92.3606H85.6265C85.0485 92.3606 84.2095 92.3946 83.8125 92.3946L83.8255 92.0776L84.5055 92.0096C84.7325 91.9976 84.8005 91.8966 84.8225 91.6016C84.8555 91.1606 84.8685 90.5926 84.8685 89.8786V87.5426C84.8685 86.7146 84.8555 86.1476 84.8455 85.8316C84.8345 85.6386 84.7435 85.5696 84.4715 85.5476L83.9055 85.5016V85.1876H83.9035Z" fill="white"/>
<path d="M101.503 90.1875C101.412 90.7085 101.322 91.6955 101.242 92.4095C101.038 92.3875 100.539 92.3765 99.8695 92.3765C99.2125 92.3645 98.3615 92.3645 97.5115 92.3645C97.0125 92.3645 96.0945 92.3985 95.8125 92.3985V92.0695L96.4475 92.0125C96.6965 91.9795 96.7755 91.9215 96.7875 91.7295C96.8215 91.3665 96.8555 90.6415 96.8555 89.7115V87.3075C96.8555 86.4115 96.8425 86.0495 96.8325 85.8115C96.8215 85.6415 96.7415 85.5735 96.5145 85.5615L95.9255 85.5165L95.9375 85.1885C96.2445 85.1885 97.0375 85.2215 97.4795 85.2215C97.9105 85.2215 98.4195 85.1885 99.0545 85.1885L99.0885 85.5165L98.4645 85.5615C98.2275 85.5845 98.1595 85.6525 98.1485 85.8565C98.1255 86.2765 98.0905 86.8775 98.0905 87.7505V89.7455C98.0905 90.6755 98.1035 91.5155 98.1245 91.8205C98.1365 91.9445 98.2045 92.0125 98.8735 92.0125C100.02 92.0125 100.381 91.9445 100.643 91.5715C100.88 91.2305 101.039 90.7435 101.187 90.1765L101.503 90.1875Z" fill="white"/>
<path d="M45.5032 65.736C45.5032 63.317 45.3552 61.792 45.2432 61.197C45.1692 60.86 44.9822 60.675 44.4612 60.675L42.9352 60.637L42.9732 59.707C44.3122 59.634 46.2102 59.446 47.4392 59.074L47.5502 59.186C47.6622 60.154 47.7732 62.088 47.7732 62.684H47.8482C48.7412 60.898 50.0802 59 52.3502 59C53.8392 59 54.5842 60.115 54.5842 61.01C54.5842 62.312 53.6532 62.759 53.1322 62.759C52.6482 62.759 52.3502 62.572 52.2392 62.237C52.0532 61.418 51.7932 60.935 50.8622 60.935C49.6712 60.935 48.6292 62.796 48.1462 64.583C47.9962 65.213 47.9222 65.847 47.9222 66.589C47.9222 70.982 47.9222 72.509 47.9962 73.439C48.0342 74.258 48.2942 74.407 51.1232 74.517L50.9732 75.522C49.8572 75.522 48.1462 75.412 46.6942 75.412C45.2052 75.412 44.0902 75.522 42.8242 75.522L42.9352 74.517C44.9082 74.444 45.2432 74.258 45.3172 73.625C45.4292 72.881 45.5032 71.168 45.5032 68.937V65.736Z" fill="white"/>
<path d="M67.1329 75.522C66.1289 75.522 64.7889 75.412 63.2629 75.412C61.6999 75.412 60.6209 75.522 59.5039 75.522L59.5789 74.517C61.8119 74.444 62.1079 74.183 62.1459 73.549C62.1839 72.806 62.2959 71.205 62.2959 68.972V64.879C62.2959 62.721 62.2199 61.567 62.1839 61.01C62.1459 60.563 61.7369 60.488 59.6529 60.563L59.7269 59.633C61.2159 59.558 63.4489 59.372 64.8249 59C64.7889 59.93 64.7139 62.201 64.7139 64.693V68.971C64.7139 71.391 64.7509 72.767 64.8249 73.548C64.8249 74.294 65.2729 74.443 67.2069 74.516L67.1329 75.522Z" fill="white"/>
<path d="M83.2897 63.242C83.2897 61.717 82.4707 60.042 80.0527 60.042C77.6717 60.042 76.5917 61.27 76.5917 62.797C76.5917 63.208 76.6657 63.614 76.7397 63.875C76.8147 64.137 76.6287 64.433 76.4417 64.546C76.1817 64.732 75.9207 64.843 75.4747 64.843C74.8047 64.843 74.1717 64.433 74.1717 63.318C74.1717 61.419 76.7387 59.002 80.5717 59.002C83.4377 59.002 84.7027 60.266 85.1857 60.975C85.4837 61.457 85.7077 62.314 85.7077 63.02V72.584C85.7077 74.073 86.1897 74.334 86.6747 74.334C87.2697 74.334 87.8267 73.664 88.1997 72.137L89.0937 72.474C88.6107 75.078 87.2327 75.933 85.8187 75.933C83.9597 75.933 83.3637 74.707 83.2527 73.142C81.5777 74.966 79.6047 75.933 77.8557 75.933C75.0647 75.933 73.4277 73.926 73.4277 71.394C73.4277 70.017 73.9477 68.677 75.5117 68.044C78.1157 66.929 81.9867 65.662 83.2887 64.657V63.242H83.2897ZM76.2567 71.02C76.2567 72.843 77.2997 74.2579 79.0477 74.2579C81.0197 74.2579 82.3217 73.14 83.0667 71.429C83.2547 70.982 83.2907 70.386 83.2907 69.977V65.809C82.2117 66.442 79.8667 67.371 78.3037 68.156C77.1507 68.787 76.2577 69.346 76.2577 70.982V71.02H76.2567Z" fill="white"/>
<path d="M9.861 63.242C9.861 61.717 9.042 60.042 6.624 60.042C4.242 60.042 3.163 61.27 3.163 62.797C3.163 63.208 3.237 63.614 3.312 63.875C3.387 64.137 3.2 64.433 3.014 64.546C2.754 64.732 2.493 64.843 2.047 64.843C1.377 64.843 0.744003 64.433 0.744003 63.318C0.744003 61.419 3.312 59.002 7.145 59.002C10.011 59.002 11.276 60.266 11.759 60.975C12.057 61.457 12.281 62.314 12.281 63.02V72.584C12.281 74.073 12.764 74.334 13.248 74.334C13.843 74.334 14.401 73.664 14.774 72.137L15.667 72.474C15.184 75.078 13.806 75.933 12.392 75.933C10.532 75.933 9.937 74.707 9.825 73.142C8.15 74.966 6.177 75.933 4.428 75.933C1.637 75.933 0 73.926 0 71.394C0 70.017 0.52 68.677 2.084 68.044C4.688 66.929 8.559 65.662 9.861 64.657V63.242ZM2.828 71.02C2.828 72.843 3.87 74.2579 5.619 74.2579C7.591 74.2579 8.894 73.14 9.638 71.429C9.825 70.982 9.861 70.386 9.861 69.977V65.809C8.782 66.442 6.438 67.371 4.874 68.156C3.721 68.787 2.828 69.346 2.828 70.982V71.02Z" fill="white"/>
<path d="M126.893 63.242C126.893 61.717 126.074 60.042 123.656 60.042C121.274 60.042 120.195 61.27 120.195 62.797C120.195 63.208 120.269 63.614 120.343 63.875C120.418 64.137 120.232 64.433 120.045 64.546C119.785 64.732 119.524 64.843 119.078 64.843C118.408 64.843 117.775 64.433 117.775 63.318C117.775 61.419 120.342 59.002 124.175 59.002C127.041 59.002 128.306 60.266 128.789 60.975C129.087 61.457 129.311 62.314 129.311 63.02V72.584C129.311 74.073 129.793 74.334 130.278 74.334C130.873 74.334 131.43 73.664 131.803 72.137L132.697 72.474C132.214 75.078 130.836 75.933 129.422 75.933C127.563 75.933 126.967 74.707 126.856 73.142C125.18 74.966 123.208 75.933 121.459 75.933C118.668 75.933 117.031 73.926 117.031 71.394C117.031 70.017 117.551 68.677 119.115 68.044C121.719 66.929 125.59 65.662 126.892 64.657V63.242H126.893ZM119.86 71.02C119.86 72.843 120.902 74.2579 122.651 74.2579C124.623 74.2579 125.925 73.14 126.67 71.429C126.858 70.982 126.894 70.386 126.894 69.977V65.809C125.815 66.442 123.47 67.371 121.907 68.156C120.754 68.787 119.861 69.346 119.861 70.982V71.02H119.86Z" fill="white"/>
<path d="M93.9043 74.517C95.8403 74.444 96.2123 74.331 96.2863 73.439C96.3613 72.324 96.3983 70.945 96.3983 69.161V65.923C96.3983 63.875 96.3613 62.202 96.3233 61.27C96.2863 60.712 95.9883 60.675 93.9423 60.675L94.0163 59.746C95.5033 59.707 97.2173 59.521 98.6303 59.186C98.7043 59.892 98.8173 61.531 98.8543 62.05C100.156 60.711 101.98 59 104.659 59C107.153 59 108.381 60.153 108.939 61.344C109.237 61.94 109.385 62.759 109.385 63.651V73.549C109.385 74.368 109.609 74.406 111.915 74.517L111.805 75.522C110.8 75.522 109.459 75.413 107.934 75.413C106.52 75.413 105.441 75.522 104.436 75.522L104.51 74.517C106.333 74.444 106.705 74.258 106.781 73.587C106.855 72.768 106.968 70.908 106.968 67.969C106.968 63.427 106.893 62.983 106.559 62.312C106.075 61.269 105.218 60.674 103.73 60.674C101.645 60.674 100.157 61.716 99.2283 63.392C98.8923 63.95 98.8183 64.507 98.8183 65.4V69.68C98.8183 71.243 98.8183 72.768 98.8923 73.514C98.9653 74.295 99.2643 74.482 101.348 74.517L101.274 75.522C100.269 75.522 98.5203 75.413 97.4043 75.413C96.1383 75.413 94.9843 75.522 93.9053 75.522V74.517H93.9043Z" fill="white"/>
<path d="M29.1291 75.2798L25.3781 75.1978L21.8691 75.2798V74.5528C23.5631 74.5528 23.7231 74.1098 23.7231 72.6568V61.8448C23.7231 60.5138 23.2791 60.4328 21.8691 60.4328V59.7048L25.0141 59.7468L28.6051 59.7048C32.6401 59.6648 36.8751 61.4398 37.4791 66.8868C38.1251 72.1328 33.6891 75.3608 29.1291 75.2798ZM28.5251 60.6348C27.6371 60.6348 27.1521 60.6348 25.9821 60.7158V72.2928C25.9821 74.1088 26.8701 74.3928 28.9281 74.3928C31.7521 74.3928 35.0601 72.0118 35.0191 67.6948C34.9391 63.4988 32.3571 60.6348 28.5251 60.6348Z" fill="white"/>
<path d="M45.7943 43.2678C42.0303 43.2678 38.1373 43.0068 34.1823 42.4888C33.3363 42.3758 32.7292 41.6188 32.8052 40.7678C32.8672 40.0808 34.5383 23.7828 53.0743 11.2788C62.8833 4.66176 74.5372 1.30375 85.9892 1.78575L83.6232 4.88375C72.9182 4.40275 64.1023 7.67576 54.8533 13.9118C40.8123 23.3848 37.1262 35.3528 36.2352 39.5358C40.4652 40.0128 44.6063 40.1838 48.5703 40.0358C60.6303 39.5938 72.5502 36.2088 83.0402 30.2468C93.5332 24.2858 101.209 17.7438 107.758 7.60876L111.76 7.36875C104.936 17.9288 95.5462 26.7978 84.6122 33.0108C73.6812 39.2248 61.2572 42.7548 48.6862 43.2148C47.7312 43.2488 46.7673 43.2678 45.7943 43.2678Z" fill="white"/>
<path d="M61.2971 47.929C56.4611 35.81 54.5751 18.433 57.7971 5.788L59.2711 0L60.8701 5.754C64.6971 19.526 76.1261 32.143 89.2501 38.475L85.9591 40.355C74.8181 34.667 64.7371 24.475 59.7331 12.235C58.1751 22.566 60.5661 37.718 64.4401 47.428L61.2971 47.929Z" fill="white"/>
<path d="M59.1182 13.3684C58.8712 14.2834 58.0972 15.6454 57.5352 16.4864C56.9352 17.3864 57.9242 18.2444 58.7902 18.1184C60.1732 17.9174 61.1222 16.9594 62.4252 16.4894C61.9692 16.0334 61.5142 15.5784 61.0582 15.1224C60.6292 16.9014 59.1032 18.8284 58.0472 20.3174C57.4612 21.1434 58.4272 22.1744 59.3022 21.9494C60.2022 21.7184 60.8062 21.2724 60.8582 21.7184C60.8692 21.8134 59.4292 23.7764 59.6042 23.5064C58.9472 24.5204 58.2812 25.4274 58.1872 26.6424C58.1412 27.2384 58.7332 27.7594 59.2982 27.7544C61.5872 27.7324 63.6492 25.8104 65.5982 24.8264C65.0912 24.3194 64.5852 23.8124 64.0782 23.3064C62.6702 26.0964 60.2152 28.2904 59.2362 31.2584C59.0172 31.9234 59.6082 32.6994 60.3082 32.6644C62.7012 32.5444 64.8452 30.4614 66.9402 29.4574C66.3832 29.1374 65.8262 28.8174 65.2682 28.4984C65.4072 30.2074 62.9272 32.0354 62.7682 33.9174C62.7032 34.6904 63.5272 35.1134 64.1742 34.9884C66.6862 34.5064 69.4202 32.3804 72.0202 32.5254L70.9092 31.4154C70.5732 32.2784 70.0052 32.9854 69.2052 33.5334C68.1542 34.5094 69.7282 36.0774 70.7752 35.1044C71.9002 34.0584 72.9912 32.9894 73.1312 31.4154C73.1872 30.7934 72.5762 30.3354 72.0202 30.3044C69.1372 30.1414 66.3872 32.3074 63.5842 32.8464C64.0522 33.2034 64.5212 33.5604 64.9902 33.9174C65.1582 31.9294 67.6572 30.5684 67.4902 28.4984C67.4212 27.6244 66.6102 27.1594 65.8202 27.5384C64.2452 28.2934 62.0872 30.3534 60.3092 30.4424C60.6662 30.9114 61.0232 31.3804 61.3802 31.8484C62.2402 29.2424 64.7602 26.8784 65.9982 24.4284C66.5062 23.4214 65.4862 22.3984 64.4782 22.9074C63.0402 23.6344 60.9922 25.5154 59.2992 25.5324L60.4102 26.6424C60.6122 24.0244 64.2412 22.6714 63.7632 19.8344C63.6882 19.3894 63.1382 18.9834 62.6922 19.0174C61.2832 19.1264 60.0862 19.4544 58.7122 19.8064C59.1302 20.3504 59.5482 20.8944 59.9662 21.4384C61.1712 19.7404 62.7072 17.7634 63.2022 15.7134C63.3872 14.9484 62.6702 14.0464 61.8352 14.3474C60.6102 14.7884 59.4942 15.7874 58.2002 15.9754C58.6192 16.5194 59.0362 17.0634 59.4552 17.6074C60.2212 16.4604 60.9032 15.2904 61.2612 13.9584C61.6332 12.5764 59.4902 11.9864 59.1182 13.3684Z" fill="white"/>
</svg>
