<svg width="70" height="32" viewBox="0 0 70 32" fill="none" xmlns="http://www.w3.org/2000/svg">
<path d="M0 29.9179C7 29.9179 7 25.1836 14 25.1836C21 25.1836 21 29.9179 28 29.9179C35 29.9179 35 25.1836 42 25.1836C49 25.1836 49 29.9179 56 29.9179C63 29.9179 63 25.1836 70 25.1836" stroke="#009FDA" stroke-width="2" stroke-miterlimit="10"/>
<path d="M0 17.9179C7 17.9179 7 13.1836 14 13.1836C21 13.1836 21 17.9179 28 17.9179C35 17.9179 35 13.1836 42 13.1836C49 13.1836 49 17.9179 56 17.9179C63 17.9179 63 13.1836 70 13.1836" stroke="#009FDA" stroke-width="2" stroke-miterlimit="10"/>
<path d="M0 5.91789C7 5.91789 7 1.18359 14 1.18359C21 1.18359 21 5.91789 28 5.91789C35 5.91789 35 1.18359 42 1.18359C49 1.18359 49 5.91789 56 5.91789C63 5.91789 63 1.18359 70 1.18359" stroke="#009FDA" stroke-width="2" stroke-miterlimit="10"/>
</svg>
