<svg width="96" height="67" viewBox="0 0 96 67" fill="none" xmlns="http://www.w3.org/2000/svg">
<g clip-path="url(#clip0)">
<path d="M17.256 63.2863C17.2014 62.4081 16.8191 61.6397 15.8362 61.6397C15.3447 61.6397 14.9624 61.8592 14.6348 62.1886C14.3072 62.5728 14.0887 63.2863 14.0887 64.1097C14.0887 64.7683 14.2526 65.427 14.5256 65.8112C14.8532 66.3052 15.2901 66.5247 15.8362 66.5247C16.6007 66.5247 17.1467 66.1405 17.4198 65.2623L17.6382 65.427C17.3652 66.3601 16.6553 66.909 15.5631 66.909C14.744 66.909 14.0887 66.6345 13.7065 66.0856C13.3788 65.6465 13.1604 64.9879 13.1604 64.2194C13.1604 63.2314 13.488 62.5179 13.9795 62.0239C14.4164 61.5848 14.9624 61.3652 15.727 61.3652C16.3822 61.3652 16.8737 61.5848 17.1467 61.8592L17.3106 61.4201L17.529 61.475C17.4744 61.9141 17.4198 62.6826 17.4744 63.2314L17.256 63.2863Z" fill="white"/>
<path d="M23.3174 61.6397C22.8805 61.6397 22.4983 61.8592 22.2252 62.2983C22.0068 62.6826 21.843 63.2863 21.843 64.1097C21.843 64.933 22.0068 65.6465 22.2798 66.0308C22.5529 66.4699 22.9351 66.6894 23.4266 66.6894C23.8634 66.6894 24.2457 66.5247 24.5187 66.0856C24.7372 65.7014 24.901 65.0428 24.901 64.2194C24.901 63.451 24.7372 62.7923 24.5187 62.3532C24.1911 61.8592 23.8088 61.6397 23.3174 61.6397ZM23.372 61.3652C24.901 61.3652 25.7201 62.5728 25.7201 64.0548C25.7201 65.9759 24.7372 66.909 23.2628 66.909C21.7884 66.909 20.8054 65.9759 20.8054 64.1645C20.9146 62.6277 21.7337 61.3652 23.372 61.3652Z" fill="white"/>
<path d="M28.8327 61.4751C28.9966 61.4751 29.3788 61.4751 29.6519 61.4751C29.9249 61.4751 30.1433 61.4751 30.3071 61.4751C30.3618 61.5849 30.5256 61.8044 30.744 62.1887C30.9624 62.5729 31.8908 63.8902 33.1467 65.6466C33.1467 63.2315 33.0921 62.3533 33.0921 62.1338C33.0375 61.8593 32.9829 61.8044 32.6553 61.7495H32.2184L32.273 61.53C32.6007 61.53 32.9829 61.53 33.3106 61.53C33.6382 61.53 33.9659 61.53 34.1843 61.53V61.7495C34.0205 61.7495 33.8566 61.8044 33.7474 61.8044C33.6382 61.8593 33.529 61.9142 33.529 62.0789C33.4744 62.4082 33.4198 63.3962 33.4198 64.6586V66.7993C33.3106 66.7993 33.0375 66.8542 32.9283 66.9091C32.1638 65.7564 30.8532 63.7255 29.8703 62.2984C29.8703 64.1646 29.8703 65.8662 29.9249 66.1955C29.9795 66.4151 30.0341 66.47 30.1979 66.5248C30.3618 66.5248 30.5802 66.5797 30.744 66.5797V66.7993C30.471 66.7993 30.0887 66.7993 29.6519 66.7993C29.2696 66.7993 28.942 66.7993 28.7781 66.7993V66.5797C28.8874 66.5797 29.0512 66.5797 29.215 66.5248C29.4334 66.47 29.488 66.3602 29.488 66.1406C29.5426 65.8113 29.5973 64 29.5973 62.0789C29.5973 61.9691 29.5426 61.9691 29.488 61.9142C29.4334 61.8593 29.3242 61.8044 29.1604 61.8044L28.7781 61.7495V61.4751H28.8327Z" fill="white"/>
<path d="M37.4608 65.043C37.4061 66.0858 37.8976 66.6347 38.7167 66.6347C39.2628 66.6347 39.7543 66.3054 39.7543 65.6467C39.7543 65.2625 39.5904 65.043 39.3174 64.8234C39.0444 64.6587 38.4437 64.3843 38.0614 64.1648C37.5154 63.8354 37.2969 63.3963 37.2969 62.8474C37.2969 61.9143 37.9522 61.3654 38.9352 61.3654C39.4266 61.3654 39.8089 61.5301 40.0273 61.6948L40.1911 61.3105L40.4096 61.3654C40.3003 62.0241 40.3003 62.6828 40.3003 62.9572H40.0819C40.0819 62.0241 39.5904 61.585 38.9898 61.585C38.4437 61.585 38.116 61.9692 38.116 62.5181C38.116 62.9023 38.2799 63.1768 38.6621 63.3963C39.2628 63.7256 39.6997 63.9452 39.9727 64.1099C40.4096 64.3294 40.628 64.7136 40.628 65.2625C40.628 66.3603 39.7543 66.8543 38.7167 66.8543C38.2253 66.8543 37.6246 66.6896 37.2969 66.525C37.3515 66.031 37.3515 65.4272 37.3515 65.043H37.4608Z" fill="white"/>
<path d="M46.1979 66.525C46.9624 66.525 47.5085 66.2506 47.5631 65.043C47.6177 63.9453 47.6177 62.628 47.5631 62.0791C47.5631 61.7497 47.3993 61.7497 47.1809 61.6949L46.744 61.64V61.4204C47.017 61.4204 47.3447 61.4753 47.6177 61.4753C47.8908 61.4753 48.2184 61.4753 48.5461 61.4204L48.6007 61.64L48.273 61.6949C48.0546 61.6949 48 61.8046 48 62.0242C47.9454 63.2317 47.9454 64.6039 47.8908 65.3175C47.7816 65.9213 47.6177 66.2506 47.2355 66.525C46.9078 66.7446 46.471 66.9093 45.9249 66.9093C45.2696 66.9093 44.7235 66.7446 44.3959 66.3604C44.1228 66.0859 44.0136 65.7017 44.0136 64.9882C44.0136 64.3844 44.0136 62.4084 44.0136 62.0242C44.0136 61.8595 43.959 61.7497 43.8498 61.7497L43.3583 61.6949V61.4753C43.686 61.4753 44.0682 61.5302 44.4505 61.5302C44.7235 61.5302 45.1604 61.4753 45.488 61.4753V61.6949L45.0512 61.7497C44.942 61.7497 44.8873 61.8046 44.8873 61.9693C44.8327 62.5731 44.8327 64.2746 44.8873 65.2077C44.942 65.7566 45.0512 65.9762 45.215 66.1957C45.4334 66.4153 45.8157 66.525 46.1979 66.525Z" fill="white"/>
<path d="M55.4266 65.2076C55.372 65.5918 55.2628 66.3054 55.2082 66.7994C55.0444 66.7994 54.6621 66.7994 54.2253 66.7994C53.7338 66.7994 53.1331 66.7994 52.5324 66.7994C52.1502 66.7994 51.4949 66.7994 51.3311 66.7994V66.5798L51.8225 66.5249C51.9863 66.5249 52.041 66.47 52.0956 66.3054C52.0956 66.0309 52.1502 65.482 52.1502 64.8234V63.067C52.1502 62.4083 52.1502 62.1338 52.1502 61.9692C52.1502 61.8594 52.0956 61.8045 51.9317 61.8045H51.4949V61.585C51.7133 61.585 52.2594 61.585 52.587 61.585C52.8601 61.585 53.2423 61.585 53.6792 61.585L53.7338 61.8045L53.2423 61.8594C53.0785 61.8594 53.0239 61.9143 53.0239 62.079C53.0239 62.4083 52.9693 62.8474 52.9693 63.4512V64.9332C52.9693 65.6467 52.9693 66.2505 52.9693 66.47C52.9693 66.5798 53.0239 66.6347 53.57 66.6347C54.4437 66.6347 54.7167 66.5798 54.8805 66.3054C55.0444 66.0858 55.1536 65.7016 55.2628 65.3174L55.4266 65.2076Z" fill="white"/>
<path d="M60.4505 64.7134C60.4505 65.5917 60.4505 66.0308 60.5051 66.2503C60.5051 66.415 60.5597 66.4699 60.7235 66.4699C60.9966 66.5248 61.1058 66.5248 61.3788 66.5248V66.7443C61.1058 66.7443 60.5597 66.7443 60.0136 66.7443C59.6314 66.7443 59.1945 66.7443 58.8123 66.7443L58.7577 66.5248C58.9215 66.5248 59.0853 66.5248 59.3584 66.4699C59.5222 66.4699 59.6314 66.415 59.6314 66.2503C59.6314 65.9759 59.686 65.5917 59.686 64.7134V62.957C59.686 62.4081 59.686 61.969 59.686 61.7495C58.5392 61.7495 58.4846 61.8043 58.3208 62.1337C58.2116 62.4081 58.1024 62.6826 58.0478 63.0119L57.8293 62.957C57.9386 62.5179 57.9932 61.7495 57.9932 61.3652C58.2116 61.4201 58.7577 61.475 59.7952 61.475H60.4505C61.7065 61.475 62.0341 61.475 62.3618 61.3652C62.3618 61.475 62.2526 62.2983 62.3072 62.8472L62.0887 62.957C62.0341 62.463 61.9795 62.1337 61.9249 61.969C61.8703 61.7495 61.7065 61.6397 60.5597 61.6946C60.5597 61.9141 60.5597 62.3532 60.5597 62.7923V64.7134H60.4505Z" fill="white"/>
<path d="M65.9659 62.9571C65.9659 62.4631 65.9659 62.2435 65.9659 62.024C65.9659 61.7495 65.8566 61.7495 65.256 61.6947V61.4751C65.4744 61.4751 65.9659 61.4751 66.3481 61.4751C66.7304 61.4751 67.1672 61.4751 67.4403 61.4751V61.6947C66.8942 61.6947 66.785 61.7495 66.785 61.9691C66.785 62.1338 66.785 62.4082 66.785 62.9022V65.0977C66.785 65.7015 66.785 65.976 66.785 66.2504C66.785 66.47 66.9488 66.5248 67.4403 66.5248V66.7444C67.1126 66.7444 66.6758 66.7444 66.2935 66.7444C65.9659 66.7444 65.4744 66.7444 65.2014 66.7444V66.5248C65.7474 66.5248 65.8566 66.47 65.8566 66.2504C65.8566 66.0857 65.9113 65.7564 65.9113 65.0977V62.9571H65.9659Z" fill="white"/>
<path d="M70.3344 61.4751C70.4982 61.4751 70.8805 61.4751 71.1535 61.4751C71.4265 61.4751 71.645 61.4751 71.8088 61.4751C71.8634 61.5849 72.0272 61.8044 72.2457 62.1887C72.4641 62.5729 73.3924 63.8902 74.6484 65.6466C74.6484 63.2315 74.5938 62.3533 74.5938 62.1338C74.5392 61.8593 74.4846 61.8044 74.1569 61.7495H73.7201L73.7747 61.53C74.1023 61.53 74.4846 61.53 74.8122 61.53C75.1399 61.53 75.4675 61.53 75.6859 61.53V61.7495C75.5221 61.7495 75.3583 61.8044 75.2491 61.8044C75.1399 61.8593 75.0306 61.9142 75.0306 62.0789C74.976 62.4082 74.9214 63.3962 74.9214 64.6586V66.7993C74.8122 66.7993 74.5392 66.8542 74.43 66.9091C73.6655 65.7564 72.3549 63.7255 71.3719 62.2984C71.3719 64.1646 71.3719 65.8662 71.4265 66.1955C71.4812 66.4151 71.5358 66.47 71.6996 66.5248C71.8634 66.5248 72.0818 66.5797 72.2457 66.5797V66.7993C71.9726 66.7993 71.5904 66.7993 71.1535 66.7993C70.7713 66.7993 70.4436 66.7993 70.2798 66.7993V66.5797C70.389 66.5797 70.5528 66.5797 70.7166 66.5248C70.9351 66.47 70.9897 66.3602 70.9897 66.1406C71.0443 65.8113 71.0989 64 71.0989 62.0789C71.0989 61.9691 71.0443 61.9691 70.9897 61.9142C70.9351 61.8593 70.8259 61.8044 70.662 61.8044L70.2798 61.7495V61.4751H70.3344Z" fill="white"/>
<path d="M82.7303 63.2865C82.6757 62.2436 82.1843 61.6398 81.3105 61.6398C80.8191 61.6398 80.3822 61.8045 80.0546 62.2985C79.7269 62.7376 79.5631 63.4512 79.5631 64.1647C79.5631 64.8783 79.7269 65.482 80 65.9211C80.3276 66.4151 80.8191 66.6347 81.3652 66.6347C81.9112 66.6347 82.2389 66.4151 82.2935 66.1407C82.3481 65.8663 82.3481 65.4271 82.3481 65.0429C82.3481 64.5489 82.2935 64.494 81.8566 64.494L81.4198 64.4392V64.2196C81.6928 64.2196 82.2935 64.2196 82.6757 64.2196C83.058 64.2196 83.4402 64.2196 83.6587 64.2196V64.4392C83.2218 64.494 83.1672 64.5489 83.1672 64.7136C83.1126 65.0429 83.1672 65.3723 83.1672 65.5918C83.1672 66.0309 83.1672 66.2505 83.2218 66.4151C83.058 66.47 82.6211 66.5798 82.4027 66.6347C82.1297 66.7445 81.6928 66.7994 81.3105 66.7994C80.3276 66.7994 79.6723 66.5249 79.2355 65.976C78.9078 65.5369 78.6894 64.8783 78.6894 64.1098C78.6894 63.0121 79.1262 62.1338 79.9454 61.6398C80.3822 61.3654 80.8191 61.2556 81.4198 61.2556C82.1843 61.2556 82.6211 61.5301 82.8396 61.6947L83.0034 61.2556L83.2218 61.3105C83.1672 61.5849 83.058 62.4632 83.1126 63.1218H82.7303V63.2865Z" fill="white"/>
<path d="M33.5836 31.4511C30.8532 31.4511 28.0682 31.2864 25.174 30.9022C24.5733 30.8473 24.1365 30.2435 24.1911 29.6397C24.2457 29.1457 25.447 17.2898 38.8805 8.17833C45.9795 3.34814 54.389 0.933046 62.6894 1.26238L60.9965 3.51281C53.2423 3.18348 46.8532 5.54368 40.1911 10.0994C29.9795 17.0154 27.3037 25.6878 26.6484 28.7615C29.7064 29.0909 32.7098 29.2555 35.5494 29.1457C44.2866 28.8164 52.9146 26.3464 60.5051 22.0102C68.0955 17.674 73.6655 12.8987 78.3617 5.54368L81.2559 5.37902C76.3413 13.0634 69.5153 19.4854 61.5972 24.0411C53.7337 28.542 44.7781 31.0668 35.6587 31.4511C34.9488 31.4511 34.2935 31.4511 33.5836 31.4511Z" fill="white"/>
<path d="M44.7781 34.8542C41.2832 26.0172 39.9181 13.3928 42.2662 4.22641L43.3583 0L44.5051 4.17153C47.2901 14.1612 55.5358 23.3825 65.0375 27.9382L62.6348 29.3105C54.5529 25.1938 47.2901 17.7839 43.686 8.83705C42.5392 16.3568 44.2867 27.3894 47.0716 34.4151L44.7781 34.8542Z" fill="white"/>
<path d="M43.1945 9.71519C43.0307 10.3739 42.43 11.3618 42.0478 11.9656C41.6109 12.6243 42.3208 13.2281 42.9761 13.1732C43.959 13.0085 44.6689 12.3498 45.5973 11.9656C45.2696 11.6363 44.942 11.307 44.6143 10.9776C44.2867 12.2949 43.1945 13.6672 42.43 14.7649C41.9932 15.3687 42.7031 16.1371 43.3584 15.9725C44.0136 15.8078 44.4505 15.4785 44.5051 15.8078C44.5051 15.8627 43.4676 17.2898 43.5768 17.1251C43.0853 17.8387 42.5939 18.4974 42.5392 19.4305C42.4846 19.8696 42.9215 20.2538 43.3584 20.2538C44.9966 20.2538 46.5256 18.8267 47.8908 18.1131C47.5085 17.7289 47.1809 17.3996 46.7986 17.0154C45.7611 19.0462 44.0136 20.638 43.3037 22.7787C43.1399 23.2727 43.5768 23.8215 44.0683 23.8215C45.8157 23.7118 47.3447 22.2298 48.8737 21.5162C48.4915 21.2967 48.0546 21.0771 47.6723 20.8027C47.7816 22.0651 45.9795 23.3824 45.8703 24.7546C45.8157 25.3035 46.4164 25.6329 46.9078 25.5231C48.7099 25.1937 50.6758 23.602 52.587 23.7118C52.314 23.4373 52.0409 23.1629 51.7679 22.8884C51.5495 23.4922 51.1126 24.0411 50.5119 24.4253C49.7474 25.1389 50.8942 26.2915 51.6587 25.578C52.4778 24.8095 53.2423 24.0411 53.3515 22.8884C53.4061 22.4493 52.9693 22.12 52.5324 22.0651C50.4573 21.9553 48.4369 23.5471 46.4164 23.9313C46.744 24.2058 47.0717 24.4253 47.4539 24.6998C47.5631 23.2727 49.3652 22.2847 49.256 20.7478C49.2014 20.0891 48.6007 19.7598 48.0546 20.0342C46.9078 20.5831 45.3788 22.0651 44.0683 22.12C44.3413 22.4493 44.5597 22.7787 44.8328 23.1629C45.4334 21.2418 47.2901 19.5402 48.1638 17.7838C48.5461 17.0703 47.7816 16.3018 47.0717 16.686C46.0341 17.2349 44.5597 18.6071 43.3037 18.6071C43.5768 18.8816 43.8498 19.156 44.1229 19.4305C44.2867 17.5094 46.9078 16.5214 46.5256 14.4905C46.471 14.1612 46.0887 13.8867 45.7611 13.8867C44.7235 13.9416 43.8498 14.216 42.8669 14.4356C43.1945 14.8198 43.4676 15.204 43.7952 15.6431C44.6689 14.4356 45.7611 12.9536 46.1433 11.4716C46.2526 10.9227 45.7611 10.2641 45.1604 10.4836C44.2867 10.813 43.4676 11.5265 42.5392 11.6912C42.8669 12.0754 43.1399 12.4596 43.4676 12.8987C44.0136 12.0754 44.5051 11.1972 44.7781 10.2641C45.0512 9.1663 43.4676 8.7272 43.1945 9.71519Z" fill="white"/>
<path d="M32.9283 47.3688C32.9283 45.6123 32.8191 44.5146 32.7644 44.0755C32.7098 43.8559 32.6006 43.6912 32.2184 43.6912H31.1262V43.0326C32.1092 42.9777 33.4743 42.8679 34.3481 42.5935L34.4027 42.7032C34.4573 43.4168 34.5665 44.789 34.5665 45.2281H34.6211C35.2764 43.9108 36.2593 42.5386 37.8976 42.5386C38.9897 42.5386 39.5358 43.3619 39.5358 44.0206C39.5358 44.9537 38.8805 45.283 38.4982 45.283C38.1706 45.283 37.9522 45.1732 37.8429 44.8988C37.6791 44.2401 37.4607 43.9108 36.8054 43.9108C35.9317 43.9108 35.1672 45.283 34.8395 46.5454C34.7303 46.9845 34.6757 47.4785 34.6757 48.0274C34.6757 51.211 34.6757 52.3087 34.7303 53.0223C34.7303 53.626 34.9487 53.7358 36.9692 53.7907L36.86 54.5043C36.0409 54.5043 34.8395 54.4494 33.7474 54.4494C32.6552 54.4494 31.8907 54.5043 30.9624 54.5043L31.017 53.7907C32.4368 53.7358 32.7098 53.6261 32.7644 53.1321C32.8191 52.5832 32.8737 51.3207 32.8737 49.729V47.3688H32.9283Z" fill="white"/>
<path d="M48.5461 54.5043C47.8362 54.5043 46.8532 54.4494 45.7611 54.4494C44.6143 54.4494 43.8498 54.5043 43.0307 54.5043L43.0853 53.7907C44.7235 53.7358 44.942 53.5712 44.942 53.0772C44.9966 52.5283 45.0512 51.3756 45.0512 49.729V46.765C45.0512 45.1732 44.9966 44.3499 44.9966 43.9657C44.942 43.6363 44.6689 43.5815 43.1399 43.6363L43.1945 42.9777C44.2867 42.9228 45.8703 42.813 46.9078 42.5386C46.9078 43.1972 46.8532 44.8439 46.8532 46.6552V49.7839C46.8532 51.5403 46.8532 52.5283 46.9078 53.1321C46.9078 53.6809 47.2355 53.7907 48.6553 53.8456L48.5461 54.5043Z" fill="white"/>
<path d="M55.1536 51.211C55.1536 52.5283 55.9181 53.5712 57.1741 53.5712C58.5938 53.5712 59.5222 52.7478 60.0683 51.5403C60.1775 51.211 60.2321 50.7719 60.2321 50.4974V47.4785C59.4676 47.9177 57.7747 48.6312 56.628 49.1801C55.8089 49.6192 55.1536 50.0034 55.1536 51.211ZM60.2321 45.5574C60.2321 44.4597 59.6314 43.2521 57.884 43.2521C56.1365 43.2521 55.372 44.1303 55.372 45.283C55.372 45.5574 55.4266 45.8868 55.4812 46.0514C55.5358 46.2161 55.4266 46.4357 55.2628 46.5454C55.099 46.6552 54.8805 46.765 54.5529 46.765C54.0614 46.765 53.6246 46.4905 53.6246 45.6672C53.6246 44.295 55.4812 42.5386 58.2662 42.5386C60.3413 42.5386 61.2696 43.4717 61.5973 43.9657C61.8157 44.295 61.9795 44.9537 61.9795 45.4477V52.4185C61.9795 53.5163 62.3072 53.6809 62.6894 53.6809C63.1263 53.6809 63.5085 53.187 63.7816 52.0892L64.4369 52.3087C64.1092 54.2298 63.0717 54.8336 62.0887 54.8336C60.7235 54.8336 60.2867 53.9554 60.2321 52.8027C59.0307 54.1201 57.6109 54.8336 56.3003 54.8336C54.2799 54.8336 53.0785 53.3516 53.0785 51.5403C53.0785 50.5523 53.4607 49.5643 54.6075 49.1252C56.4642 48.3019 59.3037 47.3688 60.2321 46.6552V45.5574Z" fill="white"/>
<path d="M2.02086 51.211C2.02086 52.5283 2.78537 53.5712 4.04134 53.5712C5.46114 53.5712 6.38946 52.7478 6.93554 51.5403C7.04475 51.211 7.09936 50.7719 7.09936 50.4974V47.4785C6.33486 47.9177 4.64202 48.6312 3.49527 49.1801C2.67615 49.6192 2.02086 50.0034 2.02086 51.211ZM7.15397 45.5574C7.15397 44.4597 6.55329 43.2521 4.80585 43.2521C3.05841 43.2521 2.2939 44.1303 2.2939 45.283C2.2939 45.5574 2.34851 45.8868 2.40312 46.0514C2.45772 46.2161 2.34851 46.4357 2.18469 46.5454C2.02086 46.6552 1.80243 46.765 1.47479 46.765C0.98332 46.765 0.54646 46.4905 0.54646 45.6672C0.54646 44.295 2.40312 42.5386 5.1881 42.5386C7.26318 42.5386 8.19151 43.4717 8.51916 43.9657C8.73759 44.295 8.90141 44.9537 8.90141 45.4477V52.4185C8.90141 53.5163 9.22905 53.6809 9.61131 53.6809C10.0482 53.6809 10.4304 53.187 10.7035 52.0892L11.3587 52.3087C11.0311 54.2298 9.99356 54.8336 9.01062 54.8336C7.64544 54.8336 7.20858 53.9554 7.15397 52.8027C5.9526 54.1201 4.53281 54.8336 3.27684 54.8336C1.25636 54.8336 0.0549927 53.3516 0.0549927 51.5403C0.0549927 50.5523 0.437245 49.5643 1.584 49.1252C3.44066 48.3019 6.28025 47.3688 7.20858 46.6552V45.5574H7.15397Z" fill="white"/>
<path d="M86.7167 51.211C86.7167 52.5283 87.4812 53.5712 88.7372 53.5712C90.157 53.5712 91.0853 52.7478 91.6314 51.5403C91.7406 51.211 91.7952 50.7719 91.7952 50.4974V47.4785C91.0307 47.9177 89.3379 48.6312 88.1911 49.1801C87.372 49.6192 86.7167 50.0034 86.7167 51.211ZM91.7952 45.5574C91.7952 44.4597 91.1945 43.2521 89.4471 43.2521C87.6996 43.2521 86.9351 44.1303 86.9351 45.283C86.9351 45.5574 86.9897 45.8868 87.0443 46.0514C87.099 46.2161 86.9897 46.4357 86.8259 46.5454C86.6621 46.6552 86.4437 46.765 86.116 46.765C85.6246 46.765 85.1877 46.4905 85.1877 45.6672C85.1877 44.295 87.0443 42.5386 89.8293 42.5386C91.9044 42.5386 92.8328 43.4717 93.1604 43.9657C93.3788 44.295 93.5427 44.9537 93.5427 45.4477V52.4185C93.5427 53.5163 93.8703 53.6809 94.2526 53.6809C94.6894 53.6809 95.0717 53.187 95.3447 52.0892L96 52.3087C95.6723 54.2298 94.6348 54.8336 93.6519 54.8336C92.2867 54.8336 91.8498 53.9554 91.7952 52.8027C90.5938 54.1201 89.174 54.8336 87.9181 54.8336C85.8976 54.8336 84.6962 53.3516 84.6962 51.5403C84.6962 50.5523 85.0785 49.5643 86.2252 49.1252C88.1365 48.3019 90.9215 47.3688 91.8498 46.6552V45.5574H91.7952Z" fill="white"/>
<path d="M67.9317 53.7907C69.3515 53.7358 69.6245 53.6809 69.6791 53.0223C69.7337 52.199 69.7337 51.211 69.7337 49.8936V47.5334C69.7337 46.0514 69.7337 44.8439 69.6791 44.1303C69.6791 43.7461 69.4607 43.6912 67.9317 43.6912L67.9863 43.0326C69.0785 43.0326 70.2798 42.8679 71.3174 42.6483C71.372 43.1423 71.4266 44.3499 71.4812 44.7341C72.4095 43.7461 73.7201 42.5386 75.686 42.5386C77.488 42.5386 78.3617 43.3619 78.7986 44.2401C79.017 44.6792 79.1262 45.283 79.1262 45.9417V53.1321C79.1262 53.7358 79.2901 53.7358 80.9829 53.8456L80.9283 54.5592C80.2184 54.5592 79.2354 54.5043 78.1433 54.5043C77.1058 54.5043 76.3413 54.5592 75.6314 54.5592L75.686 53.8456C76.9965 53.7907 77.2696 53.6809 77.3242 53.1869C77.3788 52.5832 77.4334 51.2658 77.4334 49.1252C77.4334 45.8319 77.3788 45.5026 77.1604 45.0086C76.8327 44.2401 76.1774 43.801 75.1399 43.801C73.6109 43.801 72.5733 44.5695 71.8634 45.777C71.645 46.1612 71.5904 46.6003 71.5904 47.259V50.3876C71.5904 51.5403 71.5904 52.6381 71.645 53.1869C71.6996 53.7358 71.918 53.9005 73.4471 53.9005L73.3924 54.614C72.6825 54.614 71.4266 54.5592 70.6075 54.5592C69.6791 54.5592 68.86 54.614 68.0955 54.614V53.7907H67.9317Z" fill="white"/>
<path d="M20.6416 43.6913C19.9863 43.6913 19.6586 43.6913 18.7849 43.7461V52.1441C18.7849 53.4614 19.4402 53.681 20.9146 53.681C22.9351 53.681 25.3378 51.9245 25.3378 48.7959C25.2832 45.777 23.4266 43.6913 20.6416 43.6913ZM21.0784 54.3396L18.3481 54.2847L15.8361 54.3396V53.7907C17.0375 53.7907 17.2013 53.4614 17.2013 52.4185V44.5695C17.2013 43.5815 16.8737 43.5266 15.8361 43.5266V42.9777L18.1296 43.0326L20.7508 42.9777C23.645 42.9228 26.7576 44.2401 27.1945 48.1921C27.5767 52.0343 24.3549 54.3945 21.0784 54.3396Z" fill="white"/>
</g>
<defs>
<clipPath id="clip0">
<rect width="96" height="66.9091" fill="white"/>
</clipPath>
</defs>
</svg>
