<svg width="132" height="99" viewBox="0 0 132 99" fill="none" xmlns="http://www.w3.org/2000/svg">
<path opacity="0.1" d="M26.8352 99C18.8571 99 12.3297 96.3407 7.25275 91.022C2.41758 85.7033 0 78.5714 0 69.6264C0 53.9121 5.1978 40.2527 15.5934 28.6484C26.2308 17.0439 38.9231 7.4945 53.6703 0L57.2967 6.16482C51.2528 10.033 45.5714 14.989 40.2527 21.033C35.1758 27.0769 31.1868 33.6044 28.2857 40.6154L38.4396 48.2308C42.5494 50.8901 45.9341 54.5165 48.5934 59.1099C51.2527 63.4615 52.5824 67.6923 52.5824 71.8022C52.5824 79.5385 50.1648 86.0659 45.3297 91.3846C40.7363 96.4615 34.5714 99 26.8352 99ZM101.538 99C93.5604 99 87.033 96.3407 81.956 91.022C77.1209 85.7033 74.7033 78.5714 74.7033 69.6264C74.7033 53.9121 79.9011 40.2527 90.2967 28.6484C100.934 17.0439 113.626 7.4945 128.374 0L132 6.16482C125.956 10.033 120.275 14.989 114.956 21.033C109.879 27.0769 105.89 33.6044 102.989 40.6154L113.143 48.2308C117.253 50.8901 120.637 54.5165 123.297 59.1099C125.956 63.4615 127.286 67.6923 127.286 71.8022C127.286 79.5385 124.868 86.0659 120.033 91.3846C115.44 96.4615 109.275 99 101.538 99Z" fill="#8B8C8C"/>
</svg>
