<svg width="16" height="16" viewBox="0 0 16 16" fill="none" xmlns="http://www.w3.org/2000/svg">
<path opacity="0.2" d="M12.2929 4.29243L5.99992 10.5854L3.70692 8.29243C3.51832 8.11027 3.26571 8.00948 3.00352 8.01176C2.74132 8.01403 2.49051 8.1192 2.3051 8.30461C2.11969 8.49002 2.01452 8.74083 2.01224 9.00303C2.00997 9.26523 2.11076 9.51783 2.29292 9.70643L5.29292 12.7064C5.48045 12.8939 5.73475 12.9992 5.99992 12.9992C6.26508 12.9992 6.51939 12.8939 6.70692 12.7064L13.7069 5.70643C13.8891 5.51783 13.9899 5.26523 13.9876 5.00303C13.9853 4.74083 13.8801 4.49002 13.6947 4.30461C13.5093 4.1192 13.2585 4.01403 12.9963 4.01176C12.7341 4.00948 12.4815 4.11027 12.2929 4.29243Z" fill="#10304C"/>
</svg>
