<svg width="518" height="291" viewBox="0 0 518 291" fill="none" xmlns="http://www.w3.org/2000/svg">
<ellipse cx="451" cy="63.7679" rx="67" ry="63.3084" fill="white"/>
<path d="M441.988 41.7675L435.925 32.9043L423.295 51.3429" stroke="#10304C" stroke-miterlimit="10"/>
<path d="M460.011 41.7675L466.075 32.9043L478.704 51.3429" stroke="#10304C" stroke-miterlimit="10"/>
<path d="M438.438 47.1489H463.563" stroke="#10304C" stroke-miterlimit="10"/>
<path d="M424.887 67.6291L451 28.1562L477.113 67.6291" stroke="#10304C" stroke-miterlimit="10" stroke-linecap="square"/>
<path d="M414.016 99.3784C416.392 99.3645 418.739 98.8782 420.903 97.9511C423.068 97.024 425.001 95.6768 426.578 93.9972C429.511 97.1277 433.636 99.0346 438.051 99.3015C442.467 99.5683 446.815 98.1735 450.146 95.4216C450.698 94.9632 451.218 94.4715 451.703 93.9497C454.63 97.0917 458.754 99.0106 463.174 99.2865C467.594 99.5623 471.949 98.1727 475.288 95.4216L475.991 94.8044C479.112 97.7197 483.328 99.3474 487.716 99.3309" stroke="#009FDA" stroke-miterlimit="10" stroke-linecap="square"/>
<path d="M414.016 80.3857C416.392 80.3719 418.739 79.8855 420.903 78.9584C423.068 78.0313 425.001 76.6841 426.578 75.0045C429.511 78.135 433.636 80.0419 438.051 80.3088C442.467 80.5756 446.815 79.1809 450.146 76.4289C450.698 75.9705 451.218 75.4788 451.703 74.957C454.63 78.0991 458.754 80.0179 463.174 80.2938C467.594 80.5696 471.949 79.18 475.288 76.4289L475.991 75.8117C479.112 78.727 483.328 80.3548 487.716 80.3382" stroke="#009FDA" stroke-miterlimit="10" stroke-linecap="square"/>
<path d="M471.854 59.6839C473.06 59.0803 474.184 58.3417 475.204 57.484L475.907 56.8667C479.028 59.782 483.244 61.4098 487.632 61.3933" stroke="#009FDA" stroke-miterlimit="10" stroke-linecap="square"/>
<path d="M414.016 61.3934C416.392 61.3795 418.739 60.8932 420.903 59.9661C423.068 59.039 425.001 57.6918 426.578 56.0122C427.702 57.2542 429.025 58.3223 430.498 59.1776" stroke="#009FDA" stroke-miterlimit="10" stroke-linecap="square"/>
<path d="M14.0672 80.3664C7.40755 85.7666 8.43253 91.3175 17.1872 92.8161H101.091C106.719 93.07 118.475 84.4941 131.981 72.3071C131.129 74.2113 108.612 80.3664 14.0672 80.3664Z" stroke="#10304C" stroke-linejoin="round"/>
<path d="M12.9273 76.3504C7.17979 78.4865 10.5325 79.7326 12.9273 80.0886C88.0548 80.9431 123.6 75.1043 131.982 72.0782C129.108 69.0876 104.784 66.9159 92.9812 66.2038L77.5862 58.1934C76.7652 60.3295 72.4546 61.5756 70.4019 61.9316C60.5491 61.9316 46.7962 70.4761 41.1514 74.7483C37.2171 75.2823 29.4512 76.2436 29.8617 75.8164C30.2723 75.3892 29.6907 73.8583 29.3486 73.1462C26.2696 73.3242 18.6747 74.2143 12.9273 76.3504Z" stroke="#10304C" stroke-linejoin="round"/>
<path d="M71.554 64.5055C57.9046 65.4073 48.6326 72.3957 45.7028 75.7772C61.4203 74.8754 73.9668 72.7714 78.2754 71.8321L71.554 64.5055Z" stroke="#009FDA" stroke-linejoin="round"/>
<path d="M80.8605 71.8321L74.1392 63.3784L79.3094 61.124L91.718 67.887L87.5818 70.7049L80.8605 71.8321Z" stroke="#009FDA" stroke-linejoin="round"/>
<path d="M38.4615 30.5091C38.4615 42.1574 19.9412 61.1768 19.9412 61.1768C19.9412 61.1768 1.4209 42.1574 1.4209 30.5091C1.4209 18.5669 10.9919 11.6367 19.9412 11.6367C28.8905 11.6367 38.4615 18.5669 38.4615 30.5091Z" stroke="#009FDA" stroke-miterlimit="10" stroke-linecap="square"/>
<path fill-rule="evenodd" clip-rule="evenodd" d="M14.0695 30.0747L15.2485 32.2116H12.8906L14.0695 30.0747Z" fill="#10304C" stroke="#10304C" stroke-width="0.3"/>
<path d="M25.8212 32.0214H24.1423L24.9817 30.5L25.8212 32.0214Z" fill="black" stroke="black" stroke-width="0.3"/>
<path fill-rule="evenodd" clip-rule="evenodd" d="M24.9818 30.0747L26.1608 32.2116H23.8029L24.9818 30.0747Z" fill="#10304C" stroke="#10304C" stroke-width="0.3"/>
<path fill-rule="evenodd" clip-rule="evenodd" d="M19.106 29.7381V28.168H19.9454V29.7381H21.6243V30.4988H19.9454V36.5356C20.7589 36.4148 21.8003 36.1038 22.6859 35.5087C23.729 34.8077 24.5622 33.7113 24.5622 32.0202H25.4016C25.4016 33.9805 24.4161 35.293 23.1859 36.1198C22.1254 36.8324 20.8883 37.183 19.9454 37.3051V37.7255H19.106V37.3051C18.1632 37.183 16.9261 36.8324 15.8656 36.1198C14.6353 35.293 13.6498 33.9805 13.6498 32.0202H14.4893C14.4893 33.7113 15.3225 34.8077 16.3656 35.5087C17.2512 36.1038 18.2926 36.4148 19.106 36.5356V30.4988H17.4272V29.7381H19.106Z" fill="#10304C" stroke="#10304C" stroke-width="0.3"/>
<path fill-rule="evenodd" clip-rule="evenodd" d="M19.5257 27.076C20.2211 27.076 20.7848 26.5652 20.7848 25.935C20.7848 25.3048 20.2211 24.7939 19.5257 24.7939C18.8303 24.7939 18.2665 25.3048 18.2665 25.935C18.2665 26.5652 18.8303 27.076 19.5257 27.076ZM19.5257 27.8368C20.6846 27.8368 21.6242 26.9853 21.6242 25.935C21.6242 24.8847 20.6846 24.0332 19.5257 24.0332C18.3667 24.0332 17.4271 24.8847 17.4271 25.935C17.4271 26.9853 18.3667 27.8368 19.5257 27.8368Z" fill="#10304C" stroke="#10304C" stroke-width="0.3"/>
<path d="M19.5184 40.6164C24.5159 40.6164 28.5671 36.4881 28.5671 31.3956C28.5671 26.3031 24.5159 22.1748 19.5184 22.1748C14.5209 22.1748 10.4696 26.3031 10.4696 31.3956C10.4696 36.4881 14.5209 40.6164 19.5184 40.6164Z" stroke="#009FDA" stroke-miterlimit="10" stroke-linecap="square"/>
<path d="M436.674 124.821C430.319 162.596 337.924 243.638 239.08 230.639C202.272 225.798 108.362 191.787 88.558 122.088" stroke="black" stroke-opacity="0.3" stroke-width="2" stroke-linecap="round" stroke-linejoin="round" stroke-dasharray="10 10"/>
</svg>
