<svg width="96" height="96" viewBox="0 0 96 96" fill="none" xmlns="http://www.w3.org/2000/svg">
<path d="M3.75 33.75C6.53477 33.75 9.20549 32.6438 11.1746 30.6746C13.1438 28.7055 14.25 26.0348 14.25 23.25C14.25 26.0348 15.3562 28.7055 17.3254 30.6746C19.2945 32.6438 21.9652 33.75 24.75 33.75" stroke="#009FDA" stroke-width="2" stroke-miterlimit="10"/>
<path d="M3.75 33.75C6.53477 33.75 9.20549 34.8562 11.1746 36.8254C13.1438 38.7945 14.25 41.4652 14.25 44.25C14.25 41.4652 15.3562 38.7945 17.3254 36.8254C19.2945 34.8562 21.9652 33.75 24.75 33.75" stroke="#009FDA" stroke-width="2" stroke-miterlimit="10"/>
<path d="M72.75 33.75C75.5348 33.75 78.2055 32.6438 80.1746 30.6746C82.1438 28.7055 83.25 26.0348 83.25 23.25C83.25 26.0348 84.3562 28.7055 86.3254 30.6746C88.2945 32.6438 90.9652 33.75 93.75 33.75" stroke="#009FDA" stroke-width="2" stroke-miterlimit="10"/>
<path d="M72.75 33.75C75.5348 33.75 78.2055 34.8562 80.1746 36.8254C82.1438 38.7945 83.25 41.4652 83.25 44.25C83.25 41.4652 84.3562 38.7945 86.3254 36.8254C88.2945 34.8562 90.9652 33.75 93.75 33.75" stroke="#009FDA" stroke-width="2" stroke-miterlimit="10"/>
<path d="M57.4242 14.5515L51.4302 13.68L48.7497 8.25L46.0692 13.68L40.0752 14.5515L44.4117 18.78L43.3887 24.75L48.7497 21.933L54.1107 24.75L53.0877 18.78L57.4242 14.5515Z" stroke="#009FDA" stroke-width="2" stroke-miterlimit="10" stroke-linecap="square"/>
<path d="M88.8661 73.0515L82.8721 72.18L80.1916 66.75L77.5096 72.18L71.5156 73.0515L75.8536 77.28L74.8291 83.25L80.1916 80.433L85.5526 83.25L84.5281 77.28L88.8661 73.0515Z" stroke="#009FDA" stroke-width="2" stroke-miterlimit="10" stroke-linecap="square"/>
<path d="M25.9242 71.5515L19.9302 70.68L17.2497 65.25L14.5692 70.68L8.5752 71.5515L12.9117 75.78L11.8887 81.75L17.2497 78.933L22.6107 81.75L21.5877 75.78L25.9242 71.5515Z" stroke="#009FDA" stroke-width="2" stroke-miterlimit="10" stroke-linecap="square"/>
<path d="M71.25 44.25C68.3636 44.8936 65.6557 46.1691 63.3214 47.9847C60.9871 49.8003 59.0843 52.1108 57.75 54.75" stroke="#10304C" stroke-width="2" stroke-miterlimit="10" stroke-linecap="square"/>
<path d="M26.25 44.25C29.1364 44.8936 31.8443 46.1691 34.1786 47.9847C36.5129 49.8003 38.4157 52.1108 39.75 54.75" stroke="#10304C" stroke-width="2" stroke-miterlimit="10" stroke-linecap="square"/>
<path d="M26.25 63.7503C28.6748 62.9994 31.2332 62.7814 33.75 63.1113C40.2945 63.9978 48.75 69.3003 48.75 90.7503" stroke="#10304C" stroke-width="2" stroke-miterlimit="10" stroke-linecap="square"/>
<path d="M71.25 63.7503C68.8252 62.9994 66.2668 62.7814 63.75 63.1113C57.2055 63.9978 48.75 69.3003 48.75 90.7503" stroke="#10304C" stroke-width="2" stroke-miterlimit="10" stroke-linecap="square"/>
<path d="M48.75 33.75V60.75" stroke="#10304C" stroke-width="2" stroke-miterlimit="10" stroke-linecap="square"/>
</svg>
