<svg width="26" height="26" viewBox="0 0 26 26" fill="none" xmlns="http://www.w3.org/2000/svg">
<path d="M1.40967 13.0411C1.40967 19.4301 6.57008 24.6725 13.0411 24.6725C19.4301 24.6725 24.6725 19.5121 24.6725 13.0411C24.6725 6.65199 19.5121 1.40967 13.0411 1.40967C6.57008 1.40967 1.40967 6.57008 1.40967 13.0411Z" stroke="white" stroke-miterlimit="10"/>
<path d="M17.6282 11.4847C17.6282 11.5666 17.6282 11.7304 17.6282 11.8123C17.6282 14.925 15.2528 18.611 10.8296 18.611C9.51898 18.611 8.2084 18.2014 7.14355 17.5461C7.30738 17.5461 7.55311 17.5461 7.71693 17.5461C8.86369 17.5461 9.84663 17.1366 10.6657 16.5632C9.60089 16.5632 8.78178 15.826 8.45414 14.925C8.61796 14.925 8.78178 15.0069 8.86369 15.0069C9.10943 15.0069 9.27325 15.0069 9.51898 14.925C8.45413 14.6792 7.63502 13.7782 7.63502 12.5495C7.96267 12.7133 8.29031 12.7953 8.69987 12.8772C8.04458 12.4676 7.63502 11.7304 7.63502 10.9113C7.63502 10.5017 7.71693 10.0922 7.96267 9.68263C9.10942 11.157 10.9115 12.0581 12.8773 12.14C12.8773 11.9761 12.7954 11.8123 12.7954 11.5666C12.7954 10.256 13.8603 9.19116 15.1709 9.19116C15.8261 9.19116 16.4814 9.51881 16.891 9.92836C17.4644 9.84645 17.9558 9.60072 18.3654 9.35498C18.2016 9.92836 17.792 10.3379 17.3006 10.6656C17.792 10.5837 18.2016 10.5017 18.693 10.256C18.5292 10.7475 18.1197 11.157 17.6282 11.4847Z" fill="white"/>
</svg>
