<svg width="133" height="34" viewBox="0 0 133 34" fill="none" xmlns="http://www.w3.org/2000/svg">
<path d="M26.8239 29.5568C26.8239 30.9716 26.8535 31.7407 26.8817 32.0901C26.9113 32.3568 26.9846 32.4691 27.2609 32.4963C27.7416 32.5531 27.946 32.579 28.3689 32.5938L28.3393 33C27.8728 33 26.8972 32.958 25.8907 32.958C25.1915 32.958 24.3907 33 23.7057 33L23.662 32.6086C23.9679 32.5938 24.2442 32.5531 24.6967 32.5099C25.0026 32.484 25.1632 32.3988 25.1774 32.1321C25.2211 31.6556 25.2352 31.0259 25.2352 29.5432V26.5469C25.2352 25.6222 25.2352 24.937 25.2211 24.5593C23.356 24.5593 23.1812 24.6864 22.9332 25.2321C22.7005 25.721 22.554 26.2259 22.3933 26.7852L22 26.6877C22.1465 25.9741 22.2622 24.616 22.3213 24C22.7584 24.0988 23.7057 24.1395 25.4396 24.1395H26.635C28.7468 24.1395 29.4473 24.1247 30 24C29.9717 24.2247 29.8252 25.5123 29.8689 26.5753L29.4614 26.7025C29.3599 25.8617 29.2134 25.3173 29.0977 25.0494C28.9512 24.6716 28.7031 24.5321 26.838 24.5605C26.838 24.9247 26.8239 25.6667 26.8239 26.4222V29.5568Z" fill="white"/>
<path d="M38.1956 26.9606C38.1956 25.6343 38.1824 25.1019 38.168 24.795C38.1548 24.599 38.0866 24.5016 37.8158 24.4733L37 24.3895L37.0683 24C37.3678 24 38.1285 24.0407 38.7802 24.0407C39.445 24.0407 40.1926 24 40.8982 24C42.2291 24 42.8269 24.2095 43.2078 24.5867C43.6008 24.9638 43.7373 25.5086 43.7373 26.0251C43.7373 27.5226 42.6364 28.0945 41.3606 28.304V28.3607C42.664 28.5271 43.493 29.0164 43.7098 30.2046C43.8044 30.6237 43.8595 31.1697 43.9003 31.6294C43.9542 32.2445 44.171 32.5242 44.6202 32.5242C44.7281 32.5242 44.9054 32.4971 45 32.454L44.9461 32.873C44.7688 32.9445 44.3208 33 43.9817 33C42.8544 33 42.3106 32.5242 42.2159 31.3225C42.1884 30.933 42.162 30.5546 42.1345 30.1639C42.0123 28.8648 41.333 28.5986 40.0704 28.5986H39.6763V29.9815C39.6763 31.0859 39.6894 31.6023 39.717 32.009C39.7445 32.3578 39.8667 32.4133 40.8443 32.4836L40.8035 32.8891C40.3279 32.8891 39.5001 32.8472 38.9155 32.8472C38.1824 32.8472 37.5163 32.8891 37.0276 32.8891L37.0419 32.4836C37.9236 32.4281 38.1285 32.3578 38.1417 32.0645C38.168 31.7428 38.1956 31.1574 38.1956 29.857V26.9606ZM39.6751 28.1635H40.0692C41.4409 28.1635 42.1465 27.6187 42.1465 26.1791C42.1465 25.7046 42.0386 25.272 41.8745 25.0045C41.6721 24.6841 41.3318 24.4326 40.5448 24.4326C40.286 24.4326 40.0548 24.4597 39.9194 24.5029C39.7972 24.53 39.7433 24.6002 39.729 24.7543C39.7158 24.9232 39.6751 25.4113 39.6751 26.6413V28.1635Z" fill="white"/>
<path d="M63 33C62.6286 32.9853 61.8231 32.9582 61.0025 32.9582C60.2133 32.9582 59.5948 32.9853 58.8506 33L58.8356 32.5957C59.7641 32.5257 59.9033 32.4704 59.8269 32.1779C59.6876 31.6913 59.2848 30.4919 58.9899 29.6293C58.7114 29.6146 58.0778 29.6146 57.4429 29.6146C56.8231 29.6146 56.2196 29.6146 55.9724 29.6293C55.5546 30.8127 55.3375 31.4123 55.2297 31.7884C55.074 32.3868 55.2297 32.5269 56.4981 32.5957L56.4831 33C55.9874 33 55.5082 32.9582 54.8105 32.9582C54.3463 32.9582 53.6035 33 53 33V32.5957C53.852 32.5404 54.1456 32.4421 54.4855 31.6765C54.9962 30.5485 56.6988 26.2021 57.118 25.0457C57.2723 24.6562 57.3501 24.4461 57.3815 24.2101C57.7215 24.1954 58.5257 24.1118 58.8206 24C59.5784 26.3127 61.1731 30.9515 61.7466 32.1644C61.8859 32.431 62.0552 32.5269 62.4115 32.5552L63 32.5957V33ZM56.1731 29.1267C56.4203 29.1402 56.9937 29.1402 57.5508 29.1402C58.1079 29.1402 58.6499 29.1402 58.8356 29.1267C58.4642 27.9003 57.9686 26.4233 57.5822 25.2387C57.2122 26.2426 56.763 27.4137 56.1731 29.1267Z" fill="white"/>
<path d="M70 24C70.3581 24 71.239 24.0451 71.971 24.0451C72.6267 24.0451 73.3153 24 74.0171 24L74.0909 24.4479L73.3009 24.5408C73.0467 24.5708 73.0007 24.6486 73.0599 24.8822C73.21 25.5158 74.553 29.51 75.4628 32.1264C76.4635 29.4022 77.5984 26.1357 77.8512 24.9736C77.9118 24.6964 77.8354 24.5872 77.6116 24.5558C77.343 24.5257 77.0441 24.4779 76.7307 24.4479L76.6557 24C76.9546 24 77.6261 24.0451 78.2541 24.0451C78.761 24.0451 79.2837 24 79.9105 24L80 24.4479C79.0889 24.4643 78.8506 24.6186 78.5069 25.4079C77.8789 26.8936 76.4924 30.7336 75.4154 33.97C75.1639 33.9235 74.5648 33.9536 74.3568 34C73.3706 30.8565 71.8038 26.4129 71.2811 25.1129C71.027 24.5722 70.8334 24.4779 70.0277 24.4479L70 24Z" fill="white"/>
<path d="M88.1074 24.0569C88.5088 24.0569 89.446 24.0977 90.1283 24.0977H92.403C93.286 24.0977 94.0226 24.0569 94.3165 24C94.2634 24.3921 94.2492 25.6971 94.2776 26.412L93.9152 26.4393C93.8621 26.0607 93.7535 25.5969 93.5941 25.2048C93.3675 24.6717 93.1526 24.5467 91.8683 24.5467H90.9853C90.8106 24.5467 90.7705 24.6024 90.7575 24.7719C90.7315 25.1924 90.7032 25.8653 90.7032 26.6372V28.1227C90.8508 28.1376 91.2674 28.1376 91.4669 28.1376C92.6309 28.1376 92.8315 27.8704 92.9519 26.9303H93.3002C93.2199 27.884 93.2069 29.1333 93.2742 30.0153L92.9118 30.0017C92.8044 28.9626 92.658 28.5977 91.454 28.5977C91.2132 28.5977 90.8508 28.5977 90.7032 28.6262V29.9015C90.7032 30.7562 90.7185 31.6567 90.7433 32.1453C90.7575 32.4261 90.8378 32.4953 91.9616 32.4953C93.1928 32.4953 93.5681 32.4112 93.9293 32.0191C94.2492 31.6678 94.5184 30.9393 94.6648 30.3777L95 30.4346C94.9847 30.7698 94.7191 32.6351 94.6518 33C94.1949 32.9579 93.3403 32.9295 91.801 32.9295H90.1413C89.459 32.9295 88.4686 32.9716 88 32.9716L88.0153 32.5794L88.818 32.4953C89.086 32.4805 89.1663 32.3556 89.1922 31.9907C89.2312 31.4452 89.2465 30.7426 89.2465 29.8594V26.9699C89.2465 25.9457 89.2312 25.2444 89.2194 24.8535C89.2064 24.6148 89.099 24.5294 88.7779 24.5022L88.1098 24.4453V24.0569H88.1074Z" fill="white"/>
<path d="M111 30.2306C110.872 30.8799 110.746 32.1101 110.633 33C110.346 32.9726 109.645 32.9589 108.704 32.9589C107.78 32.9439 106.584 32.9439 105.389 32.9439C104.687 32.9439 103.396 32.9863 103 32.9863V32.5762L103.893 32.5052C104.243 32.4641 104.354 32.3918 104.371 32.1525C104.419 31.7 104.466 30.7964 104.466 29.6373V26.641C104.466 25.5243 104.448 25.0731 104.434 24.7765C104.419 24.5646 104.306 24.4799 103.987 24.4649L103.159 24.4088L103.176 24C103.607 24 104.722 24.0411 105.344 24.0411C105.949 24.0411 106.665 24 107.558 24L107.606 24.4088L106.728 24.4649C106.395 24.4936 106.3 24.5783 106.284 24.8326C106.252 25.356 106.203 26.1051 106.203 27.1932V29.6797C106.203 30.8388 106.221 31.8857 106.25 32.2659C106.267 32.4204 106.363 32.5052 107.303 32.5052C108.915 32.5052 109.423 32.4204 109.791 31.9555C110.124 31.5305 110.348 30.9236 110.556 30.2169L111 30.2306Z" fill="white"/>
<path d="M45.5032 6.736C45.5032 4.317 45.3552 2.792 45.2432 2.197C45.1692 1.86 44.9822 1.675 44.4612 1.675L42.9352 1.637L42.9732 0.707001C44.3122 0.634001 46.2102 0.445998 47.4392 0.0739975L47.5502 0.185997C47.6622 1.154 47.7732 3.088 47.7732 3.684H47.8482C48.7412 1.898 50.0802 0 52.3502 0C53.8392 0 54.5842 1.115 54.5842 2.01C54.5842 3.312 53.6532 3.759 53.1322 3.759C52.6482 3.759 52.3502 3.572 52.2392 3.237C52.0532 2.418 51.7932 1.935 50.8622 1.935C49.6712 1.935 48.6292 3.796 48.1462 5.583C47.9962 6.213 47.9222 6.847 47.9222 7.589C47.9222 11.982 47.9222 13.509 47.9962 14.439C48.0342 15.258 48.2942 15.407 51.1232 15.517L50.9732 16.522C49.8572 16.522 48.1462 16.412 46.6942 16.412C45.2052 16.412 44.0902 16.522 42.8242 16.522L42.9352 15.517C44.9082 15.444 45.2432 15.258 45.3172 14.625C45.4292 13.881 45.5032 12.168 45.5032 9.937V6.736Z" fill="white"/>
<path d="M67.1329 16.522C66.1289 16.522 64.7889 16.412 63.2629 16.412C61.6999 16.412 60.6209 16.522 59.5039 16.522L59.5789 15.517C61.8119 15.444 62.1079 15.183 62.1459 14.549C62.1839 13.806 62.2959 12.205 62.2959 9.972V5.879C62.2959 3.721 62.2199 2.567 62.1839 2.01C62.1459 1.563 61.7369 1.488 59.6529 1.563L59.7269 0.632996C61.2159 0.557996 63.4489 0.372 64.8249 0C64.7889 0.93 64.7139 3.201 64.7139 5.693V9.971C64.7139 12.391 64.7509 13.767 64.8249 14.548C64.8249 15.294 65.2729 15.443 67.2069 15.516L67.1329 16.522Z" fill="white"/>
<path d="M83.2897 4.24195C83.2897 2.71695 82.4707 1.04195 80.0527 1.04195C77.6717 1.04195 76.5917 2.26995 76.5917 3.79695C76.5917 4.20795 76.6657 4.61395 76.7397 4.87495C76.8147 5.13695 76.6287 5.43295 76.4417 5.54595C76.1817 5.73195 75.9207 5.84296 75.4747 5.84296C74.8047 5.84296 74.1717 5.43296 74.1717 4.31796C74.1717 2.41895 76.7387 0.00195312 80.5717 0.00195312C83.4377 0.00195312 84.7027 1.26595 85.1857 1.97495C85.4837 2.45695 85.7077 3.31395 85.7077 4.01995V13.584C85.7077 15.073 86.1897 15.334 86.6747 15.334C87.2697 15.334 87.8267 14.664 88.1997 13.137L89.0937 13.474C88.6107 16.078 87.2327 16.933 85.8187 16.933C83.9597 16.933 83.3637 15.707 83.2527 14.142C81.5777 15.966 79.6047 16.933 77.8557 16.933C75.0647 16.933 73.4277 14.926 73.4277 12.394C73.4277 11.017 73.9477 9.67695 75.5117 9.04395C78.1157 7.92895 81.9867 6.66195 83.2887 5.65695V4.24195H83.2897ZM76.2567 12.02C76.2567 13.843 77.2997 15.2579 79.0477 15.2579C81.0197 15.2579 82.3217 14.14 83.0667 12.429C83.2547 11.982 83.2907 11.386 83.2907 10.977V6.80895C82.2117 7.44195 79.8667 8.37095 78.3037 9.15595C77.1507 9.78695 76.2577 10.346 76.2577 11.982V12.02H76.2567Z" fill="white"/>
<path d="M9.861 4.24195C9.861 2.71695 9.042 1.04195 6.624 1.04195C4.242 1.04195 3.163 2.26995 3.163 3.79695C3.163 4.20795 3.237 4.61395 3.312 4.87495C3.387 5.13695 3.2 5.43295 3.014 5.54595C2.754 5.73195 2.493 5.84296 2.047 5.84296C1.377 5.84296 0.744003 5.43296 0.744003 4.31796C0.744003 2.41895 3.312 0.00195312 7.145 0.00195312C10.011 0.00195312 11.276 1.26595 11.759 1.97495C12.057 2.45695 12.281 3.31395 12.281 4.01995V13.584C12.281 15.073 12.764 15.334 13.248 15.334C13.843 15.334 14.401 14.664 14.774 13.137L15.667 13.474C15.184 16.078 13.806 16.933 12.392 16.933C10.532 16.933 9.937 15.707 9.825 14.142C8.15 15.966 6.177 16.933 4.428 16.933C1.637 16.933 0 14.926 0 12.394C0 11.017 0.52 9.67695 2.084 9.04395C4.688 7.92895 8.559 6.66195 9.861 5.65695V4.24195ZM2.828 12.02C2.828 13.843 3.87 15.2579 5.619 15.2579C7.591 15.2579 8.894 14.14 9.638 12.429C9.825 11.982 9.861 11.386 9.861 10.977V6.80895C8.782 7.44195 6.438 8.37095 4.874 9.15595C3.721 9.78695 2.828 10.346 2.828 11.982V12.02Z" fill="white"/>
<path d="M126.893 4.24195C126.893 2.71695 126.074 1.04195 123.656 1.04195C121.274 1.04195 120.195 2.26995 120.195 3.79695C120.195 4.20795 120.269 4.61395 120.343 4.87495C120.418 5.13695 120.232 5.43295 120.045 5.54595C119.785 5.73195 119.524 5.84296 119.078 5.84296C118.408 5.84296 117.775 5.43296 117.775 4.31796C117.775 2.41895 120.342 0.00195312 124.175 0.00195312C127.041 0.00195312 128.306 1.26595 128.789 1.97495C129.087 2.45695 129.311 3.31395 129.311 4.01995V13.584C129.311 15.073 129.793 15.334 130.278 15.334C130.873 15.334 131.43 14.664 131.803 13.137L132.697 13.474C132.214 16.078 130.836 16.933 129.422 16.933C127.563 16.933 126.967 15.707 126.856 14.142C125.18 15.966 123.208 16.933 121.459 16.933C118.668 16.933 117.031 14.926 117.031 12.394C117.031 11.017 117.551 9.67695 119.115 9.04395C121.719 7.92895 125.59 6.66195 126.892 5.65695V4.24195H126.893ZM119.86 12.02C119.86 13.843 120.902 15.2579 122.651 15.2579C124.623 15.2579 125.925 14.14 126.67 12.429C126.858 11.982 126.894 11.386 126.894 10.977V6.80895C125.815 7.44195 123.47 8.37095 121.907 9.15595C120.754 9.78695 119.861 10.346 119.861 11.982V12.02H119.86Z" fill="white"/>
<path d="M93.9043 15.517C95.8403 15.444 96.2123 15.331 96.2863 14.439C96.3613 13.324 96.3983 11.945 96.3983 10.161V6.923C96.3983 4.875 96.3613 3.202 96.3233 2.27C96.2863 1.712 95.9883 1.675 93.9423 1.675L94.0163 0.746002C95.5033 0.707002 97.2173 0.520997 98.6303 0.185997C98.7043 0.891997 98.8173 2.531 98.8543 3.05C100.156 1.711 101.98 0 104.659 0C107.153 0 108.381 1.153 108.939 2.344C109.237 2.94 109.385 3.759 109.385 4.651V14.549C109.385 15.368 109.609 15.406 111.915 15.517L111.805 16.522C110.8 16.522 109.459 16.413 107.934 16.413C106.52 16.413 105.441 16.522 104.436 16.522L104.51 15.517C106.333 15.444 106.705 15.258 106.781 14.587C106.855 13.768 106.968 11.908 106.968 8.969C106.968 4.427 106.893 3.983 106.559 3.312C106.075 2.269 105.218 1.674 103.73 1.674C101.645 1.674 100.157 2.716 99.2283 4.392C98.8923 4.95 98.8183 5.507 98.8183 6.4V10.68C98.8183 12.243 98.8183 13.768 98.8923 14.514C98.9653 15.295 99.2643 15.482 101.348 15.517L101.274 16.522C100.269 16.522 98.5203 16.413 97.4043 16.413C96.1383 16.413 94.9843 16.522 93.9053 16.522V15.517H93.9043Z" fill="white"/>
<path d="M29.1291 16.2798L25.3781 16.1978L21.8691 16.2798V15.5528C23.5631 15.5528 23.7231 15.1098 23.7231 13.6568V2.84476C23.7231 1.51376 23.2791 1.43276 21.8691 1.43276V0.70476L25.0141 0.74676L28.6051 0.70476C32.6401 0.66476 36.8751 2.43976 37.4791 7.88676C38.1251 13.1328 33.6891 16.3608 29.1291 16.2798ZM28.5251 1.63476C27.6371 1.63476 27.1521 1.63475 25.9821 1.71575V13.2928C25.9821 15.1088 26.8701 15.3928 28.9281 15.3928C31.7521 15.3928 35.0601 13.0118 35.0191 8.69476C34.9391 4.49876 32.3571 1.63476 28.5251 1.63476Z" fill="white"/>
</svg>

