<svg width="80" height="80" viewBox="0 0 80 80" fill="none" xmlns="http://www.w3.org/2000/svg">
<g filter="url(#filter0_b)">
<circle cx="40" cy="40" r="40" fill="white"/>
</g>
<path d="M44.7542 51.6435H35.4712L30.0372 36.6732L16.6787 34.0593L20.0749 25.5049H59.924L63.3202 34.0593L49.7353 36.6732L44.7542 51.6435Z" stroke="#10304C" stroke-linecap="round" stroke-linejoin="round"/>
<path d="M44.9814 21.9406H50.8682L53.5852 16H59.0192" stroke="#10304C" stroke-linecap="round" stroke-linejoin="round"/>
<path d="M35.0186 21.9406H29.1318L26.4148 16H20.9808" stroke="#10304C" stroke-linecap="round" stroke-linejoin="round"/>
<path d="M33.6602 25.505L36.1507 19.802H43.8488L46.3394 25.505" stroke="#10304C" stroke-linecap="round" stroke-linejoin="round"/>
<path d="M49.6033 28.8564H57.1374C57.3593 28.8564 57.5547 29.0028 57.6172 29.2158L58.0079 30.5484C58.0899 30.8282 57.9161 31.1185 57.6308 31.1784L49.706 32.8418C49.3953 32.907 49.1033 32.6699 49.1033 32.3525V30.9703V29.3564C49.1033 29.0803 49.3271 28.8564 49.6033 28.8564ZM22.8616 28.8564H30.3957C30.6719 28.8564 30.8957 29.0803 30.8957 29.3564V30.9703V32.3525C30.8957 32.6699 30.6037 32.907 30.293 32.8418L22.3682 31.1784C22.0829 31.1185 21.9091 30.8282 21.9911 30.5484L22.3818 29.2158C22.4442 29.0028 22.6396 28.8564 22.8616 28.8564Z" stroke="#009FDA" stroke-linecap="round" stroke-linejoin="round"/>
<path d="M34.1133 36.4358H45.8869" stroke="#10304C" stroke-linecap="round" stroke-linejoin="round"/>
<path d="M35.4717 40.7129H44.5283" stroke="#10304C" stroke-linecap="round" stroke-linejoin="round"/>
<path d="M36.3779 44.99H43.6232" stroke="#10304C" stroke-linecap="round" stroke-linejoin="round"/>
<path d="M28.4531 45.7029L32.5 43.5M51.5475 45.7029L47.5 43.5M51.5475 51.1682L46.5 47.5M28.4531 51.1682L33.5 47.5" stroke="#10304C" stroke-linecap="round" stroke-linejoin="round"/>
<rect x="51.8213" y="39.312" width="11.6792" height="24.1881" rx="1.5" stroke="#10304C" stroke-linecap="round" stroke-linejoin="round"/>
<rect x="16.5" y="39.312" width="11.6792" height="24.1881" rx="1.5" stroke="#10304C" stroke-linecap="round" stroke-linejoin="round"/>
<path d="M63 44.5C63.2761 44.5 63.5 44.7239 63.5 45C63.5 45.2761 63.2761 45.5 63 45.5V44.5ZM60 45.5C59.7239 45.5 59.5 45.2761 59.5 45C59.5 44.7239 59.7239 44.5 60 44.5V45.5ZM63 50.2353C63.2761 50.2353 63.5 50.4592 63.5 50.7353C63.5 51.0114 63.2761 51.2353 63 51.2353V50.2353ZM60 51.2353C59.7239 51.2353 59.5 51.0114 59.5 50.7353C59.5 50.4592 59.7239 50.2353 60 50.2353V51.2353ZM63 56.4118C63.2761 56.4118 63.5 56.6356 63.5 56.9118C63.5 57.1879 63.2761 57.4118 63 57.4118V56.4118ZM60 57.4118C59.7239 57.4118 59.5 57.1879 59.5 56.9118C59.5 56.6356 59.7239 56.4118 60 56.4118V57.4118ZM55 47.5882C55.2761 47.5882 55.5 47.8121 55.5 48.0882C55.5 48.3644 55.2761 48.5882 55 48.5882V47.5882ZM52 48.5882C51.7239 48.5882 51.5 48.3644 51.5 48.0882C51.5 47.8121 51.7239 47.5882 52 47.5882V48.5882ZM55 53.5441C55.2761 53.5441 55.5 53.768 55.5 54.0441C55.5 54.3203 55.2761 54.5441 55 54.5441V53.5441ZM52 54.5441C51.7239 54.5441 51.5 54.3203 51.5 54.0441C51.5 53.768 51.7239 53.5441 52 53.5441V54.5441ZM55 59.5C55.2761 59.5 55.5 59.7239 55.5 60C55.5 60.2761 55.2761 60.5 55 60.5V59.5ZM52 60.5C51.7239 60.5 51.5 60.2761 51.5 60C51.5 59.7239 51.7239 59.5 52 59.5V60.5ZM63 45.5H60V44.5H63V45.5ZM63 51.2353H60V50.2353H63V51.2353ZM63 57.4118H60V56.4118H63V57.4118ZM55 48.5882H52V47.5882H55V48.5882ZM55 54.5441H52V53.5441H55V54.5441ZM55 60.5H52V59.5H55V60.5Z" fill="#10304C"/>
<path d="M17 43.5C16.7239 43.5 16.5 43.7239 16.5 44C16.5 44.2761 16.7239 44.5 17 44.5V43.5ZM20 44.5C20.2761 44.5 20.5 44.2761 20.5 44C20.5 43.7239 20.2761 43.5 20 43.5V44.5ZM17 49.6176C16.7239 49.6176 16.5 49.8415 16.5 50.1176C16.5 50.3938 16.7239 50.6176 17 50.6176V49.6176ZM20 50.6176C20.2761 50.6176 20.5 50.3938 20.5 50.1176C20.5 49.8415 20.2761 49.6176 20 49.6176V50.6176ZM17 56.2059C16.7239 56.2059 16.5 56.4297 16.5 56.7059C16.5 56.982 16.7239 57.2059 17 57.2059V56.2059ZM20 57.2059C20.2761 57.2059 20.5 56.982 20.5 56.7059C20.5 56.4297 20.2761 56.2059 20 56.2059V57.2059ZM25 46.7941C24.7239 46.7941 24.5 47.018 24.5 47.2941C24.5 47.5703 24.7239 47.7941 25 47.7941V46.7941ZM28 47.7941C28.2761 47.7941 28.5 47.5703 28.5 47.2941C28.5 47.018 28.2761 46.7941 28 46.7941V47.7941ZM25 53.1471C24.7239 53.1471 24.5 53.3709 24.5 53.6471C24.5 53.9232 24.7239 54.1471 25 54.1471V53.1471ZM28 54.1471C28.2761 54.1471 28.5 53.9232 28.5 53.6471C28.5 53.3709 28.2761 53.1471 28 53.1471V54.1471ZM25 59.5C24.7239 59.5 24.5 59.7239 24.5 60C24.5 60.2761 24.7239 60.5 25 60.5V59.5ZM28 60.5C28.2761 60.5 28.5 60.2761 28.5 60C28.5 59.7239 28.2761 59.5 28 59.5V60.5ZM17 44.5H20V43.5H17V44.5ZM17 50.6176H20V49.6176H17V50.6176ZM17 57.2059H20V56.2059H17V57.2059ZM25 47.7941H28V46.7941H25V47.7941ZM25 54.1471H28V53.1471H25V54.1471ZM25 60.5H28V59.5H25V60.5Z" fill="#10304C"/>
<defs>
<filter id="filter0_b" x="-4" y="-4" width="88" height="88" filterUnits="userSpaceOnUse" color-interpolation-filters="sRGB">
<feFlood flood-opacity="0" result="BackgroundImageFix"/>
<feGaussianBlur in="BackgroundImage" stdDeviation="2"/>
<feComposite in2="SourceAlpha" operator="in" result="effect1_backgroundBlur"/>
<feBlend mode="normal" in="SourceGraphic" in2="effect1_backgroundBlur" result="shape"/>
</filter>
</defs>
</svg>
