<svg width="48" height="48" viewBox="0 0 48 48" fill="none" xmlns="http://www.w3.org/2000/svg">
<path d="M38 16C38 24.641 24 38.75 24 38.75C24 38.75 10 24.641 10 16C10 7.141 17.235 2 24 2C30.765 2 38 7.141 38 16Z" stroke="#009FDA" stroke-width="2" stroke-miterlimit="10" stroke-linecap="square"/>
<path d="M24 20C26.2091 20 28 18.2091 28 16C28 13.7909 26.2091 12 24 12C21.7909 12 20 13.7909 20 16C20 18.2091 21.7909 20 24 20Z" stroke="#009FDA" stroke-width="2" stroke-miterlimit="10" stroke-linecap="square"/>
<path d="M13 34.8877C7 35.9437 3 37.8387 3 39.9997C3 43.3137 12.402 45.9997 24 45.9997C35.598 45.9997 45 43.3137 45 39.9997C45 37.8387 41 35.9437 35 34.8877" stroke="#10304C" stroke-width="2" stroke-miterlimit="10" stroke-linecap="square"/>
</svg>
