<svg width="26" height="26" viewBox="0 0 26 26" fill="none" xmlns="http://www.w3.org/2000/svg">
<path d="M1.40967 13.0416C1.40967 19.4306 6.57008 24.673 13.0411 24.673C19.4301 24.673 24.6725 19.5125 24.6725 13.0416C24.6725 6.65248 19.5121 1.41016 13.0411 1.41016C6.57008 1.41016 1.40967 6.57057 1.40967 13.0416Z" stroke="#009FDA" stroke-miterlimit="10"/>
<path d="M17.6282 11.4849C17.6282 11.5668 17.6282 11.7307 17.6282 11.8126C17.6282 14.9252 15.2528 18.6112 10.8296 18.6112C9.51898 18.6112 8.2084 18.2016 7.14355 17.5464C7.30738 17.5464 7.55311 17.5464 7.71693 17.5464C8.86369 17.5464 9.84663 17.1368 10.6657 16.5634C9.60089 16.5634 8.78178 15.8262 8.45414 14.9252C8.61796 14.9252 8.78178 15.0071 8.86369 15.0071C9.10943 15.0071 9.27325 15.0071 9.51898 14.9252C8.45413 14.6795 7.63502 13.7784 7.63502 12.5498C7.96267 12.7136 8.29031 12.7955 8.69987 12.8774C8.04458 12.4679 7.63502 11.7307 7.63502 10.9115C7.63502 10.502 7.71693 10.0924 7.96267 9.68287C9.10942 11.1573 10.9115 12.0583 12.8773 12.1402C12.8773 11.9764 12.7954 11.8126 12.7954 11.5668C12.7954 10.2563 13.8603 9.19141 15.1709 9.19141C15.8261 9.19141 16.4814 9.51905 16.891 9.92861C17.4644 9.8467 17.9558 9.60096 18.3654 9.35523C18.2016 9.92861 17.792 10.3382 17.3006 10.6658C17.792 10.5839 18.2016 10.502 18.693 10.2563C18.5292 10.7477 18.1197 11.1573 17.6282 11.4849Z" fill="#009FDA"/>
</svg>
