<svg width="199" height="206" viewBox="0 0 199 206" fill="none" xmlns="http://www.w3.org/2000/svg">
<path d="M70.6445 70H125.37" stroke="#009FDA" stroke-width="2" stroke-miterlimit="10"/>
<path d="M70.6445 87H125.37" stroke="#009FDA" stroke-width="2" stroke-miterlimit="10"/>
<path d="M67.9922 104H128.024" stroke="#009FDA" stroke-width="2" stroke-miterlimit="10"/>
<path d="M67.9922 121H128.024" stroke="#009FDA" stroke-width="2" stroke-miterlimit="10"/>
<path d="M52.4023 138.333H143.611" stroke="#009FDA" stroke-width="2" stroke-miterlimit="10"/>
<path d="M130.345 138.333L124.043 53H71.9712L65.3379 138.333" stroke="#10304C" stroke-width="2" stroke-miterlimit="10"/>
<path d="M153.23 154.666L143.611 138.333H52.4031L42.4531 154.666" stroke="#10304C" stroke-width="2" stroke-miterlimit="10"/>
<path d="M97.8426 32C103.338 32 107.793 27.5228 107.793 22C107.793 16.4772 103.338 12 97.8426 12C92.3473 12 87.8926 16.4772 87.8926 22C87.8926 27.5228 92.3473 32 97.8426 32Z" stroke="#009FDA" stroke-width="2" stroke-miterlimit="10"/>
<path d="M3.31641 202.666C12.6031 202.666 21.5581 198.666 27.8597 191.666C39.7997 205.333 60.3631 206.666 73.6298 194.666C74.6248 193.666 75.6197 192.666 76.6147 191.666C88.5548 205.333 109.118 206.666 122.385 194.666C123.38 193.666 124.375 192.666 125.37 191.666C137.31 205.333 157.873 206.666 171.14 194.666C171.471 194.333 172.135 193.666 172.466 193.333C178.436 199.333 186.728 202.666 195.351 202.666" stroke="#009FDA" stroke-width="2" stroke-miterlimit="10" stroke-linecap="square"/>
<path d="M3.31641 163.333C12.6031 163.333 21.5581 159.333 27.8597 152.333C39.7997 166 60.3631 167.333 73.6298 155.333C74.6248 154.333 75.6197 153.333 76.6147 152.333C88.5548 166 109.118 167.333 122.385 155.333C123.38 154.333 124.375 153.333 125.37 152.333C137.31 166 157.873 167.333 171.14 155.333C171.471 155 172.135 154.333 172.466 154C178.436 160 186.728 163.333 195.351 163.333" stroke="#009FDA" stroke-width="2" stroke-miterlimit="10" stroke-linecap="square"/>
<path d="M32.8342 25.333L9.94922 20.333" stroke="#009FDA" stroke-width="2" stroke-miterlimit="10"/>
<path d="M32.8342 64.667L9.94922 70.0003" stroke="#009FDA" stroke-width="2" stroke-miterlimit="10"/>
<path d="M29.5181 45H3.31641" stroke="#009FDA" stroke-width="2" stroke-miterlimit="10"/>
<path d="M163.18 25.333L186.065 20.333" stroke="#009FDA" stroke-width="2" stroke-miterlimit="10"/>
<path d="M163.18 64.667L186.065 70.0003" stroke="#009FDA" stroke-width="2" stroke-miterlimit="10"/>
<path d="M166.496 45H192.366" stroke="#009FDA" stroke-width="2" stroke-miterlimit="10"/>
<path d="M130.676 40.333H65.3379V52.9997H130.676V40.333Z" stroke="#10304C" stroke-width="2" stroke-miterlimit="10"/>
<path d="M118.737 40.333H76.9473V6.66634L97.8423 3.33301L118.737 6.66634V40.333Z" stroke="#10304C" stroke-width="2" stroke-miterlimit="10"/>
</svg>
