<svg width="174" height="146" viewBox="0 0 174 146" fill="none" xmlns="http://www.w3.org/2000/svg">
<path d="M106.211 81.5119L105.895 55.2699L171.623 4.5721L117.988 61.4929L112.099 71.5024L106.211 81.5119ZM106.211 81.5119L125.223 65.9582" stroke="#10304C" stroke-width="2"/>
<path d="M105.896 55.27L75.0007 41.6266L171.624 4.57219L153.017 80.9417L125.223 65.9583L121.606 63.7256L117.988 61.493" stroke="#009FDA" stroke-width="2"/>
<path d="M100.08 89.2833C97.856 100.342 79.3551 120.125 55.4187 114.62M55.4187 114.62C29.9814 108.77 35.1276 91.2291 41.2012 84.5618C45.265 79.069 56.3583 72.6151 68 83.629C81.5586 96.4564 64.1946 110.578 55.4187 114.62ZM55.4187 114.62C40.4147 119.594 16.8598 122.177 2.09088 98.1509" stroke="#009FDA" stroke-width="2" stroke-linecap="round" stroke-linejoin="round"/>
</svg>
