<svg width="80" height="80" viewBox="0 0 80 80" fill="none" xmlns="http://www.w3.org/2000/svg">
<circle cx="40" cy="40" r="40" fill="white"/>
<path d="M34.62 26.1L31 20.5L23.46 32.15" stroke="#10304C" stroke-miterlimit="10"/>
<path d="M45.3799 26.1L48.9999 20.5L56.5399 32.15" stroke="#10304C" stroke-miterlimit="10"/>
<path d="M32.5 29.5H47.5" stroke="#10304C" stroke-miterlimit="10"/>
<path d="M24.4102 42.44L40.0002 17.5L55.5902 42.44" stroke="#10304C" stroke-miterlimit="10" stroke-linecap="square"/>
<path d="M17.9199 62.4999C19.3386 62.4912 20.7396 62.1839 22.0318 61.5981C23.3239 61.0124 24.4783 60.1612 25.4199 59.0999C27.1708 61.0779 29.6332 62.2827 32.2693 62.4513C34.9055 62.6199 37.5013 61.7387 39.4899 59.9999C39.8196 59.7103 40.1303 59.3996 40.4199 59.0699C42.1669 61.0552 44.6292 62.2676 47.2679 62.4419C49.9066 62.6161 52.507 61.7381 54.4999 59.9999L54.9199 59.6099C56.7829 61.4519 59.3001 62.4804 61.9199 62.4699" stroke="#009FDA" stroke-miterlimit="10" stroke-linecap="square"/>
<path d="M17.9199 50.4999C19.3386 50.4912 20.7396 50.1839 22.0318 49.5981C23.3239 49.0124 24.4783 48.1612 25.4199 47.0999C27.1708 49.0779 29.6332 50.2827 32.2693 50.4513C34.9055 50.6199 37.5013 49.7387 39.4899 47.9999C39.8196 47.7103 40.1303 47.3996 40.4199 47.0699C42.1669 49.0552 44.6292 50.2676 47.2679 50.4419C49.9066 50.6161 52.507 49.7381 54.4999 47.9999L54.9199 47.6099C56.7829 49.4519 59.3001 50.4804 61.9199 50.4699" stroke="#009FDA" stroke-miterlimit="10" stroke-linecap="square"/>
<path d="M52.4502 37.42C53.1702 37.0386 53.8417 36.5719 54.4502 36.03L54.8702 35.64C56.7332 37.482 59.2504 38.5105 61.8702 38.5" stroke="#009FDA" stroke-miterlimit="10" stroke-linecap="square"/>
<path d="M17.9199 38.5C19.3386 38.4912 20.7396 38.184 22.0318 37.5982C23.3239 37.0124 24.4783 36.1612 25.4199 35.1C26.0908 35.8847 26.8803 36.5595 27.7599 37.1" stroke="#009FDA" stroke-miterlimit="10" stroke-linecap="square"/>
</svg>
