<svg width="102" height="24" viewBox="0 0 102 24" fill="none" xmlns="http://www.w3.org/2000/svg">
    <path d="M18.2351 20.349C18.1773 19.49 17.772 18.7383 16.7301 18.7383C16.2091 18.7383 15.8039 18.9531 15.4565 19.2752C15.1092 19.6511 14.8776 20.349 14.8776 21.1544C14.8776 21.7987 15.0513 22.443 15.3408 22.8188C15.6881 23.3021 16.1512 23.5168 16.7301 23.5168C17.5405 23.5168 18.1194 23.141 18.4088 22.2819L18.6404 22.443C18.3509 23.3558 17.5984 23.8927 16.4406 23.8927C15.5723 23.8927 14.8776 23.6242 14.4724 23.0873C14.1251 22.6578 13.8936 22.0135 13.8936 21.2618C13.8936 20.2954 14.2409 19.5974 14.7619 19.1141C15.225 18.6846 15.8039 18.4698 16.6143 18.4698C17.3089 18.4698 17.8299 18.6846 18.1194 18.9531L18.293 18.5235L18.5246 18.5772C18.4667 19.0068 18.4088 19.7584 18.4667 20.2954L18.2351 20.349Z" fill="white"/>
    <path d="M24.6599 18.7383C24.1968 18.7383 23.7916 18.9531 23.5022 19.3826C23.2706 19.7585 23.0969 20.3491 23.0969 21.1544C23.0969 21.9598 23.2706 22.6578 23.56 23.0336C23.8495 23.4632 24.2547 23.6779 24.7757 23.6779C25.2388 23.6779 25.644 23.5169 25.9334 23.0873C26.165 22.7115 26.3387 22.0672 26.3387 21.2618C26.3387 20.5101 26.165 19.8658 25.9334 19.4363C25.5861 18.9531 25.1809 18.7383 24.6599 18.7383ZM24.7178 18.5236C26.3387 18.5236 27.207 19.7048 27.207 21.1544C27.207 23.0336 26.165 23.9464 24.602 23.9464C23.0391 23.9464 21.9971 23.0336 21.9971 21.2618C22.1128 19.7585 22.9812 18.5236 24.7178 18.5236Z" fill="white"/>
    <path d="M30.5071 18.6309C30.6808 18.6309 31.086 18.6309 31.3754 18.6309C31.6649 18.6309 31.8964 18.6309 32.0701 18.6309C32.128 18.7382 32.3016 18.953 32.5332 19.3288C32.7647 19.7047 33.7488 20.9933 35.0802 22.7114C35.0802 20.349 35.0224 19.4899 35.0224 19.2752C34.9645 19.0067 34.9066 18.953 34.5593 18.8993H34.0962L34.154 18.6846C34.5014 18.6846 34.9066 18.6846 35.2539 18.6846C35.6012 18.6846 35.9486 18.6846 36.1801 18.6846V18.8993C36.0065 18.8993 35.8328 18.953 35.717 18.953C35.6012 19.0067 35.4855 19.0604 35.4855 19.2215C35.4276 19.5436 35.3697 20.5101 35.3697 21.745V23.8389C35.2539 23.8389 34.9645 23.8926 34.8487 23.9463C34.0383 22.8188 32.649 20.8322 31.607 19.4362C31.607 21.2617 31.607 22.9262 31.6649 23.2483C31.7228 23.4631 31.7806 23.5168 31.9543 23.5705C32.128 23.5705 32.3595 23.6242 32.5332 23.6242V23.8389C32.2437 23.8389 31.8385 23.8389 31.3754 23.8389C30.9702 23.8389 30.6229 23.8389 30.4492 23.8389V23.6242C30.565 23.6242 30.7387 23.6242 30.9123 23.5705C31.1439 23.5168 31.2018 23.4094 31.2018 23.1946C31.2596 22.8725 31.3175 21.1007 31.3175 19.2215C31.3175 19.1141 31.2596 19.1141 31.2018 19.0604C31.1439 19.0067 31.0281 18.953 30.8544 18.953L30.5071 18.8456V18.6309Z" fill="white"/>
    <path d="M39.6532 22.0671C39.5953 23.0873 40.1163 23.6242 40.9846 23.6242C41.5635 23.6242 42.0844 23.302 42.0844 22.6577C42.0844 22.2819 41.9108 22.0671 41.6213 21.8524C41.3319 21.6913 40.6951 21.4229 40.2899 21.2081C39.711 20.8859 39.4795 20.4564 39.4795 19.9195C39.4795 19.0067 40.1741 18.4698 41.2161 18.4698C41.7371 18.4698 42.1423 18.6309 42.3739 18.792L42.5475 18.4161L42.7791 18.4698C42.6633 19.1141 42.6633 19.7584 42.6633 20.0269H42.4318C42.4318 19.1141 41.9108 18.6846 41.274 18.6846C40.6951 18.6846 40.3478 19.0604 40.3478 19.5973C40.3478 19.9732 40.5215 20.2416 40.9267 20.4564C41.5635 20.7786 42.0266 20.9933 42.316 21.1544C42.7791 21.3692 43.0107 21.745 43.0107 22.2819C43.0107 23.3557 42.0844 23.839 40.9846 23.839C40.4636 23.839 39.8268 23.6779 39.4795 23.5168C39.5374 23.0336 39.5374 22.443 39.5374 22.0671H39.6532Z" fill="white"/>
    <path d="M48.9154 23.5705C49.7259 23.5705 50.3048 23.302 50.3626 22.1208C50.4205 21.047 50.4205 19.7584 50.3626 19.2215C50.3626 18.8993 50.189 18.8993 49.9574 18.8456H49.6101V18.6309C49.8995 18.6309 50.2469 18.6846 50.5363 18.6846C50.8257 18.6846 51.1731 18.6846 51.5204 18.6309L51.5783 18.8456L51.231 18.8993C50.9994 18.8993 50.9415 19.0067 50.9415 19.2215C50.8836 20.4027 50.8836 21.745 50.8257 22.4429C50.71 23.0335 50.5363 23.3557 50.1311 23.6242C49.7838 23.8389 49.3207 24 48.7418 24C48.0471 24 47.4682 23.8389 47.1209 23.4631C46.8315 23.1946 46.7157 22.8188 46.7157 22.1208C46.7157 21.5302 46.7157 19.5973 46.7157 19.2215C46.7157 19.0604 46.6578 18.953 46.542 18.953L45.9053 18.8456V18.6309C46.2526 18.6309 46.6578 18.6846 47.063 18.6846C47.3525 18.6846 47.8156 18.6309 48.1629 18.6309V18.8456L47.6998 18.8993C47.584 18.8993 47.5261 18.953 47.5261 19.1141C47.4682 19.7047 47.4682 21.3691 47.5261 22.2819C47.584 22.8188 47.6998 23.0335 47.8735 23.2483C48.105 23.4631 48.5102 23.5705 48.9154 23.5705Z" fill="white"/>
    <path d="M58.698 22.2819C58.6401 22.6577 58.5244 23.3557 58.4665 23.839C58.2928 23.839 57.8876 23.839 57.4245 23.839C56.9035 23.839 56.2667 23.839 55.63 23.839C55.2248 23.839 54.5301 23.839 54.3564 23.839V23.6242L54.8774 23.5705C55.0511 23.5705 55.109 23.5168 55.1669 23.3557C55.1669 23.0873 55.2248 22.5504 55.2248 21.9061V20.1879C55.2248 19.5437 55.2248 19.2752 55.2248 19.1141C55.2248 19.0067 55.1669 18.953 54.9932 18.953H54.5301V18.7383C54.7617 18.7383 55.3405 18.7383 55.6879 18.7383C55.9773 18.7383 56.3825 18.7383 56.8456 18.7383L56.9035 18.953L56.3825 19.0067C56.2089 19.0067 56.151 19.0604 56.151 19.2215C56.151 19.5437 56.0931 19.9732 56.0931 20.5638V22.0134C56.0931 22.7114 56.0931 23.302 56.0931 23.5168C56.0931 23.6242 56.151 23.6779 56.7298 23.6779C57.6561 23.6779 57.9455 23.6242 58.1192 23.3557C58.2928 23.141 58.4086 22.7651 58.5244 22.3893L58.698 22.2819Z" fill="white"/>
    <path d="M64.0237 21.7987C64.0237 22.6578 64.0237 23.0873 64.0816 23.3021C64.0816 23.4632 64.1395 23.5169 64.3132 23.5169C64.6026 23.5705 64.7184 23.5705 65.0078 23.5705V23.7853C64.7184 23.7853 64.1395 23.7853 63.5606 23.7853C63.1554 23.7853 62.6923 23.7853 62.2871 23.7853L62.2292 23.5705C62.4029 23.5705 62.5765 23.5705 62.866 23.5169C63.0396 23.5169 63.1554 23.4632 63.1554 23.3021C63.1554 23.0336 63.2133 22.6578 63.2133 21.7987V20.0806C63.2133 19.5437 63.2133 19.1142 63.2133 18.8994C61.9977 18.8994 61.9398 18.9531 61.7661 19.2752C61.6503 19.5437 61.5346 19.8122 61.4767 20.1343L61.2451 20.0806C61.3609 19.6511 61.4188 18.8994 61.4188 18.5236C61.6503 18.5773 62.2292 18.6309 63.3291 18.6309H64.0237C65.3552 18.6309 65.7025 18.6309 66.0498 18.5236C66.0498 18.6309 65.934 19.4363 65.9919 19.9732L65.7604 20.0806C65.7025 19.5974 65.6446 19.2752 65.5867 19.1142C65.5288 18.8994 65.3552 18.792 64.1395 18.8457C64.1395 19.0605 64.1395 19.49 64.1395 19.9195V21.7987H64.0237Z" fill="white"/>
    <path d="M69.871 20.0805C69.871 19.5973 69.871 19.3825 69.871 19.1678C69.871 18.8993 69.7552 18.8993 69.1184 18.8456V18.6309C69.35 18.6309 69.871 18.6309 70.2762 18.6309C70.6814 18.6309 71.1445 18.6309 71.434 18.6309V18.8456C70.8551 18.8456 70.7393 18.8993 70.7393 19.1141C70.7393 19.2752 70.7393 19.5436 70.7393 20.0268V22.1745C70.7393 22.7651 70.7393 23.0335 70.7393 23.302C70.7393 23.5168 70.913 23.5705 71.434 23.5705V23.7852C71.0866 23.7852 70.6235 23.7852 70.2183 23.7852C69.871 23.7852 69.35 23.7852 69.0605 23.7852V23.5705C69.6394 23.5705 69.7552 23.5168 69.7552 23.302C69.7552 23.1409 69.8131 22.8188 69.8131 22.1745V20.0805H69.871Z" fill="white"/>
    <path d="M74.5013 18.6309C74.6749 18.6309 75.0801 18.6309 75.3696 18.6309C75.659 18.6309 75.8906 18.6309 76.0642 18.6309C76.1221 18.7382 76.2958 18.953 76.5273 19.3288C76.7589 19.7047 77.743 20.9933 79.0744 22.7114C79.0744 20.349 79.0165 19.4899 79.0165 19.2752C78.9586 19.0067 78.9007 18.953 78.5534 18.8993H78.0903L78.1482 18.6846C78.4955 18.6846 78.9007 18.6846 79.2481 18.6846C79.5954 18.6846 79.9427 18.6846 80.1743 18.6846V18.8993C80.0006 18.8993 79.8269 18.953 79.7112 18.953C79.5954 19.0067 79.4796 19.0604 79.4796 19.2215C79.4217 19.5436 79.3638 20.5101 79.3638 21.745V23.8389C79.2481 23.8389 78.9586 23.8926 78.8428 23.9463C78.0324 22.8188 76.6431 20.8322 75.6011 19.4362C75.6011 21.2617 75.6011 22.9262 75.659 23.2483C75.7169 23.4631 75.7748 23.5168 75.9484 23.5705C76.1221 23.5705 76.3537 23.6242 76.5273 23.6242V23.8389C76.2379 23.8389 75.8327 23.8389 75.3696 23.8389C74.9644 23.8389 74.617 23.8389 74.4434 23.8389V23.6242C74.5591 23.6242 74.7328 23.6242 74.9065 23.5705C75.138 23.5168 75.1959 23.4094 75.1959 23.1946C75.2538 22.8725 75.3117 21.1007 75.3117 19.2215C75.3117 19.1141 75.2538 19.1141 75.1959 19.0604C75.138 19.0067 75.0222 18.953 74.8486 18.953L74.4434 18.8993V18.6309H74.5013Z" fill="white"/>
    <path d="M87.6424 20.349C87.5845 19.3289 87.0635 18.7383 86.1373 18.7383C85.6163 18.7383 85.1532 18.8994 84.8059 19.3826C84.4585 19.8121 84.2849 20.5101 84.2849 21.2081C84.2849 21.9061 84.4585 22.4967 84.748 22.9262C85.0953 23.4094 85.6163 23.6242 86.1952 23.6242C86.7741 23.6242 87.1214 23.4094 87.1793 23.141C87.2372 22.8725 87.2372 22.443 87.2372 22.0671C87.2372 21.5839 87.1793 21.5302 86.7162 21.5302H86.1952V21.3155C86.4846 21.3155 87.1214 21.3155 87.5266 21.3155C87.9318 21.3155 88.337 21.3155 88.5686 21.3155V21.5302C88.1055 21.5839 88.0476 21.6376 88.0476 21.7987C87.9897 22.1208 88.0476 22.443 88.0476 22.6577C88.0476 23.0873 88.0476 23.302 88.1055 23.4631C87.9318 23.5168 87.4687 23.6242 87.2372 23.6779C86.9477 23.7853 86.4846 23.839 86.0794 23.839C85.0374 23.839 84.3428 23.5705 83.8797 23.0336C83.5323 22.6041 83.3008 21.9598 83.3008 21.2081C83.3008 20.1343 83.7639 19.2752 84.6322 18.792C85.0953 18.5235 85.5584 18.4161 86.1952 18.4161C87.0056 18.4161 87.4687 18.6846 87.7003 18.8457L87.8739 18.4161L88.1055 18.4698C88.0476 18.7383 87.9318 19.5973 87.9897 20.2416H87.6424V20.349Z" fill="white"/>
    <path d="M34.8483 4.83222C34.8483 3.11409 34.7326 2.04027 34.6747 1.61074C34.6168 1.39597 34.501 1.2349 34.0958 1.2349H32.938V0.590604C33.98 0.536913 35.4272 0.42953 36.3534 0.161074H36.4113C36.4692 0.85906 36.585 2.20134 36.585 2.63087H36.6429C37.3375 1.34228 38.3795 0 40.1161 0C41.2739 0 41.8528 0.805369 41.8528 1.44966C41.8528 2.36242 41.1581 2.68456 40.7529 2.68456C40.4056 2.68456 40.174 2.57718 40.0583 2.30872C39.9425 1.71812 39.7109 1.39597 39.0163 1.39597C38.0901 1.39597 37.2796 2.73826 36.9323 3.97315C36.8165 4.40269 36.7586 4.88591 36.7586 5.42282C36.7586 8.53691 36.7586 9.61074 36.8165 10.3087C36.8165 10.8993 37.0481 11.0067 39.1899 11.0604L39.0742 11.7584C38.2058 11.7584 36.9323 11.7047 35.7746 11.7047C34.6168 11.7047 33.8064 11.7584 32.8223 11.7584L32.8802 11.0604C34.3852 11.0067 34.6747 10.8993 34.7326 10.4161C34.7905 9.8792 34.8483 8.6443 34.8483 7.08725V4.83222Z" fill="white"/>
    <path d="M51.4043 11.8099C50.6518 11.8099 49.6098 11.7562 48.452 11.7562C47.2364 11.7562 46.4259 11.8099 45.5576 11.8099L45.6155 11.1119C47.3521 11.0582 47.5837 10.8972 47.5837 10.4139C47.6416 9.87703 47.6995 8.74952 47.6995 7.13878V4.23945C47.6995 2.68241 47.6416 1.87704 47.6416 1.5012C47.5837 1.17905 47.2943 1.12536 45.6734 1.17905L45.7313 0.534755C46.889 0.481063 48.5678 0.373681 49.6677 0.105225C49.6677 0.74952 49.6098 2.36026 49.6098 4.13207V7.19247C49.6098 8.91059 49.6098 9.87703 49.6677 10.4676C49.6677 11.0045 50.015 11.1119 51.5201 11.1656L51.4043 11.8099Z" fill="white"/>
    <path d="M58.4087 8.58845C58.4087 9.87704 59.2192 10.8972 60.5506 10.8972C62.0557 10.8972 63.0398 10.0918 63.6186 8.91059C63.7344 8.58845 63.7923 8.15892 63.7923 7.89046V4.88375C62.9819 5.31328 61.1873 6.01127 59.9717 6.54818C59.1034 7.0314 58.4087 7.40724 58.4087 8.58845ZM63.7923 3.05825C63.7923 1.98442 63.1555 0.803211 61.3031 0.803211C59.4507 0.803211 58.6403 1.66227 58.6403 2.78979C58.6403 3.05825 58.6982 3.38039 58.7561 3.54147C58.8139 3.70254 58.6982 3.91731 58.5245 4.02469C58.3508 4.13207 58.1193 4.23945 57.772 4.23945C57.251 4.23945 56.7879 3.971 56.7879 3.16563C56.7879 1.82335 58.7561 0.105225 61.7083 0.105225C63.9081 0.105225 64.8922 1.01798 65.2395 1.5012C65.4711 1.82335 65.6447 2.46764 65.6447 2.95086V9.71596C65.6447 10.7898 65.992 10.9509 66.3973 10.9509C66.8604 10.9509 67.2656 10.4676 67.555 9.39382L68.2497 9.60858C67.9023 11.4878 66.8025 12.0784 65.7605 12.0784C64.3133 12.0784 63.8502 11.2193 63.7923 10.0918C62.5188 11.3804 61.0137 12.0784 59.6244 12.0784C57.4825 12.0784 56.209 10.6287 56.209 8.8569C56.209 7.89046 56.6142 6.92402 57.8298 6.49449C59.798 5.68912 62.8082 4.77637 63.7923 4.07838V3.05825Z" fill="white"/>
    <path d="M2.08396 8.58952C2.08396 9.87811 2.8944 10.8982 4.22582 10.8982C5.7309 10.8982 6.715 10.0929 7.29388 8.91167C7.40965 8.58952 7.46754 8.15999 7.46754 7.89154V4.88483C6.65711 5.31436 4.86258 6.01234 3.64694 6.54926C2.77862 7.03248 2.08396 7.40832 2.08396 8.58952ZM7.52543 3.05932C7.52543 1.9855 6.88866 0.80429 5.03625 0.80429C3.18383 0.80429 2.3734 1.66335 2.3734 2.73718C2.3734 3.00563 2.43129 3.32778 2.48918 3.48885C2.54707 3.70362 2.3734 3.91838 2.25763 3.97207C2.02608 4.13315 1.85241 4.18684 1.50509 4.18684C0.984095 4.18684 0.520991 3.91838 0.520991 3.11301C0.520991 1.77073 2.48918 0.0526123 5.44146 0.0526123C7.6412 0.0526123 8.6253 0.965364 8.97263 1.44859C9.20418 1.77073 9.37784 2.41503 9.37784 2.89825V9.71704C9.37784 10.7909 9.72517 10.9519 10.1304 10.9519C10.5935 10.9519 10.9987 10.4687 11.2881 9.39489L11.9828 9.60966C11.6355 11.4889 10.5356 12.0795 9.49362 12.0795C8.04642 12.0795 7.58332 11.2204 7.52543 10.0929C6.25189 11.3815 4.74681 12.0795 3.41539 12.0795C1.27353 12.0795 0 10.6298 0 8.85798C0 7.89154 0.405216 6.92509 1.62086 6.49556C3.58905 5.69019 6.59922 4.77744 7.58332 4.07946V3.05932H7.52543Z" fill="white"/>
    <path d="M91.8679 8.58845C91.8679 9.87704 92.6784 10.8972 94.0098 10.8972C95.5149 10.8972 96.499 10.0918 97.0778 8.91059C97.1936 8.58845 97.2515 8.15892 97.2515 7.89046V4.88375C96.4411 5.31328 94.6465 6.01127 93.4309 6.54818C92.5626 7.0314 91.8679 7.40724 91.8679 8.58845ZM97.2515 3.05825C97.2515 1.98442 96.6147 0.803211 94.7623 0.803211C92.9099 0.803211 92.0995 1.66227 92.0995 2.78979C92.0995 3.05825 92.1574 3.38039 92.2152 3.54147C92.2731 3.70254 92.1574 3.91731 91.9837 4.02469C91.81 4.13207 91.5785 4.23945 91.2312 4.23945C90.7102 4.23945 90.2471 3.971 90.2471 3.16563C90.2471 1.82335 92.2153 0.105225 95.1675 0.105225C97.3673 0.105225 98.3514 1.01798 98.6987 1.5012C98.9303 1.82335 99.1039 2.46764 99.1039 2.95086V9.71596C99.1039 10.7898 99.4512 10.9509 99.8565 10.9509C100.32 10.9509 100.725 10.4676 101.014 9.39382L101.709 9.60858C101.362 11.4878 100.262 12.0784 99.2197 12.0784C97.7725 12.0784 97.3094 11.2193 97.2515 10.0918C95.978 11.3804 94.4729 12.0784 93.1415 12.0784C90.9996 12.0784 89.7261 10.6287 89.7261 8.8569C89.7261 7.89046 90.1313 6.92402 91.3469 6.49449C93.373 5.68912 96.3253 4.77637 97.3094 4.07838V3.05825H97.2515Z" fill="white"/>
    <path d="M71.9546 11.1119C73.4597 11.0582 73.7491 11.0046 73.807 10.3603C73.8649 9.55489 73.8649 8.58845 73.8649 7.29986V4.99113C73.8649 3.54147 73.8649 2.36026 73.807 1.66227C73.807 1.28643 73.5755 1.23274 71.9546 1.23274L72.0125 0.588446C73.1702 0.588446 74.4438 0.427372 75.5436 0.212607C75.6015 0.695829 75.6594 1.87704 75.7173 2.25288C76.7014 1.28643 78.0907 0.105225 80.1747 0.105225C82.085 0.105225 83.0112 0.910594 83.4743 1.76965C83.7058 2.19918 83.8216 2.78979 83.8216 3.43408V10.4676C83.8216 11.0582 83.9953 11.0582 85.7898 11.1656L85.7319 11.8636C84.9794 11.8636 83.9374 11.8099 82.7796 11.8099C81.6798 11.8099 80.8693 11.8636 80.1168 11.8636L80.1747 11.1656C81.564 11.1119 81.8534 11.0046 81.9113 10.5213C81.9692 9.93073 82.0271 8.64214 82.0271 6.54818C82.0271 3.3267 81.9692 3.00455 81.7376 2.52133C81.3903 1.76965 80.6957 1.34012 79.5958 1.34012C77.9749 1.34012 76.8751 2.0918 76.1225 3.27301C75.891 3.64885 75.8331 4.07838 75.8331 4.72267V7.78308C75.8331 8.91059 75.8331 9.98442 75.891 10.5213C75.9489 11.0582 76.1804 11.2193 77.8013 11.2193L77.7434 11.9173C76.9908 11.9173 75.6594 11.8636 74.7911 11.8636C73.807 11.8636 72.9387 11.9173 72.1283 11.9173V11.1119H71.9546Z" fill="white"/>
    <path d="M21.8236 1.23389C21.129 1.23389 20.7816 1.23389 19.8554 1.28758V9.50235C19.8554 10.7909 20.5501 11.0057 22.1131 11.0057C24.2549 11.0057 26.802 9.28758 26.802 6.22718C26.7441 3.27416 24.7759 1.23389 21.8236 1.23389ZM22.2867 11.65L19.3923 11.5963L16.7295 11.65V11.1131C18.003 11.1131 18.1767 10.7909 18.1767 9.7708V2.09295C18.1767 1.12651 17.8294 1.07282 16.7295 1.07282V0.535903L19.1029 0.589594L21.8815 0.535903C24.9496 0.482211 28.2492 1.7708 28.7123 5.63657C29.1754 9.39496 25.76 11.7037 22.2867 11.65Z" fill="white"/>
</svg>